<?xml version="1.0" encoding="UTF-8"?>
<!-- Generated by Pixelmator Pro 3.3.5 -->
<svg width="1000" height="1000" viewBox="0 0 1000 1000" xmlns="http://www.w3.org/2000/svg">
    <path id="Path" fill="white" stroke="none" d="M 500 74.483643 C 525.996887 74.483643 547 98.25531 547 127.679077 L 547 234.070007 L 723.25 234.070007 C 781.706238 234.070007 829 287.597961 829 353.759766 L 829 805.921143 C 829 872.082947 781.706238 925.610901 723.25 925.610901 L 276.75 925.610901 C 218.293747 925.610901 171 872.082947 171 805.921143 L 171 353.759766 C 171 287.597961 218.293747 234.070007 276.75 234.070007 L 453 234.070007 L 453 127.679077 C 453 98.25531 474.003113 74.483643 500 74.483643 Z M 335.5 712.829102 C 322.574982 712.829102 312 724.798096 312 739.426819 C 312 754.055542 322.574982 766.024536 335.5 766.024536 L 382.5 766.024536 C 395.425018 766.024536 406 754.055542 406 739.426819 C 406 724.798096 395.425018 712.829102 382.5 712.829102 L 335.5 712.829102 Z M 476.5 740.991394 C 463.575012 740.991394 453 752.960388 453 767.589111 C 453 782.217834 463.575012 794.186829 476.5 794.186829 L 523.5 794.186829 C 536.424988 794.186829 547 782.217834 547 767.589111 C 547 752.960388 536.424988 740.991394 523.5 740.991394 L 476.5 740.991394 Z M 617.5 712.829102 C 604.575012 712.829102 594 724.798096 594 739.426819 C 594 754.055542 604.575012 766.024536 617.5 766.024536 L 664.5 766.024536 C 677.424988 766.024536 688 754.055542 688 739.426819 C 688 724.798096 677.424988 712.829102 664.5 712.829102 L 617.5 712.829102 Z M 434.200012 500.047272 C 434.200012 463.323486 400.846771 433.552979 368.399994 433.552979 C 335.953247 433.552979 300.25 463.323486 300.25 500.047272 C 300.25 536.771118 335.953247 566.541626 368.399994 566.541626 C 400.846771 566.541626 434.200012 536.771118 434.200012 500.047272 Z M 634.733337 566.541626 C 667.180054 566.541626 699.75 536.771118 699.75 500.047272 C 699.75 463.323486 667.180054 433.552979 634.733337 433.552979 C 602.286621 433.552979 568.933289 463.323486 568.933289 500.047272 C 568.933289 536.771118 602.286621 566.541626 634.733337 566.541626 Z M 100.5 446.851807 L 124 446.851807 L 124 766.024536 L 100.5 766.024536 C 61.578125 766.024536 30 730.283813 30 686.231323 L 30 526.64502 C 30 482.592529 61.578125 446.851807 100.5 446.851807 Z M 899.5 446.851807 C 938.421875 446.851807 970 482.592529 970 526.64502 L 970 686.231323 C 970 730.283813 938.421875 766.024536 899.5 766.024536 L 876 766.024536 L 876 446.851807 L 899.5 446.851807 Z"/>
</svg>
