<?xml version="1.0" standalone="no"?>
<!DOCTYPE svg PUBLIC "-//W3C//DTD SVG 20010904//EN"
 "http://www.w3.org/TR/2001/REC-SVG-20010904/DTD/svg10.dtd">
<svg version="1.0" xmlns="http://www.w3.org/2000/svg"
 width="600.000000pt" height="600.000000pt" viewBox="0 0 600.000000 600.000000"
 preserveAspectRatio="xMidYMid meet">
<metadata>
Created by potrace 1.14, written by Peter Selinger 2001-2017
</metadata>
<g transform="translate(0.000000,600.000000) scale(0.100000,-0.100000)"
fill="#000000" stroke="none">
<path d="M1420 5808 c-1 -34 -1 -1559 -1 -1589 l1 -26 218 1 217 1 1 268 c1
147 4 270 7 273 3 3 248 6 544 6 l539 0 0 214 0 214 -145 0 c-80 1 -325 0
-543 0 -219 0 -398 3 -399 7 0 4 -1 152 -2 328 l-2 320 -217 3 -218 2 0 -22z"/>
<path d="M3488 5823 c-2 -5 -4 -372 -3 -818 l1 -810 219 0 220 0 0 267 c0 147
4 270 8 274 12 12 671 6 718 -6 55 -15 124 -85 140 -142 8 -29 13 -191 15
-508 2 -256 5 -494 8 -530 14 -201 17 -238 21 -266 2 -17 7 -57 10 -90 3 -32
8 -70 10 -84 3 -14 7 -47 10 -75 3 -27 8 -57 10 -65 2 -8 6 -28 9 -45 12 -75
18 -105 32 -175 27 -129 63 -267 95 -365 13 -38 24 -72 24 -75 2 -12 29 -88
42 -120 8 -19 19 -44 23 -55 51 -130 184 -397 201 -403 5 -2 9 -8 9 -12 0 -12
62 -107 118 -182 23 -31 42 -61 42 -65 0 -9 -4054 -8 -4112 1 -66 11 -134 52
-209 128 -67 69 -190 223 -220 278 -8 14 -16 27 -19 30 -11 10 -80 132 -80
140 0 5 -3 10 -8 12 -8 3 -112 224 -112 239 0 5 -9 28 -19 52 -43 94 -145 456
-165 587 -3 19 -8 46 -10 60 -2 14 -9 57 -15 95 -26 175 -27 181 -36 300 -4
44 -8 103 -11 130 -5 65 -16 324 -14 350 1 11 1 25 1 30 0 6 0 73 0 150 0 77
-1 149 -1 160 0 11 0 38 1 60 0 22 0 45 0 50 -2 44 -1 215 2 235 9 58 18 75
66 127 20 21 73 51 104 59 4 1 65 2 136 3 l129 1 -1 91 c-1 50 1 93 5 95 4 3
5 10 2 18 -9 22 -10 216 -1 216 4 0 5 5 2 10 -10 17 -292 11 -372 -7 -144 -33
-282 -122 -381 -247 -37 -47 -84 -143 -106 -217 l-25 -84 0 -1946 c-1 -1635 1
-1954 13 -1993 8 -25 12 -46 11 -46 -14 0 78 -182 112 -222 100 -116 190 -181
313 -223 3 -1 12 -4 20 -7 67 -26 192 -27 2155 -27 2003 0 2052 1 2125 20 163
42 282 123 377 257 93 129 123 239 126 462 l2 135 140 1 c78 0 146 4 153 8 7
4 12 3 12 -2 0 -26 228 18 263 52 6 6 26 22 44 34 43 31 98 116 118 186 22 76
14 182 -18 244 -32 61 -45 79 -92 128 -130 135 -279 389 -379 645 -50 128
-114 336 -130 419 -2 14 -11 57 -20 95 -9 39 -18 84 -20 100 -3 17 -7 39 -9
50 -6 24 -20 124 -33 230 -12 97 -13 111 -19 200 -4 50 -9 106 -11 125 -3 19
-7 265 -9 545 -2 281 -5 510 -5 510 -1 0 -4 13 -6 28 -30 179 -166 371 -328
462 -140 78 -195 86 -622 86 -325 0 -352 1 -356 17 -2 9 -4 155 -3 325 l0 307
-217 0 c-119 0 -218 -3 -220 -7z m-2941 -4168 c36 -55 69 -101 74 -103 5 -2 9
-8 9 -14 0 -9 88 -122 155 -197 48 -54 128 -134 165 -164 58 -45 190 -105 280
-126 83 -20 120 -20 1824 -21 956 0 1741 -2 1745 -4 5 -3 5 -153 0 -256 -2
-53 -91 -160 -132 -160 -9 0 -19 -4 -22 -10 -9 -14 -4014 -14 -4052 1 -46 17
-97 57 -118 91 -31 52 -35 80 -36 238 0 69 0 130 1 135 2 6 2 14 1 19 -1 5 -2
95 -1 200 0 105 0 200 0 211 0 11 0 38 1 60 0 22 1 45 0 50 -1 34 -2 147 -2
185 l1 45 21 -40 c12 -22 51 -85 86 -140z"/>
<path d="M1690 3394 c-19 -8 -38 -20 -42 -27 -4 -7 -8 -9 -8 -5 0 5 -276 -126
-289 -138 -12 -11 99 -188 187 -299 85 -106 209 -225 301 -287 25 -18 48 -35
49 -40 2 -4 8 -8 14 -8 5 0 23 -9 39 -20 103 -74 370 -177 524 -204 17 -3 39
-7 50 -9 44 -10 164 -20 235 -20 194 0 367 27 534 84 98 33 286 118 286 129 0
3 16 12 35 20 19 8 35 16 35 20 0 3 18 16 40 30 22 14 40 28 40 32 0 5 6 8 14
8 16 0 239 216 277 268 13 19 29 39 34 45 35 41 160 246 153 251 -13 10 -381
186 -387 186 -4 0 -21 -24 -36 -52 -16 -29 -31 -55 -34 -58 -4 -3 -19 -25 -34
-48 -45 -69 -168 -193 -254 -254 -127 -91 -313 -175 -429 -194 -22 -3 -42 -8
-45 -10 -13 -7 -145 -17 -224 -17 -70 1 -116 5 -190 17 -71 12 -218 57 -227
70 -4 6 -8 8 -8 3 0 -12 -137 61 -219 116 -130 87 -303 282 -352 395 -16 36
-20 37 -69 16z"/>
</g>
</svg>
