<?xml version="1.0" encoding="UTF-8"?>
<!-- Generated by Pixelmator Pro 3.6.12 -->
<svg width="1024" height="1024" viewBox="0 0 1024 1024" xmlns="http://www.w3.org/2000/svg">
    <style>
        @keyframes darting-eyes {
            0%, 100% { transform: translateX(0); }
            25% { transform: translateX(-5px); }
            75% { transform: translateX(10px); }
        }
        
        @keyframes mouth-close {
            0%, 50%, 100% { 
                transform: scaleY(1);
            }
            85%, 95% {
                transform: scaleY(0.3) translate(10px, 20px);
            }
        }

        @keyframes mouth-inner {
            0%, 50%, 100% {
                opacity: 1;
            }
            60%, 98% {
                opacity: 0;
            }
        }

        @keyframes brow-movement {
            0%, 55%, 100% { 
                transform: translate(0, 0);
            }
            25%, 35% {
                transform: translate(-5px, -10px);
            }
        }
        
        @keyframes blink {
            0%, 95%, 100% { 
                transform: scaleY(1);
            }
            97% {
                transform: scaleY(0.1) scaleX(0.95) rotate(50deg);
            }
        }

        @keyframes pupil-blink {
            0%, 94%, 100% { 
                opacity: 1;
            }
            95%, 99% {
                opacity: 0;
            }
        }
        
        #eyel, #eyer {
            animation: blink 5s linear infinite;
            transform-origin: center;
            transform-box: fill-box;
        }

        #pupill, #pupilr, #pupill2, #pupilr2 {
            animation: pupil-blink 5s linear infinite;
        }

        #pupill, #pupilr {
            animation: pupil-blink 5s linear infinite, darting-eyes 5s ease-in-out infinite;
        }

        #mouth {
            animation: mouth-close 10s ease-in-out infinite;
            transform-origin: center;
            transform-box: fill-box;
        }

        #mouthin {
            animation: mouth-inner 10s ease-in-out infinite;
        }

        #browl, #browr, #browlin, #browrin {
            animation: brow-movement 6s ease-in-out infinite;
            transform-origin: center;
            transform-box: fill-box;
        }
    </style>

    <path id="Path" fill="#ffffff" stroke="none" d="M 0 0 L 1024 0 L 1024 1024 L 0 1024 L 0 0 Z"/>
    <path id="path1" fill="#111827" stroke="none" d="M 681.604004 972.20697 C 687.161987 971.674011 694.380005 970.812988 699.585022 973.15802 C 701.094971 973.838013 702.763977 974.872009 703.280029 976.538025 C 703.536011 977.36499 703.077026 977.723022 702.69397 978.429016 C 700.973022 979.661011 699.484985 980.244995 697.380005 980.557007 C 690.007019 981.650024 668.927002 979.809998 660.624023 979.148987 C 651.890015 978.46698 643.195007 978.754028 634.539001 977.164978 C 650.166992 975.286011 665.909973 973.387024 681.604004 972.20697 Z"/>
    <path id="path2" fill="#111827" stroke="none" d="M 378.11499 94.795776 C 368.983002 96.232605 360.041992 96.987 352.050995 91.222168 C 346.170013 86.979187 342.651001 79.842285 341.631012 72.764099 L 341.420013 67.492432 L 342.247986 62.281677 L 344.082001 57.334595 L 346.850006 52.843384 C 352.11499 45.877502 360.660004 41.55072 369.244995 40.512817 C 377.476013 39.517578 385.871002 41.281372 392.459015 46.474121 L 396.110992 50.041321 L 398.973999 54.268127 L 400.931 58.983032 L 401.903015 63.994507 C 402.638 71.322327 400.460999 78.057129 395.674988 83.6297 C 393.242004 86.463196 390.272003 89.103821 387.136993 91.133667 C 397.416992 110.77301 408.401001 130.733032 416.557007 151.360962 C 423.364014 148.271973 430.033997 146.786987 437.28299 149.664978 C 440.084991 150.778015 442.037994 152.249023 444.170013 154.354004 C 454.895996 149.886963 466.576996 146.906982 477.686005 143.497009 C 489.179331 139.999003 500.737 136.728333 512.359009 133.684998 C 523.980998 130.641012 535.658325 127.827006 547.390991 125.242981 C 559.123657 122.658305 570.902323 120.305318 582.72699 118.184021 C 594.552348 116.062683 606.414693 114.174337 618.314026 112.518982 C 646.658997 108.530029 674.893005 105.47998 703.559021 106.497986 C 711.22998 106.770996 724.137024 106.908997 731.109985 109.90802 C 747.73999 117.060974 787.594971 235.542969 798.687988 258.98999 C 813.184021 264.966003 822.982971 280.416992 828.724976 294.351013 C 837.573975 315.827026 840.807983 343.44104 833.315002 365.77002 C 842.054993 390.734009 880.737 516.497009 876.710999 536.84198 C 865.427002 545.736023 846.372009 555.797974 833.328003 562.611023 C 806.166016 576.797974 778.541016 589.612976 750.708008 602.403992 L 717.478027 617.757996 C 711.210999 620.703979 704.997009 624.013 698.599976 626.645996 C 721.622009 644.755981 743.557983 664.122009 767.018982 681.700989 C 773.10498 686.260986 779.172974 690.963989 785.504028 695.177979 C 794.612976 701.23999 805.947998 706.817993 813.463989 714.778992 C 819.452026 721.122986 823.341003 729.718994 824.307983 738.370972 C 825.51001 749.116028 822.942017 761.052002 815.974976 769.531006 C 813.606995 772.413025 808.018982 777.55603 804.203979 777.882996 L 800.630981 777.870972 C 795.01001 780.737 790.770996 785.978027 783.713989 783.565002 C 781.078979 782.664001 780.271973 779.919983 778.086975 778.758972 C 776.926025 778.143005 775.018005 778.661987 773.721985 778.515991 C 770.30603 778.132019 767.088013 775.296021 765.682983 772.283997 C 764.166016 769.031982 763.997986 765.278015 763.924988 761.744019 C 758.534973 757.827026 756.262024 753.536011 755.255005 746.973022 C 754.362976 741.151001 754.5 735.184998 754.796021 729.320007 C 735.075012 710.705994 715.945007 691.374023 696.057983 672.95697 C 705.234009 692.718994 714.482971 712.61499 722.499023 732.875977 C 725.429016 740.280029 728.781982 747.940002 730.60498 755.702026 C 722.349976 763.562988 709.008972 768.03302 698.656982 772.640991 C 706.56897 788.72998 715.275024 804.481995 723.47998 820.432983 C 734.090007 841.322347 744.440023 862.339355 754.530029 883.484009 C 782.088013 874.453003 807.666016 867.565979 837.007996 867.45697 C 842.046021 867.439026 848.908997 867.179993 853.55603 869.383972 C 854.908997 870.025024 855.903015 870.853027 856.346985 872.327026 C 859.375977 882.369995 851.429016 899.333008 846.41803 907.729004 C 823.583984 945.991028 778.997986 971.958008 736.466003 982.471985 C 731.025024 983.817017 720.577026 987.231995 715.333984 986.317017 C 710.330017 982.804016 708.460999 973.508972 707.44397 967.755005 C 705.125977 954.643982 705.327026 940.72998 708.536987 927.77002 L 712.616028 914.156982 C 706.156982 904.52002 700.09198 886.250977 695.344971 874.950989 L 660.075012 791.276978 C 638.744995 799.901978 617.48999 808.564026 596.010986 816.830017 C 584.408997 821.296021 572.833984 825.903015 560.971985 829.643982 C 558.879028 852.862976 556.129028 875.494019 550.862976 898.232971 C 549.486023 904.177979 548.218994 910.382019 546.099976 916.111023 C 572.479004 920.242981 596.075989 929.273987 616.997009 946.171997 C 621.72998 949.994995 626.731995 953.960999 630.344971 958.896973 C 631.807983 960.895996 633.609985 963.672974 633.361023 966.283997 C 633.211975 967.838989 632.211975 968.942993 630.960022 969.755005 C 625.950989 973.005981 617.52301 973.940002 611.601013 974.981018 C 572.603027 981.836975 529.14502 981.054016 490.579987 971.719971 C 486.06601 970.627991 481.270996 968.140015 476.730988 967.603027 C 472.410004 967.09198 467.792999 968.317017 463.401001 968.325989 C 456.207001 968.341003 410.075012 967.257019 405.127991 965.663025 C 397.231995 965.414001 389.139008 965.049011 381.348999 963.69397 C 389.188995 962.721985 397.268005 962.614014 405.161987 962.416992 L 405.838989 962.252014 C 410.117004 961.270996 415.31601 961.534973 419.737 961.255981 C 429.437988 960.643005 439.161987 959.822021 448.877014 959.510986 C 452.90799 959.382019 458.277008 960.075012 462.035004 958.872986 C 462.541992 958.044983 462.45401 958.03302 462.201996 957.133972 C 461.782013 955.627014 460.804993 954.401001 460.584015 952.802979 C 459.446014 944.585022 461.835999 934.075989 465.600006 926.749023 C 470.278015 917.642029 478.628998 911.343994 488.328003 908.315002 C 491.912994 907.195984 495.528015 906.390015 499.295013 906.789978 L 500.109985 906.869019 C 506.312988 881.971008 515 855.286011 516.072998 829.528992 C 504.949005 825.184998 476.981995 819.005981 470.036011 810.651978 C 467.644989 798.820984 464.63501 784.164001 464.177002 772.22699 C 461.144328 781.608337 458.57133 791.114339 456.458008 800.744995 C 454.344666 810.375 452.700999 820.084676 451.527008 829.874023 C 459.128998 837.888 472.988007 857.049011 472.562988 868.507019 C 472.44101 871.788025 471.09201 875.221985 468.557007 877.385986 C 466.56601 879.085022 464.10199 879.700012 461.526001 879.450989 C 456.046997 878.921021 451.639008 875.010986 448.434998 870.799988 C 446.572998 868.334005 444.909332 865.741007 443.444 863.020996 C 443.667999 872.598022 448.096008 895.559998 441.22699 902.336975 C 437.743011 905.773987 432.636993 906.348022 427.971985 906.14801 C 414.972992 905.591003 400.822998 899.913025 391.973999 890.211975 C 386.18399 883.86499 383.105988 876.13501 383.640991 867.484985 C 384.187012 858.658997 387.127014 849.323975 390.298004 841.120972 C 395.911011 826.60199 405.170013 813.659973 411.657013 799.471985 C 421.630005 777.661011 429.171997 754.60498 437.984009 732.299988 L 431.580994 726.187988 C 415.937988 728.375 400.437012 730.515015 384.640015 731.27301 C 356.221985 732.637024 327.346985 729.606995 299.473999 724.187988 C 292.748993 722.880005 282.270996 722.153992 276.76001 718.028992 C 266.062988 710.021973 231.197006 603.125977 224.768997 582.916992 C 222.962336 577.381673 221.31867 571.798686 219.837997 566.16803 C 218.973007 562.932007 218.367004 559.013977 217.041 555.960999 C 215.298996 551.950012 210.095993 547.875977 207.253998 544.343018 C 195.468994 529.69397 189.117996 512.572998 187.186005 493.945007 C 186.591003 488.202026 186.438995 482.349976 187.029007 476.598022 C 187.537994 471.640015 189.791 466.208008 188.798004 461.289001 C 187.149994 453.130005 182.677002 443.687012 179.987 435.578979 C 172.913005 413.709676 166.294006 391.703349 160.130005 369.559998 C 155.169006 352.234009 148.091995 333.282959 147.380997 315.216003 C 147.186996 310.291016 147.634003 305.988037 150.802002 301.997986 C 159.916 290.518005 179.106995 279.851013 191.729004 272.285034 C 213.893005 259.133016 236.454671 246.702677 259.414001 234.994019 C 282.373332 223.284668 305.683329 212.32133 329.343994 202.104004 C 347.81601 194.020996 366.242004 185.911987 385.220001 179.059021 C 384.023987 176.330994 383.151001 174.247009 384.195007 171.311035 C 386.338013 165.280029 394.196014 161.323975 399.285004 157.987 C 391.506012 137.046997 384.518005 116.190002 378.11499 94.795776 Z"/>
    <path id="path3" fill="#ffffff" stroke="none" d="M 793.065979 760.382019 C 794.328003 765.14801 793.968018 768.122986 796.125977 773.218018 C 792.960999 775.142029 790.151001 775.984009 786.53302 776.481995 C 785.625977 775.971985 784.932007 775.223999 784.499023 774.260986 C 782.742004 770.348022 790.995972 764.442993 792.791992 760.929993 L 793.065979 760.382019 Z"/>
    <path id="path4" fill="#ffffff" stroke="none" d="M 788.732971 742.768982 C 789.354004 744.276001 789.919006 745.721985 789.986023 747.370972 C 790.27002 754.348999 781.767029 764.856995 777.119995 769.421021 C 775.945007 770.575012 775.08197 770.432983 773.541992 770.502991 L 771.854004 768.14502 C 769.307983 762.523987 779.47699 759.044983 782.429993 755.507019 C 785.461975 751.875 787.245972 747.20697 788.732971 742.768982 Z"/>
    <path id="path5" fill="#14b8a6" stroke="none" d="M 382.203003 93.234192 L 383.574005 93.852112 C 386.265991 98.427124 388.177002 103.625 390.346008 108.473999 L 403.207001 136.822021 C 404.89801 140.377991 411.209015 150.882019 411.562012 153.708984 L 403.923004 156.065979 L 382.203003 93.234192 Z"/>
    <path id="path6" fill="#14b8a6" stroke="none" d="M 414.309998 813.828003 C 424.143005 820.286987 432.972992 822.03302 444.584015 822.335999 C 443.989014 825.117004 444.817993 828.169006 444.093994 830.745972 L 442.622986 830.984009 C 431.010986 830.70697 419.407013 829.036987 409.677002 822.286987 L 414.309998 813.828003 Z"/>
    <path id="path7" fill="#14b8a6" stroke="none" d="M 429.106995 155.15802 L 432.497986 155.169006 C 433.721985 155.390991 434.684998 155.862 435.397003 156.901001 L 435.171997 158.018982 C 431.062988 162.589966 402.287994 173.917969 395.612 176.143005 L 392.747009 176.117981 C 391.459015 175.86499 390.571014 175.266968 389.779999 174.231995 C 389.855011 173.22998 389.742004 173.070984 390.377014 172.208984 C 395.17099 165.705994 420.976013 156.416992 429.106995 155.15802 Z"/>
    <path id="path8" fill="#14b8a6" stroke="none" d="M 690.40802 629.466003 C 693.991028 631.059998 701.234985 638.731995 704.469971 641.684998 C 699.374023 646.036987 695.583984 650.926025 691.56897 656.239014 L 690.809998 656.734985 C 688.132996 654.916016 680.867981 638.768005 678.856018 634.744019 L 690.40802 629.466003 Z"/>
    <path id="path9" fill="#096275" stroke="none" d="M 486.717987 711.409973 L 487.524994 711.609985 L 487.576996 712.468994 C 484.682007 719.257996 478.915009 726.526978 472.059998 729.505981 C 463.431 733.257019 453.671997 731.159973 445.223999 728.031006 L 439.549988 725.054016 C 447.553986 723.119995 455.708008 721.822021 463.662994 719.664001 C 471.580994 717.515991 479.122986 714.471008 486.717987 711.409973 Z"/>
    <path id="path10" fill="#14b8a6" stroke="none" d="M 444.316986 736.526978 C 450.605011 739.091003 456.372986 740.606018 463.056 741.695984 C 462.282013 745.625977 460.341003 760.125 457.88501 762.536011 C 450.559998 760.911987 444.898987 758.705017 438.545013 754.682983 C 440.354004 748.583984 442.727997 742.70697 444.316986 736.526978 Z"/>
    <path id="path11" fill="#14b8a6" stroke="none" d="M 801.919983 269.93103 L 804.640991 272.684998 C 820.036987 291.664001 830.017029 321.492004 827.494995 345.950012 L 827.20697 345.908997 C 824.632019 338.968994 822.835022 331.549011 820.471008 324.48999 L 801.919983 269.93103 Z"/>
    <path id="path12" fill="#14b8a6" stroke="none" d="M 521.247009 847.369995 C 530.453979 850.807007 539.039978 852.536987 548.882019 852.500977 L 547.288025 867.497986 C 536.971985 867.27002 528.643005 865.453003 518.833008 862.497009 C 519.286987 857.455994 520.403992 852.366028 521.247009 847.369995 Z"/>
    <path id="path13" fill="#14b8a6" stroke="none" d="M 698.763 794.500977 L 699.078003 794.526001 C 701.286987 795.215027 704.789978 803.89502 705.958984 806.281006 C 699.304016 813.093994 690.72699 816.888 681.676025 819.406982 C 679.153015 816.924988 676.39801 807.104004 675.080017 803.333984 C 682.991028 800.146973 690.976013 798.278992 698.763 794.500977 Z"/>
    <path id="path14" fill="#14b8a6" stroke="none" d="M 738.507996 874.41803 C 741.107971 876.877014 743.807007 884.237976 745.513 887.682983 C 736.130005 892.565002 728.02002 898.497009 720.216003 905.575989 L 711.695007 889.54303 C 721.427979 886.434021 730.948975 881.302979 738.507996 874.41803 Z"/>
    <path id="path15" fill="#ffffff" stroke="none" d="M 497.975006 913.124023 L 499.774994 914.70697 C 509.447998 924.073975 523.875977 926.989014 536.908997 926.755981 C 529.947021 929.713989 523.434021 931.062988 515.908997 931.616028 C 501.990997 932.927979 488.806 930.763 476.919006 923.278015 C 482.94101 917.588989 490.06601 915.015991 497.975006 913.124023 Z"/>
    <path id="path16" fill="#14b8a6" stroke="none" d="M 511.272003 895.179993 C 520.953003 899.840027 529.664001 902.33197 540.427979 902.530029 C 539.02301 908.109985 537.900024 914.617004 534.999023 919.599976 C 524.330017 919.502991 513.958008 916.062988 504.669006 911.052002 C 507.444 905.911011 509.458008 900.731995 511.272003 895.179993 Z"/>
    <path id="path17" fill="#14b8a6" stroke="none" d="M 707.296997 644.453003 C 714.419678 651.138997 721.864685 657.44399 729.632019 663.367981 C 724.31897 667.596008 720.060974 672.72699 715.921997 678.072998 L 714.870972 678.677002 C 707.736023 673.458008 701.429016 666.008972 694.75 660.106995 C 698.666992 654.721985 703.080017 649.606995 707.296997 644.453003 Z"/>
    <path id="path18" fill="#14b8a6" stroke="none" d="M 759.385986 686.357971 C 765.570984 690.539978 771.43103 695.267029 777.484009 699.648987 C 769.245972 705.322998 763.909973 710.84198 759.02002 719.572998 L 758.708984 719.721985 C 756.007996 718.968018 744.677979 706.932983 741.708984 704.031006 C 747.442993 698.072998 752.97699 691.58197 759.385986 686.357971 Z"/>
    <path id="path19" fill="#14b8a6" stroke="none" d="M 475.138 793.73999 C 494.442993 801.567993 514.578003 807.460999 534.380981 813.905029 L 535.674011 823.77301 C 527.840027 822.484009 520.182007 819.731018 512.64801 817.278015 L 477.640991 805.458008 L 475.138 793.73999 Z"/>
    <path id="path20" fill="#14b8a6" stroke="none" d="M 424.54599 789.598022 C 433.165985 793.898987 440.062988 795.526978 449.697998 795.645996 C 448.016998 802.653992 447.339996 809.982971 445.30899 816.879028 C 444.209991 817.655029 443.415009 817.482971 442.106995 817.552002 C 432.067993 816.887024 424.993011 814.275024 416.049988 809.786011 C 419.257996 803.14502 422.151001 796.56897 424.54599 789.598022 Z"/>
    <path id="path21" fill="#14b8a6" stroke="none" d="M 437.082001 758.234009 C 443.665985 763.98999 448.936005 765.867981 457.518005 767.155029 C 455.064006 774.756999 452.817342 782.419657 450.778015 790.143005 C 449.722992 791.125977 449.118011 790.89801 447.709991 790.960999 C 439.80899 790.380981 433.759003 788.723022 426.473999 785.638 L 437.082001 758.234009 Z"/>
    <path id="path22" fill="#14b8a6" stroke="none" d="M 732.489014 665.869995 C 735.489014 667.890991 738.294983 670.484985 741.163025 672.711975 L 755.703003 683.557007 C 749.916992 688.369019 745.252014 693.961975 740.388 699.66803 L 739.185974 700.859985 C 736.692017 700.682983 721.560974 685.026978 718.135986 681.94397 C 723.312988 676.984985 727.843018 671.322021 732.489014 665.869995 Z"/>
    <path id="path23" fill="#14b8a6" stroke="none" d="M 517.906006 866.119995 C 527.356018 870.539001 536.026001 872.588989 546.463989 872.679993 C 544.950012 880.893982 543.629028 889.346985 541.34198 897.380981 C 530.78302 897.890991 521.744995 895.768982 512.544006 890.494995 C 514.666687 882.443685 516.45402 874.318685 517.906006 866.119995 Z"/>
    <path id="path24" fill="#14b8a6" stroke="none" d="M 707.567993 811.950012 C 709.093018 812.926025 719.47699 834.47699 721.607971 838.143005 C 714.609009 844.232971 705.965027 847.734985 697.142029 850.263 L 695.877991 850.330994 C 693.260986 848.096008 685.52002 828.242981 683.580017 823.804016 C 693.440979 821.627991 699.684998 818.289001 707.567993 811.950012 Z"/>
    <path id="path25" fill="#14b8a6" stroke="none" d="M 723.258972 843.396973 C 726.763 847.039978 733.536011 863.591003 736.127991 869.210022 C 729.052002 876.249023 719.426025 881.018005 710.148987 884.401001 C 705.094971 877.567993 700.697021 862.926025 697.440002 854.658997 C 707.117981 854.041016 715.588013 848.875977 723.258972 843.396973 Z"/>
    <path id="path26" fill="#14b8a6" stroke="none" d="M 369.57901 49.582886 C 374.449005 49.178894 378.89801 49.513306 383.362 51.759277 C 387.73999 53.962402 391.098999 57.683716 392.562988 62.389099 C 393.889008 66.653992 393.554993 71.298218 391.375 75.223206 C 387.740997 81.767212 380.945007 84.406006 374.190002 86.414307 C 369.218994 87.174194 364.165985 87.108093 359.595001 84.769775 L 354.52301 80.821594 L 351.363007 75.224915 C 349.792999 70.320923 350.524994 64.780212 353.028992 60.316223 C 356.626007 53.903687 362.834015 51.339294 369.57901 49.582886 Z"/>
    <path id="path27" fill="#ffffff" stroke="none" d="M 781.546021 702.859985 C 785.935974 703.229004 800.825989 713.742004 804.539001 716.971985 C 811.802002 723.291016 816.017029 731.518982 816.61499 741.14801 C 817.085999 748.739014 815.758972 759.205017 810.349976 764.979004 C 808.797974 766.63501 806.747009 767.849976 804.416992 767.83197 C 801.690002 767.809998 800.166016 765.929016 798.460999 764.080017 C 798.312988 757.508972 799.202026 751.429993 798.129028 744.85498 C 796.778992 740.723022 794.869995 735.802979 791.083984 733.312988 C 789.145996 732.038025 786.075012 730.557983 783.697998 731.268005 C 779.497009 732.523987 779.721008 745.377014 777.367004 750.937012 L 777.093018 751.570984 C 775.140991 752.88501 771.64502 755.028015 769.213013 754.888977 C 767.645996 754.799988 766.361023 754.09198 765.408997 752.843018 C 761.622009 747.874023 762.221985 736.166992 763.10199 730.221985 C 764.929016 717.872986 771.864014 710.132019 781.546021 702.859985 Z"/>
    <path id="path28" fill="#14b8a6" stroke="none" d="M 714.638977 742.403015 C 716.513 743.205994 718.732971 749.971985 719.619995 752.088989 C 706.083984 759.611023 691.070984 765.661987 676.85199 771.797974 C 650.850647 783.059977 624.635315 793.799662 598.205994 804.017029 C 580.205017 811.065979 562.703003 819.567993 544.107971 825.046021 L 542.008972 825.387024 C 539.742981 823.239014 539.953979 816.97998 539.562012 813.838013 C 549.859985 811.120972 560.036011 806.775024 570.002014 803.017029 C 593.607971 794.117004 616.763 784.375 640.013977 774.609985 C 664.875 764.169983 690.778015 754.960022 714.638977 742.403015 Z"/>
    <path id="path29" fill="#ffffff" stroke="none" d="M 822.481018 877.72699 L 823.393005 877.708008 C 822.627014 879.497009 812.676025 884.070007 810.492981 885.348999 C 800.755005 891.054016 791.507996 897.89502 782.752014 904.997009 C 775.429016 910.937012 768.601013 917.476013 761.78302 923.981018 C 745.500977 939.513977 731.08197 955.044983 718.75 973.890015 L 717.268005 966.546997 C 720.629028 960.807007 723.03302 954.525024 726.406982 948.749023 C 735.630005 932.961975 747.724976 918.112976 760.302002 904.877991 L 766.099976 898.835999 C 767.187988 897.513 768.387024 896.140015 768.236023 894.333008 L 767.554016 893.866028 C 764.297974 895.216003 761.237 897.965027 758.53302 900.197998 C 742.216003 913.674988 724.357971 935.698975 715.968994 955.179993 C 714.89502 941.573975 715.34198 923.208984 724.328003 912.046021 C 742.070007 890.004028 795.731995 880.583008 822.481018 877.72699 Z"/>
    <path id="path30" fill="#ffffff" stroke="none" d="M 406.082001 827.049011 C 416.973999 835.304993 434.338013 838.377014 447.68399 836.484985 L 449.781006 836.143005 C 453.707001 842.778992 466.234009 862.083984 464.167999 869.458984 C 463.835999 870.643982 463.412994 871.372009 462.201996 871.833008 C 460.514008 872.47699 458.412994 871.757996 456.980988 870.822998 C 450.194 866.390991 445.412994 848.403992 440.417999 847.958008 C 438.489014 849.190002 437.954987 851.296997 437.523987 853.437988 C 434.701996 867.46698 438.222992 882.411987 436.218994 896.65802 L 435.779999 896.270996 L 435.993988 897.169006 C 432.53299 899.382019 426.010986 898.039978 422.136993 897.228027 C 417.713989 890.35498 414.562988 883.359009 413.381989 875.195984 C 412.737 870.72998 414.191986 865.262024 411.721985 861.325012 L 410.877014 861.255005 C 407.80899 864.955994 407.934998 871.213989 408.342987 875.789978 C 408.954987 882.643982 410.776001 889.429993 414.390991 895.33197 C 409.591003 893.091003 405.196991 890.937012 401.109009 887.539978 L 399.536987 880.127014 C 399.031006 874.411011 399.358002 869.005981 399.286987 863.312012 C 399.259003 861.143982 399.270996 859.033997 397.645996 857.455994 L 396.687988 857.815979 C 394.619995 860.419983 394.627014 863.45697 394.283997 866.642029 C 393.208008 871.572998 394.212006 877.22699 394.71701 882.208984 C 389.989014 874.348022 391.274994 865.526978 393.432007 856.966003 C 396.042999 846.60199 400.381012 836.08197 406.082001 827.049011 Z"/>
    <path id="path31" fill="#14b8a6" stroke="none" d="M 845.211975 879.463013 L 846.539978 879.552979 C 847.557983 883.804993 841.460999 896.356018 839.388 900.249023 C 818.390991 939.669983 771.590027 962.585999 730.692993 975.392029 L 729.307983 974.997009 L 729.742004 973.888 C 732.520996 968.247009 739.281982 961.536987 743.47998 956.723022 C 768.750977 927.749023 808.336975 891.940979 845.211975 879.463013 Z"/>
    <path id="path32" fill="#ffffff" stroke="none" d="M 503.545013 705.054016 L 504.299011 705.588989 C 505.058014 706.526978 531.395996 799.036011 533.083008 807.323975 L 508.25 799.482971 C 497.613007 796.244019 485.436005 790.786987 474.674988 789.015015 C 474.069 777.966003 471.467987 767.070984 470.796997 756.065002 C 470.438995 750.198975 471.402008 743.898987 471.463013 737.969971 L 480.593994 733.903992 L 488.321991 727.565002 C 493.700989 721.736023 495.187012 715.679016 494.867004 707.976013 L 503.545013 705.054016 Z"/>
    <path id="path33" fill="#14b8a6" stroke="none" d="M 244.576996 427.187988 C 250.384995 426.362 256.825012 427.049011 262.415985 428.795044 C 277.747009 433.580994 289.123993 445.718994 296.350006 459.713989 C 305.631989 477.69104 310.260986 501.31897 303.88501 520.942993 C 299.082001 535.724976 289.355011 545.013 275.765991 551.940979 L 268.497986 554.552002 C 270.045329 552.114665 271.399333 549.574341 272.559998 546.93103 C 273.721334 544.287679 274.676331 541.572001 275.424988 538.783997 C 281.398987 516.216003 274.755005 486.015991 263.035004 466.234985 C 254.033005 451.042969 240.951996 437.945007 223.470993 433.518005 C 230.404007 430.045044 236.886993 428.169006 244.576996 427.187988 Z"/>
    <path id="path34" fill="#ffffff" stroke="none" d="M 548.815002 922.942993 C 572.41803 928.75 605.661987 944.005005 621.028015 962.616028 C 593.942017 969.22699 557.19397 969.77002 529.380005 967.429016 C 509.135986 965.276001 485.239014 962.429993 466.843994 953.299011 C 466.915009 945.302979 468.22699 937.218994 472.40799 930.280029 C 481.82901 937.096985 490.94101 939.817993 502.445007 941.025024 C 514.038025 942.241028 534.502014 941.708008 543.830994 933.71698 C 547.309998 930.736023 548.554993 927.422974 548.815002 922.942993 Z"/>
    <path id="path35" fill="#bac9ca" stroke="none" d="M 217.975006 442.129028 C 223.714996 441.872009 229.197006 443.299988 234.201004 446.087036 C 250.779999 455.320007 260.81601 475.059998 265.868988 492.605957 C 270.897003 510.062988 272.632996 531.070984 263.381012 547.515991 C 260.342987 552.916016 256.578003 556.388 250.580994 558.077026 C 243.537003 558.21698 237.839005 556.619995 231.914001 552.853027 C 214.904999 542.036987 203.860992 522.72699 199.766998 503.364014 C 196.300995 486.968994 196.222 464.770996 205.960007 450.283997 C 209.093002 445.622009 212.473007 443.182007 217.975006 442.129028 Z"/>
    <path id="path36" fill="#111827" stroke="none" d="M 220.910004 450.053955 C 224.929993 449.822021 228.492996 450.952026 232.026001 452.828979 C 246.315002 460.421997 257.212006 477.388 261.868011 492.48999 C 266.165009 506.427002 267.657013 528.73999 260.403992 541.979004 C 257.549011 547.190979 253.649002 550.79303 247.927002 552.505981 C 243.251007 552.731018 239 551.25 235.026993 548.88501 C 219.776001 539.802979 210.612 522.534973 206.399002 505.822998 C 202.731995 491.276978 201.362 471.658997 209.705002 458.325989 C 212.451996 453.93396 215.895004 451.27301 220.910004 450.053955 Z"/>
    <path id="path37" fill="#ffffff" stroke="none" d="M 255.955002 494.421997 L 256.812988 495.094971 C 258.072998 499.280029 258.790009 503.464966 259.149994 507.821045 C 259.958008 517.611023 259.92099 534.502014 252.919998 542.33197 C 251.322998 544.119019 249.242996 545.27301 246.822998 545.36499 C 240.787003 545.593018 235.117004 540.127014 230.996994 536.28302 C 224.847 530.283997 220.600998 522.981018 217.048996 515.226013 C 230.315002 509.171997 243.151001 501.421997 255.955002 494.421997 Z"/>
    <path id="path38" fill="#ffffff" stroke="none" d="M 219.994995 457.042969 C 222.914993 456.849976 225.520996 457.434998 228.199997 458.601013 C 240.658997 464.020996 249.886993 477.27301 254.863998 489.426025 C 248.203003 492.716003 241.858002 496.802002 235.292007 500.317993 L 215.860992 511.136963 C 211.166 498.77002 208.531006 482.44397 211.822006 469.417969 C 213.104996 464.338989 215.388 459.780029 219.994995 457.042969 Z"/>
    <path id="path39" fill="#14b8a6" stroke="none" d="M 207.746994 299.622986 C 208.852997 299.471985 208.283005 299.419006 209.445007 299.885986 C 210.964005 304.054993 211.345001 308.922974 212.425995 313.266968 L 219.914001 340.549988 C 227.292007 366.511963 235.893005 392.01001 243.707001 417.828003 C 227.212006 420.81604 223.925995 424.286987 211.242996 434.016968 C 208.253006 436.311035 205.126999 438.157959 202.304993 440.703979 L 196.218002 446.813965 L 195.604004 446.368042 C 188.26 424.406698 181.265666 402.334676 174.621002 380.151978 C 167.481995 356.401978 161.436996 335.678955 157.313004 311.125977 C 172.391006 306.197998 191.987 302.775024 207.746994 299.622986 Z"/>
    <path id="path40" fill="#111827" stroke="none" d="M 181.919006 329.109009 C 183.352005 328.880981 184.815994 328.721008 186.261993 328.952026 C 189.919006 329.535034 193.276001 332.476013 195.188995 335.521973 C 197.207993 338.737 198.121002 342.687012 197.102997 346.403992 C 196.100006 350.065002 193.792007 352.245972 190.576004 354.041992 C 188.893005 354.453003 187.294998 354.640991 185.578003 354.265991 C 182.123001 353.51001 179.367996 351.375977 177.561996 348.360962 L 175.623993 342.820007 L 175.931 336.957031 C 176.880005 333.213989 178.667999 331.057007 181.919006 329.109009 Z"/>
    <path id="path41" fill="#14b8a6" stroke="none" d="M 182.904999 332.30603 C 186.207001 332.531006 189.257996 334.466003 191.410004 336.924011 C 193.134003 338.894043 194.300995 341.567017 194.052002 344.223022 C 193.783005 347.075012 192.061996 348.799988 189.919006 350.483032 L 188.837006 350.56897 C 186.212006 350.718018 183.994995 349.869995 182.093002 348.025024 C 179.998001 345.992004 178.973007 343.098999 179.082001 340.203003 C 179.203995 336.915039 180.552002 334.510986 182.904999 332.30603 Z"/>
    <path id="path42" fill="#14b8a6" stroke="none" d="M 229.214996 563.625977 L 234.636002 566.161011 C 238.75 567.833984 243.173004 568.955994 247.643997 568.81897 C 254.865005 568.596985 278.553986 560.617004 285.802002 557.591003 L 292.832001 577.835022 C 297.213989 591.398987 302.761993 604.651978 307.677002 618.031982 C 320.208333 652.439982 333.677338 686.476664 348.084015 720.142029 C 339.786011 719.223999 331.444 718.77301 323.164001 717.687012 C 309.61499 715.911011 296.209015 713.093018 282.88501 710.094971 C 279.18399 704.252014 276.938995 697.015015 274.516998 690.559021 L 261.527008 654.283997 C 250.738998 624.171021 238.798996 594.143005 229.214996 563.625977 Z"/>
    <path id="path43" fill="#111827" stroke="none" d="M 294.122009 668.054016 C 295.596008 668.187988 297.001007 668.35199 298.388 668.901978 C 302.259003 670.440002 305.502991 673.723999 307.087006 677.562988 C 308.246002 680.372986 308.503998 683.53302 307.239014 686.359009 C 305.803986 689.565979 303.371002 690.885986 300.255005 692.153992 C 298.139008 692.348999 296.243988 692.349976 294.261993 691.465027 C 290.783997 689.911987 288.231995 686.650024 287.070007 683.077026 C 286.015991 679.835999 285.98999 676.142029 287.591003 673.072021 C 289.059998 670.255981 291.203003 669.02301 294.122009 668.054016 Z"/>
    <path id="path44" fill="#14b8a6" stroke="none" d="M 292.945007 671.442017 C 296.68399 671.562988 299.173004 673.213989 301.720001 675.940979 C 303.412994 677.754028 304.856995 680.523987 304.683014 683.067993 C 304.51001 685.585022 302.980011 686.914001 301.134003 688.409973 L 298.166992 688.807007 C 295.893005 688.616028 293.735992 687.101013 292.290009 685.411011 C 290.360992 683.15802 289.330994 680.059998 289.563995 677.099976 C 289.773987 674.447998 291.016998 673.132996 292.945007 671.442017 Z"/>
    <path id="path45" fill="#14b8a6" stroke="none" d="M 663.377014 114.710999 L 667.284973 114.544006 C 661.940979 117.22998 653.802002 117.757996 647.905029 118.94397 L 626.283997 123.674988 C 612.400024 126.893982 598.588989 130.864014 584.929993 134.929016 C 495.800995 161.453979 418.855011 193.093994 337.975006 239.307007 C 320.679993 249.190002 291.953003 266.115967 278.178986 279.697998 C 256.880005 285.047974 235.237 289.609009 213.813995 294.457031 C 215.315994 289.164001 217.815994 284.015991 219.899002 278.922974 C 215.617004 284.077026 212.738007 289.202026 209.955994 295.295044 C 200.962006 296.155029 191.725006 298.515015 182.886002 300.411987 C 175.792999 302.096985 168.619995 303.863037 161.419006 304.988037 C 173.613007 293.363037 192.322006 282.109009 206.906998 273.381958 C 228.578995 260.415039 250.682007 248.835999 273.214996 237.447998 C 309.562998 218.902669 346.687998 202.070679 384.589996 186.952026 C 391.433014 184.226013 398.549988 182.291016 405.526001 179.947998 C 412.131989 177.729004 418.665985 175.088013 425.143005 172.513 C 429.330994 170.846985 433.583008 169.020996 437.475006 166.734985 C 442.824005 163.593994 447.115997 159.739014 453.188995 157.832031 L 504.803986 142.882996 L 557.138 130.690979 L 610.046021 121.291992 L 663.377014 114.710999 Z"/>
    <path id="path46" fill="#ffffff" stroke="none" d="M 670.414001 638.533997 C 672.848022 641.301025 677.380005 654.435974 679.189026 658.591003 C 690.294983 684.111023 701.835022 709.448975 711.888977 735.414978 C 695.16803 743.505981 677.629028 750.046997 660.505005 757.250977 C 623.230347 772.875651 585.804688 788.129985 548.228027 803.013977 L 538.643005 805.940002 C 529.426025 771.471008 518.320007 737.575989 508.436005 703.312988 C 515.726013 700.934998 522.843994 698.044006 530.033997 695.383972 C 548.811991 688.543315 567.408325 681.240316 585.822998 673.474976 L 670.414001 638.533997 Z"/>
    <path id="path47" fill="#111827" stroke="none" d="M 668.98999 694.927979 L 671.004028 694.948975 C 671.916992 695.866028 672.054016 695.961975 672.304993 697.218018 C 671.578979 698.982971 670.35498 699.723999 668.728027 700.601013 C 665.216003 702.494995 661.336975 703.593018 657.677979 705.161987 L 564.22699 744.864014 C 562.606995 744.767029 562.03302 744.838013 560.640991 743.940002 C 560.465027 743.27002 560.218018 742.950012 560.536011 742.278992 C 561.33197 740.603027 563.59198 739.554016 565.192017 738.770996 C 574.939026 734.000977 585.671021 730.39801 595.702026 726.198975 C 620.179993 715.953979 644.771973 705.76001 668.98999 694.927979 Z"/>
    <path id="path48" fill="#111827" stroke="none" d="M 664.640015 662.919983 L 666.294983 663.85498 C 666.913025 665.038025 667.052002 665.10199 666.815002 666.393982 C 664.872986 668.750977 562.036011 712.47699 550.335022 717.518005 L 548.53302 716.388 C 548.114014 715.208984 548.09198 715.200012 548.497986 714.021973 C 549.961975 712.541016 551.638977 711.632996 553.505981 710.76001 C 561.43103 707.054993 569.650024 703.843018 577.695007 700.39502 L 623.065002 680.895996 C 636.885986 675.002014 650.539001 668.03302 664.640015 662.919983 Z"/>
    <path id="path49" fill="#14b8a6" stroke="none" d="M 213.798004 298.804993 C 234.634995 294.342041 255.304001 288.759033 276.256989 284.89502 C 278.649994 294.634033 280.761993 304.505981 283.484009 314.156982 C 288.100006 330.523987 293.641998 346.696045 298.65799 362.948975 C 312.179331 406.958333 326.613007 450.666341 341.959015 494.072998 C 367.873993 568.747986 393.916992 643.588989 426.074005 715.848022 L 389.648987 720.132996 L 352.980011 720.85498 C 342.317993 695.637024 331.557007 670.286011 322.14801 644.575989 C 316.929342 629.920675 311.528676 615.332682 305.946014 600.812012 C 303.195007 593.500977 300.804993 585.629028 297.321014 578.65802 L 289.042999 555.445984 C 303.213989 545.89801 312.231995 533.340027 315.535004 516.36499 C 319.85199 494.174011 313.438995 467.587036 300.778992 449.042969 C 290.854004 434.505981 276.589996 421.830994 258.852997 418.497986 C 255.272003 417.825012 251.544998 417.533997 247.903 417.463989 C 244.330994 407.458008 241.468002 397.213013 238.225998 387.098022 C 228.934006 358.110962 219.929993 328.631958 213.798004 298.804993 Z"/>
    <path id="path50" fill="#111827" stroke="none" d="M 252.020004 317.559998 C 253.860992 317.463013 255.576996 317.398987 257.356995 317.963013 C 260.933014 319.096008 263.993988 322.015991 265.640991 325.343994 C 267.026001 328.140015 267.544006 331.450012 266.458008 334.434998 C 265.346985 337.488037 263.165009 339.182007 260.321991 340.526001 C 258.309998 340.947998 256.145996 341.129028 254.130005 340.653992 L 250.112 338.787964 L 247.160004 335.484985 C 245.408997 332.494995 245.057999 328.630981 245.934006 325.30603 C 246.927002 321.531982 248.714005 319.474976 252.020004 317.559998 Z"/>
    <path id="path51" fill="#14b8a6" stroke="none" d="M 252.953003 321.481995 L 255.341995 321.458008 C 257.598999 321.636963 260.019012 323.471008 261.368988 325.205994 C 262.760986 326.994995 263.489014 329.325012 263.144989 331.588013 C 262.752014 334.184998 261.214996 335.468994 259.158997 336.889038 L 256.368988 337.377014 C 254.447006 337.395996 252.503998 336.504028 251.216003 335.082031 C 249.447998 333.131958 248.839996 330.583008 249.102997 328.002991 C 249.404999 325.036987 250.712006 323.323975 252.953003 321.481995 Z"/>
    <path id="path52" fill="#111827" stroke="none" d="M 369.089996 671.070984 C 370.622009 671.190002 372.283997 671.499023 373.671997 672.177979 C 377.803009 674.200012 381.105011 678.590027 382.359009 682.960999 C 383.169006 685.788025 383.173004 688.835022 381.596985 691.406982 C 379.923004 694.138977 377.257996 695.249023 374.252991 695.890991 C 372.351013 695.807983 370.261993 695.450989 368.544006 694.609985 C 365.126007 692.937988 362.506989 689.632019 361.321014 686.052979 C 360.266998 682.874023 360.237 679.218018 361.927002 676.249023 C 363.536987 673.421021 366.048004 671.950012 369.089996 671.070984 Z"/>
    <path id="path53" fill="#14b8a6" stroke="none" d="M 369.091003 674.841003 C 372.447998 675.781006 375.205994 677.715027 377.169006 680.640991 C 378.473999 682.586975 379.298004 685.146973 378.575989 687.468018 C 377.933014 689.539978 376.324005 690.567017 374.557007 691.612976 L 371.730988 691.494019 C 369.545013 691.164978 367.527008 689.336975 366.345001 687.55603 C 364.882996 685.35498 364.311005 682.635986 364.921997 680.049011 C 365.553009 677.379028 366.856995 676.291016 369.091003 674.841003 Z"/>
    <path id="path54" fill="#ffffff" stroke="none" d="M 717.791992 115.718018 C 720.921021 115.469971 724.028015 115.710999 727.155029 115.891968 C 742.086975 143.97699 754.658997 179.473022 766.249023 209.414001 C 780.13501 244.957987 793.154338 280.81665 805.307007 316.98999 C 817.459676 353.16333 828.731669 389.609009 839.122986 426.327026 C 849.408997 461.464966 860.343994 497.014038 867.614014 532.91803 C 856.221985 539.439026 844.338013 544.958008 832.549988 550.705994 L 786.924011 572.861023 C 721.884664 604.035014 655.937988 633.155009 589.083984 660.221008 C 554.239014 674.526001 519.362976 688.648987 483.656006 700.692017 C 467.464996 706.153015 451.35199 711.96698 434.445007 714.788025 L 433.105988 714.440979 C 431.350006 711.898987 427.036987 695.796997 425.569 691.518005 L 374.25 549.163025 L 343.687012 461.575989 C 323.644999 402.664653 303.922658 343.646322 284.519989 284.520996 C 302.898987 270.432983 322.06601 258.670044 342.076996 247.094971 C 366.012339 233.069661 390.531342 220.152669 415.634003 208.343994 C 427.403992 202.703003 439.105988 196.744019 451.084991 191.567993 C 483.904999 177.640666 517.285339 165.220011 551.226013 154.30603 C 603.737976 137.044006 662.64502 120.030029 717.791992 115.718018 Z"/>
    <path id="browr" fill="#111827" stroke="none" d="M 653.346985 163.21698 C 666.403015 162.619995 680.544006 165.108032 692.23999 171.103027 C 694.627991 172.327026 698.343994 174.421997 698.94397 177.337036 C 699.208008 178.620972 698.960999 179.778015 698.236023 180.860962 C 693.921021 187.302979 679.377014 188.596008 672.392029 189.976013 C 661.054016 192.375 647.713013 196.511963 636.934998 190.164978 C 631.252014 186.817993 629.150024 182.036987 627.629028 175.942017 C 628.270996 173.934021 628.97998 171.989014 630.359985 170.35498 C 635.723022 164.004028 645.708008 163.708984 653.346985 163.21698 Z"/>
    <path id="browrin" fill="#14b8a6" stroke="none" d="M 652.755005 171.207031 C 664.325012 170.083984 679.182007 173.247986 689.624023 178.177979 C 683.136678 180.126668 676.559998 181.700684 669.893982 182.900024 C 660.04303 184.922974 648.606995 188.138 639.210999 182.926025 C 637.10498 181.757019 635.749023 180.625 635.093994 178.278015 C 635.195007 177.338013 635.255981 176.604004 635.867981 175.825989 C 639.03302 171.807007 648.098999 171.614014 652.755005 171.207031 Z"/>
    <path id="browl" fill="#111827" stroke="none" d="M 424.959015 241.139038 C 427.015991 241.122009 429.337006 241.21698 431.32901 241.75 C 434.691986 242.648987 437.200012 244.778015 438.782013 247.859009 C 440.565002 251.330994 440.867004 255.235962 439.558014 258.921997 C 435.050995 271.609009 407.247009 285.584961 395.627991 291.323975 C 393.699005 292.320007 391.790985 292.906006 389.703003 293.481995 C 388.315002 292.971008 386.545013 292.484009 385.355011 291.592041 C 383.730011 290.375 382.903015 288.838989 382.579987 286.849976 C 381.524994 280.335999 388.062012 271.502014 391.571014 266.464966 C 399.218994 255.489014 411.266998 243.587036 424.959015 241.139038 Z"/>
    <path id="browlin" fill="#14b8a6" stroke="none" d="M 425.908997 247.52002 L 427.503998 247.536011 C 429.152008 247.698975 431.338013 248.421997 432.261993 249.88501 C 433.03299 251.10498 432.949005 252.546997 432.584991 253.877014 C 429.377014 265.598999 406.480988 276.609009 396.367004 281.981995 L 389.696991 284.992004 L 390.733002 282.511963 C 397.27301 268.281006 410.901001 252.912964 425.908997 247.52002 Z"/>
    <path id="mouth" fill="#111827" stroke="none" d="M 659.057007 465.639038 C 661.06897 465.509033 662.882019 465.614014 664.823975 466.208008 C 667.809998 467.119995 670.02002 468.783997 671.476013 471.56897 C 674.862 478.051025 673.494019 486.968994 671.218018 493.625977 L 667.252991 502.285034 L 661.676025 510.005981 L 654.702026 516.492004 L 646.598022 521.494995 C 632.013977 528.562012 614.835022 528.817017 599.695007 523.539001 C 597.330017 522.601013 595.028015 521.521973 592.89502 520.125 C 587.911987 516.861023 583.309021 511.890991 582.142029 505.896973 C 581.46698 502.427002 582.174988 499.18103 584.286987 496.341003 C 585.682983 494.463013 587.737 493.438965 589.791992 492.44104 C 599.810974 487.572021 610.971985 484.170044 621.320984 479.997009 C 630.11499 476.452026 638.614014 471.94104 647.517029 468.739014 C 651.304016 467.377014 655.083008 466.289001 659.057007 465.639038 Z"/>
    <path id="mouthin" fill="#ffffff" stroke="none" d="M 653.281982 471.47699 L 655.049011 472.219971 L 654.840027 474.865967 C 652.997009 482.458984 648.291992 489.166992 641.526978 493.101013 C 629.440979 500.129028 614.442017 500.879028 601.158997 497.424988 L 595.237 495.291992 C 605.950012 491.218018 616.679993 487.19397 627.195007 482.625 C 635.827026 478.875 644.317993 474.372986 653.281982 471.47699 Z"/>
    <path id="path59" fill="#111827" stroke="none" d="M 671.599976 224.164978 C 687.919006 221.997986 704.14502 229.502014 717.200012 238.660034 C 751.846008 262.963013 776.974976 309.182007 784.210022 350.473999 C 788.590027 375.471985 787.739014 406.089966 772.606018 427.532959 C 764.450012 439.089966 751.914978 446.459961 738.114014 448.920044 C 718.469971 450.893005 703.29303 445.311035 687.380005 433.696045 C 654.09198 409.398987 631.672974 361.86499 625.544006 321.761963 C 621.640015 296.213013 623.023987 265.22699 638.986023 243.757019 C 647.112976 232.825012 658.145996 226.130981 671.599976 224.164978 Z"/>
    <path id="path60" fill="#14b8a6" stroke="none" d="M 672.809998 234.599976 C 684.53302 233.833008 694.398987 236.653992 704.638977 242.367981 C 737.721985 260.830994 760.757996 300.337036 770.89801 336.085999 C 778.077026 361.398987 780.538025 393.844971 767.106995 417.52301 C 760.789001 428.661011 750.905029 436.153015 738.625977 439.531982 C 723.853027 442.052002 708.523987 436.446045 696.278015 428.356995 C 666.047974 408.385986 645.083984 366.051025 637.926025 331.26001 C 632.783997 306.265015 631.567017 273.94397 646.231018 251.983032 C 652.872986 242.036987 661.189026 236.900024 672.809998 234.599976 Z"/>
    <path id="eyer" fill="#111827" stroke="none" d="M 678.737 251.64801 C 688.674011 250.700989 699.452026 255.351013 707.603027 260.635986 C 735.434021 278.682007 754.033997 314.134033 760.619995 345.93103 C 764.765991 365.952026 766.078003 390.468018 754.195007 408.287964 C 748.763977 416.43396 740.710022 421.513 731.179016 423.462036 C 719.396973 424.473022 709.932007 421.198975 700.302002 414.438965 C 672.995972 395.27301 653.604004 355.838989 648.192017 323.546997 C 645.052002 304.811035 644.758972 281.153992 656.452026 265.046997 C 662.078979 257.294006 669.343018 253.161987 678.737 251.64801 Z"/>
    <path id="pupilr2" fill="#ffffff" stroke="none" d="M 720.963989 360.489014 L 724.015991 360.513 C 725.968994 360.859985 727.354004 362.330994 728.296997 363.989014 C 729.840027 366.698975 730.078979 369.984009 729.249023 372.959961 C 728.526978 375.547974 727.369995 376.787964 725.059998 378.078003 L 723.942017 378.02002 C 721.599976 377.802979 720.153992 376.768005 718.75 374.927979 C 716.781982 372.351013 716.210999 369.025024 716.791992 365.867004 C 717.278992 363.221008 718.86499 361.973022 720.963989 360.489014 Z"/>
    <path id="pupilr" fill="#ffffff" stroke="none" d="M 670.140015 277.531982 C 672.781982 277.658997 675.153992 278.216003 677.523987 279.419006 C 688.010986 284.743042 693.95697 297.14801 697.491028 307.745972 C 701.34198 319.292969 704.747009 337.797974 698.775024 349.166992 C 697.021973 352.502991 695.348999 353.789001 691.783997 354.859985 L 687.671997 354.054993 C 677.77301 350.697998 670.742981 339.511963 666.666016 330.478027 C 661.119019 318.186035 657.05603 298.478027 662.299011 285.495972 C 663.97699 281.341003 666.073975 279.273987 670.140015 277.531982 Z"/>
    <path id="path62" fill="#111827" stroke="none" d="M 472.015015 300.219971 C 495.02301 300.437012 514.471985 309.271973 531.244995 324.854004 L 541.836975 335.898987 L 551.307983 347.920044 L 559.567993 360.802002 L 566.539978 374.424988 L 572.156982 388.660034 L 576.367004 403.372986 L 579.130005 418.424011 L 580.419983 433.672974 C 581.377991 459.587036 575.953979 487.051025 557.682983 506.422974 L 547.296997 515.580017 L 535.304993 522.500977 L 522.18103 526.913025 L 508.442993 528.642029 C 484.10199 528.713013 464.113007 518.575989 446.218994 502.594971 C 418.329987 477.686035 401.576996 437.730957 399.657013 400.713013 C 398.207001 372.764038 405.428009 344.078979 424.546997 323.011963 C 437.463013 308.780029 452.845001 301.132996 472.015015 300.219971 Z"/>
    <path id="path63" fill="#14b8a6" stroke="none" d="M 469.799988 310.19397 C 487.364014 308.511963 506.381012 317.244995 519.677979 328.10498 C 548.424011 351.580994 565.846985 388.489014 569.559998 424.993042 C 572.086975 449.842041 569.002991 476.745972 552.650024 496.644043 C 541.997009 509.605957 527.721985 516.721008 511.122986 518.27301 L 510.609985 518.344971 C 491.954987 520.353027 471.601013 510.69104 457.408997 499.342041 C 429.352997 476.903015 414.878998 441.25 411.049988 406.259033 C 408.225006 380.450989 412.815002 353.138 429.481995 332.502014 C 439.972992 319.514038 453.178009 312.020996 469.799988 310.19397 Z"/>
    <path id="eyel" fill="#111827" stroke="none" d="M 472.304993 327.196045 C 486.187988 325.867004 500.438995 332.695007 511.009003 341.192993 C 536.85498 361.973022 552.190979 397.19104 555.612976 429.742004 C 557.676025 449.372009 554.659973 472.458984 541.83197 488.197021 C 533.427979 498.506958 523.484985 503.604004 510.348999 504.910034 C 494.477997 505.155029 479.769989 497.953003 467.578003 488.30603 C 443.626007 469.353027 429.335999 439.109009 425.996002 409.093994 C 423.56601 387.264038 427.028992 361.613037 441.170013 344.026978 C 449.190002 334.052979 459.643005 328.587036 472.304993 327.196045 Z"/>
    <path id="pupill2" fill="#ffffff" stroke="none" d="M 503.746002 436.528992 C 506.334991 437.026001 508.175995 437.690002 509.864014 439.809998 C 511.777008 442.212036 512.732971 445.38501 512.349976 448.438965 C 511.976013 451.414001 510.971985 453.276978 508.638 455.119995 L 507.181 454.938965 C 504.674988 454.5 503.351013 453.14502 502.015015 451.054993 C 500.152008 448.140991 499.257996 444.286987 500.165009 440.895996 C 500.757996 438.682007 501.843994 437.698975 503.746002 436.528992 Z"/>
    <path id="pupill" fill="#ffffff" stroke="none" d="M 452.101013 356.596985 C 454.151001 356.343994 456.265991 356.23999 458.256989 356.875977 C 465.81601 359.291016 471.437988 366.719971 475.052002 373.450989 C 482.466003 387.255981 486.522003 408.541992 481.794006 423.786987 C 480.044006 429.429993 477.251007 433.599976 471.994995 436.401001 C 470.164001 436.552979 468.299988 436.755981 466.488007 436.349976 C 459.743011 434.839966 454.808014 428.942993 451.265991 423.370972 C 442.295013 409.26001 438.355011 388.627014 442.165985 372.282959 C 443.684998 365.771973 446.251007 360.249023 452.101013 356.596985 Z"/>
</svg>
