<?xml version="1.0" standalone="no"?>
<!DOCTYPE svg PUBLIC "-//W3C//DTD SVG 20010904//EN"
 "http://www.w3.org/TR/2001/REC-SVG-20010904/DTD/svg10.dtd">
<svg version="1.0" xmlns="http://www.w3.org/2000/svg"
 width="400.000000pt" height="400.000000pt" viewBox="0 0 400.000000 400.000000"
 preserveAspectRatio="xMidYMid meet">
<metadata>
Created by potrace 1.14, written by Peter Selinger 2001-2017
</metadata>
<g transform="translate(0.000000,400.000000) scale(0.100000,-0.100000)"
fill="#000000" stroke="none">
<path d="M1950 3483 c-36 -14 -72 -48 -92 -86 -20 -39 -22 -59 -24 -247 -1
-113 -2 -208 -3 -212 0 -4 -160 -8 -353 -10 l-353 -3 -63 -34 c-109 -59 -191
-177 -210 -303 -8 -57 -8 -1719 1 -1753 21 -83 31 -109 65 -161 44 -68 83
-104 156 -142 l51 -27 871 0 870 0 67 34 c39 20 84 53 107 79 50 56 97 152
107 222 5 30 8 435 8 900 -1 738 -4 851 -17 896 -37 118 -102 202 -200 255
l-63 34 -355 5 -355 5 0 210 c-1 196 -3 213 -23 253 -37 70 -126 110 -192 85z
m-348 -1265 c94 -28 174 -143 165 -237 -18 -195 -240 -283 -385 -153 -132 118
-96 307 72 383 48 22 93 24 148 7z m976 -19 c169 -101 160 -329 -17 -416 -55
-27 -139 -22 -195 11 -79 46 -119 114 -120 201 0 97 62 187 155 222 47 18 132
9 177 -18z m-940 -974 c22 -19 27 -32 27 -70 0 -39 -5 -51 -28 -71 -26 -22
-37 -24 -133 -24 -103 0 -106 1 -135 29 -32 32 -37 69 -16 111 19 38 51 48
159 48 89 1 101 -2 126 -23z m987 2 c18 -15 28 -36 32 -64 5 -37 2 -45 -25
-73 -30 -30 -32 -30 -137 -30 -104 0 -107 1 -136 29 -32 32 -37 69 -16 111 19
38 49 47 157 48 89 2 102 0 125 -21z m-491 -103 c14 -15 27 -33 27 -40 1 -8 2
-20 3 -26 4 -27 -16 -65 -42 -80 -38 -23 -205 -22 -245 1 -40 23 -54 82 -29
121 28 45 42 49 153 50 102 0 107 -1 133 -26z"/>
<path d="M538 2173 c-78 -23 -136 -80 -171 -169 -23 -60 -25 -673 -2 -750 35
-118 118 -184 241 -192 l74 -5 0 564 0 564 -51 0 c-28 0 -69 -5 -91 -12z"/>
<path d="M3325 2181 c-3 -2 -5 -256 -5 -564 l0 -560 74 6 c114 8 174 48 229
151 22 40 22 49 22 406 0 356 -1 366 -22 411 -28 58 -86 115 -138 134 -39 14
-151 26 -160 16z"/>
</g>
</svg>
