<svg xmlns:xlink="http://www.w3.org/1999/xlink" width="928" height="1120" viewBox="0 0 928 1120" xmlns="http://www.w3.org/2000/svg" class="h-auto w-full max-w-xs"><defs><linearGradient id="linearGradient1" x1="430.357949" y1="644.607031" x2="443.661652" y2="647.171875" gradientUnits="userSpaceOnUse"><stop offset="1e-05" stop-color="#7b9794" stop-opacity="1"></stop><stop offset="1" stop-color="#9fbcb9" stop-opacity="1"></stop></linearGradient></defs><style>
@keyframes blink {
    0%, 98%, 100% { transform: scaleY(1) rotate(0deg); }
    99% { transform: scaleY(0.1) rotate(90deg); }
}

@keyframes mouthClose {
    0%, 70% { transform: scaleY(1) rotate(0deg); }
    80% { transform: scaleY(0.3) rotate(-15deg); }
    90% { transform: scaleY(0.3) rotate(-10deg); }
    100% { transform: scaleY(1) rotate(0deg); }
}

@keyframes activeWiggle {
    0%, 100% { transform: rotate(0deg) translateY(0px); }
    25% { transform: rotate(-5deg) translateY(-1px); }
    50% { transform: rotate(0deg) translateY(-3px); }
    75% { transform: rotate(5deg) translateY(-1px); }
}

@keyframes pulse {
    0%, 100% { opacity: 0.3; }
    50% { opacity: 1; }
}

#left-eye {
    animation: blink 5s infinite;
    transform-origin: center center;
    transform-box: fill-box;
}

#right-eye {
    animation: blink 5s infinite;
    transform-origin: center center;
    transform-box: fill-box;
}

#mouth {
    animation: mouthClose 8s infinite ease-in-out;
    transform-origin: center center;
    transform-box: fill-box;
}

#cloud {
    animation: activeWiggle 5s infinite ease-in-out;
    transform-origin: bottom left;
    transform-box: fill-box;
    animation-delay: 0.5s;
}

#cloud-dots {
    animation: pulse 1.2s infinite ease-in-out;
}
</style><path id="Path" fill="#363738" stroke="none" d="M 512.595032 24.529907 C 507.996613 21.993896 504.253998 21.683594 499.175385 21.986938 C 493.046906 23.598389 488.508057 25.948608 485.041595 31.588135 C 482.178833 36.324951 481.37442 42.025269 482.814819 47.369385 C 484.318665 53.094116 487.908722 57.338257 492.94519 60.36084 C 489.104675 71.519775 485.236816 88.298462 482.089722 100.113098 C 475.229492 125.513855 468.623596 150.981812 462.273041 176.514282 C 446.331909 174.734253 433.535126 179.767639 422.785736 191.396423 C 391.349121 188.61554 287.479309 188.388611 265.948822 206.500549 C 250.474136 219.518372 240.383713 272.186279 236.477051 291.708069 C 211.469162 314.724915 202.350479 386.949585 223.757919 413.860779 C 223.783218 415.270447 223.801544 416.807556 223.821091 418.447937 C 224.034454 436.345703 224.394302 466.53125 235.556137 477.472717 C 242.037384 483.825806 257.039581 488.902954 265.881012 491.948486 C 295.443054 502.008789 325.742767 509.754211 356.505676 515.114136 C 372.638763 517.936035 388.986755 519.778992 404.689484 522.477783 L 404.593811 529.801025 C 386.342194 533.86377 375.690155 542.189941 361.509888 553.842163 C 336.125763 554.044495 321.281586 572.446899 320.973175 596.974182 C 288.265137 631.886719 264.319244 674.067139 251.10849 720.048462 C 249.085693 727.283569 245.979599 739.364014 245.297684 746.785156 C 238.281631 751.548462 233.887711 757.777344 231.057785 765.772705 C 226.351074 779.061646 222.050659 802.407837 230.631241 814.816406 C 230.875137 815.171875 231.122849 815.521851 231.373871 815.871887 C 226.864563 835.417175 236.522415 874.803101 262.553986 869.935913 C 273.487122 875.585144 281.928253 873.020325 287.326172 861.760193 C 304.243469 857.275757 302.85556 842.756287 293.641174 831.217163 C 300.260834 823.629639 299.912231 818.659851 299.259308 809.351501 C 299.228455 808.911743 299.19693 808.46228 299.165436 808.002319 C 299.037476 806.235962 298.858673 804.469543 298.630615 802.708618 C 310.511993 788.145386 308.77243 770.918823 297.167267 756.732788 C 299.19223 749.475769 300.499756 742.082031 302.437225 735.010986 C 308.017792 714.634399 315.05191 691.463257 325.72583 673.121094 C 325.476685 674.632568 325.214935 676.208496 324.943939 677.840088 C 321.28595 699.862976 315.942291 732.034668 317.184052 752.981262 C 317.500153 758.313293 328.407013 778.498474 332.033691 783.496948 C 335.874207 788.785156 338.453125 790.748413 344.425262 793.499207 C 342.299133 800.953125 339.243347 808.576599 336.862885 816.041382 C 333.81369 825.906982 331.254425 835.920349 329.19339 846.042969 C 327.404083 854.639893 325.917206 863.296875 324.735443 871.997681 C 323.048981 884.827332 322.581451 890.41095 318.425415 902.967163 C 316.499939 904.033569 313.842834 905.499268 312.612946 907.254639 C 302.54715 921.615601 293.993927 948.193726 289.299225 964.545288 C 285.89563 976.275757 283.249451 988.214111 281.377563 1000.283569 C 271.147705 1005.916382 263.909637 1011.685913 256.892487 1021.414856 C 255.297882 1023.6297 252.400131 1029.377319 250.976151 1030.843018 C 245.754868 1036.207764 239.352921 1037.799194 237.122314 1046.133667 C 236.036285 1050.174927 236.694153 1054.489868 238.935669 1058.028198 C 244.213837 1066.400757 257.899231 1069.550781 267.02887 1071.371826 C 278.705139 1073.603149 290.532898 1074.9375 302.41098 1075.380493 C 315.003204 1075.949219 329.551025 1076.184326 342.155304 1073.821899 C 371.510071 1068.331299 401.095581 1057.103882 426.50705 1041.343018 C 430.19278 1039.0625 434.933411 1035.119507 435.584167 1030.635132 C 436.900421 1020.479675 435.624634 1016.224976 426.698456 1011.177368 C 424.214661 995.006226 421.938141 979.666382 418.537292 963.582764 C 414.685303 947.471924 410.46582 931.628906 404.787354 916.032043 C 401.124573 905.974976 399.905121 904.728149 389.939362 900.85083 C 390.3927 884.017944 390.525604 869.996094 392.121857 853.114014 C 393.11438 842.625 396.307953 826.946106 396.789185 817.528931 C 402.039459 813.777344 404.3302 812.196899 406.83313 806.017212 C 431.5867 808.029724 449.431976 808.456177 474.21347 808.243042 C 477.300964 815.483643 479.96521 818.704712 486.946808 822.631226 C 493.602478 846.037537 498.980164 869.739075 502.501343 893.8125 C 502.931702 896.749268 503.478546 900.107056 504.095947 903.005432 C 502.700409 903.918762 499.302826 906.106262 498.519196 907.298462 C 494.798462 912.980469 492.175751 925.96875 490.897217 932.640625 C 485.858032 958.917969 481.575684 988.919556 481.099915 1015.738281 C 473.67865 1020.966431 469.268311 1031.553955 476.298065 1038.553833 C 495.589172 1057.284302 528.991699 1072.049927 555.914124 1076.46875 C 584.246277 1081.111694 629.257263 1079.022583 655.336426 1065.301514 C 662.13916 1061.719604 663.479004 1048.512451 657.83551 1043.612427 C 650.535095 1037.279663 646.040039 1033.282104 642.255798 1023.93042 C 638.509949 1016.591431 626.84021 1007.830444 619.982727 1002.657043 C 614.180725 973.153076 605.048401 944.141418 591.814636 917.114868 C 586.444641 906.149963 585.197815 901.818787 573.303833 898.121887 C 566.151123 863.209351 555.525818 825.064819 538.405151 793.707031 C 556.384399 783.327332 560.759155 783.376526 569.377441 763.907837 C 578.44873 743.42041 577.170044 736.528564 574.075989 719.852722 C 573.445251 716.453125 572.739075 712.646912 572.029724 708.235962 C 568.070557 683.631958 562.591125 658.61792 558.07959 633.806213 C 569.311829 629.595337 573.281982 625.001587 578.903564 614.512573 C 587.467224 613.77417 598.874451 610.96875 607.131836 608.502319 C 649.643738 595.426575 687.512939 570.423462 716.233337 536.463074 C 727.700745 522.708069 737.325256 507.517517 744.866272 491.27478 C 747.266968 490.238403 750.21991 489.032593 752.423767 487.676331 C 770.983704 476.255371 780.509827 449.929932 779.864502 429.010315 C 788.242249 416.465515 798.16748 386.736877 781.37384 375.675781 C 778.371643 373.697754 775.462402 373.355347 771.924255 373.447266 C 771.350098 370.369995 770.934509 366.884766 769.250183 364.257019 C 762.053711 353.012695 750.49884 352.402405 742.520264 362.736694 C 739.332153 358.799255 736.521362 355.927063 731.17865 355.299744 C 727.323425 354.846924 722.122925 355.750916 719.361328 358.55365 C 710.644592 367.405945 709.600098 390.153748 708.949402 401.831726 L 705.646423 405.45697 C 700.347412 398.905945 698.373291 396.811951 690.624512 393.883972 C 691.887695 376.701172 692.303284 350.95813 680.825012 336.922546 C 677.554871 332.924377 673.825317 330.73468 669.379456 328.289612 C 669.402832 327.526245 669.426025 326.776611 669.448792 326.040161 C 670.4776 292.809021 670.673828 286.472046 646.165771 260.454712 C 639.051331 252.902893 621.267822 235.233887 612.392517 230.438904 C 586.592285 216.502869 543.11676 206.859863 514.602478 202.091064 C 506.79245 189.313904 499.702026 184.842102 485.434235 179.617798 C 489.722626 156.33844 492.812866 131.023071 496.697662 107.467468 C 498.472168 96.705566 502.542908 73.118286 503.295349 63.012573 C 510.277496 61.376831 515.826904 59.47644 519.853394 52.931519 C 522.735229 48.156982 523.570313 42.422119 522.1698 37.023926 C 520.86615 31.703491 517.393066 27.172241 512.595032 24.529907 Z M 685.396606 437.996582 C 684.751404 451.413574 685.992676 458.346313 695.431274 468.697021 L 696.410156 469.76178 C 689.98468 481.406921 683.876343 492.312195 675.553345 502.809448 C 648.522766 536.909851 616.231384 556.417969 575.436584 569.324219 C 566.369812 557.249207 555.383667 553.082031 540.400085 555.214844 C 537.972595 548.422668 536.692993 542.615417 529.540771 539.395935 C 522.506653 536.229553 501.840729 530.925415 494.520081 530.891479 L 494.738312 530.380676 L 496.610687 529.750122 C 516.950134 531.641785 545.023621 530.773376 565.48938 529.297302 C 583.994751 527.962402 609.953552 521.511475 625.587952 511.364746 C 634.102356 505.264954 639.975525 484.516479 642.583923 474.231445 C 669.018555 471.446167 674.661987 455.856384 682.279602 432.515747 L 685.396606 437.996582 Z"></path><path id="path1" fill="#FFFFFE" stroke="none" d="M 361.890991 197.662476 C 365.516083 197.416382 369.507507 197.427856 373.158264 197.422974 C 446.145416 197.31958 520.734314 205.665466 590.288879 228.534668 C 596.145691 230.460205 605.185059 233.600952 609.248108 238.1203 C 618.238342 248.125366 617.325073 265.699219 616.805603 278.100159 C 613.644775 342.710693 603.210938 406.759583 585.711792 469.034973 C 581.829163 482.934387 575.950562 507.226563 565.593323 516.57428 C 562.525513 519.327271 558.812378 521.265381 554.804016 522.212585 C 545.013245 524.485962 500.156433 522.979309 488.729004 522.347107 C 460.035889 521.708923 430.896606 518.605957 402.473083 514.791504 C 357.21109 508.717896 312.547333 500.486877 269.317413 485.393127 C 260.700195 482.384216 248.593536 479.184998 241.648026 473.139282 C 232.381149 465.073975 232.108826 441.448975 231.616119 429.81311 C 229.176636 372.198181 238.096802 303.451111 254.56839 248.052124 C 257.884491 236.899658 261.628723 222.007202 269.737946 213.366577 C 281.793182 200.521545 343.305878 198.392029 361.890991 197.662476 Z"></path><path id="path2" fill="#363738" stroke="none" d="M 359.058899 228.838745 C 414.700073 226.713623 490.91748 236.138428 544.502502 251.4646 C 552.179138 253.659241 563.044983 255.491821 569.109497 260.78717 C 574.222595 265.247498 574.266296 275.529846 574.534241 281.822144 C 576.749023 334.484619 564.494141 399.808289 549.99176 450.45166 C 547.530945 459.0354 544.027832 474.95929 537.765869 481.312866 C 531.577209 487.592651 481.556519 485.139893 470.471954 484.954529 C 455.559418 483.896301 441.548096 483.545227 426.389496 482.099854 C 378.07608 477.492981 330.334625 469.168457 283.929718 454.754456 C 277.730103 452.828918 265.129669 449.270935 260.229889 445.466858 C 256.231354 442.362244 255.125626 433.172058 254.816666 428.221741 C 251.804626 373.721252 258.040863 319.104858 273.260712 266.68689 C 275.590851 258.446594 278.249084 244.846313 284.219025 238.516785 C 291.557129 230.736389 345.226379 229.372498 359.058899 228.838745 Z"></path><path id="path3" fill="#575757" stroke="none" d="M 351.45224 245.854736 C 420.595093 242.177551 503.632202 252.15094 568.759521 275.812561 C 569.306396 336.794617 559.917053 397.766235 541.890747 456.118896 C 540.530701 460.52179 536.702271 474.388367 534.270996 476.087524 C 527.534363 480.795044 497.628906 479.58313 489.330505 479.458984 C 482.229706 478.904968 472.6763 478.991394 465.300964 478.724548 C 451.936005 478.166199 438.58197 477.374329 425.244934 476.347839 C 387.031219 473.33783 344.834839 464.861816 307.774445 455.474121 C 298.752014 453.188721 285.363007 449.559143 277.126404 445.693298 C 272.241425 423.936951 271.962524 397.844482 273.506805 375.770386 C 276.369537 334.864136 282.863922 290.433289 299.694794 252.969604 C 302.029266 247.772644 345.528809 246.044556 351.45224 245.854736 Z"></path><g id="right-eye"><path id="path4" fill="#363738" stroke="none" d="M 480.973053 299.834045 C 487.740845 299.353333 494.480743 301.09021 500.173981 304.781616 C 531.729797 325.476501 521.745972 398.173157 479.566559 406.395386 C 425.339508 408.08252 428.316559 307.656555 480.973053 299.834045 Z"></path><path id="path5" fill="#92CABE" stroke="none" d="M 480.174652 305.267273 C 525.384705 303.233459 523.017395 391.262817 479.081482 400.856079 C 433.137573 402.521851 435.902985 314.412109 480.174652 305.267273 Z"></path></g><g id="left-eye"><path id="path6" fill="#363738" stroke="none" d="M 330.538605 283.388977 C 371.378265 280.197449 370.265442 371.568237 327.291992 382.031006 C 322.141754 382.53418 316.981171 381.177856 312.744202 378.207275 C 285.56424 359.137207 294.583954 289.192444 330.538605 283.388977 Z"></path><path id="path7" fill="#92CABE" stroke="none" d="M 329.974274 288.337097 C 365.939331 286.27594 361.437134 366.698303 327.410645 376.221008 C 292.388367 380.074829 295.2276 297.492371 329.974274 288.337097 Z"></path></g><g id="mouth"><path id="path8" fill="#363738" stroke="none" d="M 361.04776 406.287659 C 368.645111 405.981445 372.780914 412.097656 380.05838 414.505005 C 396.105621 419.813538 407.545105 416.010559 421.670197 409.614258 C 429.035675 411.628418 428.834412 413.419983 429.344086 420.529907 C 427.225616 424.659363 425.322021 427.07605 422.333527 430.571655 C 396.599426 459.441162 343.111725 425.055298 361.04776 406.287659 Z"></path><path id="path9" fill="#92CABE" stroke="none" d="M 362.326294 410.961792 C 363.79895 411.458374 371.765442 416.581482 374.292969 417.695984 C 394.466705 426.592041 404.749634 421.890015 422.833313 415.834473 L 423.535492 416.907959 C 423.49173 420.213806 421.912964 422.458191 420.166901 425.158142 C 402.511383 444.95282 363.311188 434.474121 362.326294 410.961792 Z"></path></g><path id="path10" fill="#92CABE" stroke="none" d="M 353.854553 234.302551 C 412.490814 231.397034 476.113739 240.102722 533.007751 253.852783 C 540.387451 255.636719 563.766785 260.47876 566.594055 267.453613 L 565.981567 267.967651 L 566.495605 267.615479 C 563.613708 268.191895 546.774658 262.122131 542.799622 261.004333 C 528.416992 257.019775 513.864807 253.67511 499.18634 250.979553 C 448.052856 241.242981 395.941559 237.634155 343.954407 240.229065 C 330.937256 240.929077 312.220306 242.370605 299.558624 245.338501 C 297.138275 246.307556 295.298126 247.684082 294.004303 249.94104 C 289.154297 258.401733 285.388184 272.768127 282.781342 281.960571 C 270.670319 324.668762 261.021179 401.21814 270.529236 444.478149 C 268.41568 443.741516 265.016998 442.68219 263.553101 441.092957 C 260.017731 437.256104 259.823608 426.92511 259.620728 421.993896 C 257.162079 369.375793 263.57605 316.71936 278.594666 266.230774 C 280.878845 258.800903 283.954346 246.783325 289.083771 241.211792 C 303.1492 236.542603 338.17807 235.016785 353.854553 234.302551 Z"></path><path id="path11" fill="#FFFFFE" stroke="none" d="M 360.191956 565.184387 C 396.10614 559.8797 460.142517 561.75 495.275299 570.423462 C 497.128571 576.116394 498.216766 582.558594 499.134949 588.486694 C 504.278046 617.443787 508.00647 645.011719 511.4505 674.225769 C 514.966736 704.057861 518.555115 733.960938 520.276611 763.967957 C 471.486877 775.485168 369.395416 769.764771 323.619354 750.525757 C 323.715576 737.291382 326.042999 721.470337 327.824615 708.148438 C 331.356689 681.378906 336.091309 654.789795 342.013641 628.446899 C 345.633789 611.947632 350.903748 589.957825 356.669708 573.945313 C 357.691223 571.227356 358.904663 567.705444 360.191956 565.184387 Z"></path><path id="path12" fill="#E7EEEA" stroke="none" d="M 360.191956 565.184387 C 396.10614 559.8797 460.142517 561.75 495.275299 570.423462 C 497.128571 576.116394 498.216766 582.558594 499.134949 588.486694 C 495.21405 588.382813 481.349823 582.78833 475.490906 581.700012 C 447.177338 576.439087 418.445984 572.403137 389.587738 572.857056 C 379.971436 573.0047 365.505127 575.596863 356.669708 573.945313 C 357.691223 571.227356 358.904663 567.705444 360.191956 565.184387 Z"></path><path id="path13" fill="#363738" stroke="none" d="M 406.595245 604.996887 C 426.897491 601.967163 445.809692 615.972656 448.840851 636.272644 C 451.87204 656.578125 437.874359 675.494507 417.57431 678.529663 C 397.266571 681.56488 378.343445 667.559448 375.311188 647.253906 C 372.278931 626.942993 386.286438 608.021118 406.595245 604.996887 Z"></path><path id="path14" fill="#92CABE" stroke="none" d="M 405.328186 611.242188 C 421.822205 609.328125 436.759888 621.107788 438.746582 637.590637 C 440.733826 654.078918 429.023102 669.068726 412.547119 671.130432 C 395.965057 673.208618 380.856232 661.407104 378.856415 644.814819 C 376.856567 628.222656 388.727539 613.167175 405.328186 611.242188 Z"></path><path id="path15" fill="#363738" stroke="none" d="M 405.223755 617.591431 C 418.186768 615.803162 430.131531 624.897705 431.862335 637.869507 C 433.593628 650.841431 424.451447 662.746887 411.474213 664.425781 C 398.572449 666.09375 386.750153 657.015625 385.029205 644.120239 C 383.308289 631.224976 392.336182 619.363281 405.223755 617.591431 Z"></path><path id="path16" fill="#92CABE" stroke="none" d="M 409.698608 622.425781 C 418.221222 621.676575 423.88327 626.095337 426.513611 634.117981 C 428.249329 639.411682 427.802521 645.186768 425.271149 650.152344 C 422.382202 655.861755 418.99826 657.786743 413.372864 659.673462 C 406.484222 660.455444 399.922058 655.309387 397.468903 649.069519 C 395.400208 643.786682 395.536896 637.896851 397.848419 632.723389 C 400.453583 626.948486 404.079193 624.553162 409.698608 622.425781 Z"></path><path id="path17" fill="#92CABE" stroke="none" d="M 400.647736 622.338257 L 401.03598 622.721069 C 397.422424 626.614868 393.914948 631.066406 392.908752 636.474976 C 391.774017 642.578125 392.714081 649.085938 396.35553 654.264832 C 397.70459 656.184387 400.013947 657.617188 401.555511 659.919495 L 400.591949 660.017944 C 384.601044 651.721863 385.378113 630.700012 400.647736 622.338257 Z"></path><linearGradient id="linearGradient1" x1="430.357949" y1="644.607031" x2="443.661652" y2="647.171875" gradientUnits="userSpaceOnUse"><stop offset="1e-05" stop-color="#7b9794" stop-opacity="1"></stop><stop offset="1" stop-color="#9fbcb9" stop-opacity="1"></stop></linearGradient><path id="path18" fill="url(&quot;#linearGradient1&quot;)" stroke="none" d="M 434.120239 617.651611 C 437.754059 619.040588 441.729645 625.094543 443.145966 628.632813 C 449.80658 645.274292 442.022736 665.69458 425.054077 672.333618 C 424.068115 672.590637 424.133179 672.612549 423.136841 672.432007 L 423.866333 671.983643 C 445.398987 658.623413 447.116089 638.006226 434.120239 617.651611 Z"></path><path id="path19" fill="#FFFFFE" stroke="none" d="M 317.548279 911.060913 C 317.578339 914.101563 317.858307 917.136719 318.385468 920.128174 C 322.820435 944.797668 345.190826 950.430481 356.484894 927.182861 C 357.34671 925.41095 357.971222 923.387451 359.072021 921.785156 C 372.903412 921.074219 383.921295 922.228149 396.137329 913.844543 C 406.879608 940.110962 418.046753 992.069519 420.12262 1021.283569 C 399.090851 1035.097656 389.354797 1036.519531 367.539948 1045.121826 C 366.272369 1041.206299 365.214752 1038.045288 363.649139 1034.255493 C 348.976105 1004.013306 321.291412 992.206238 288.976044 999.036743 C 294.245453 968.493713 303.867249 938.869568 317.548279 911.060913 Z"></path><path id="path20" fill="#E7EEEA" stroke="none" d="M 359.072021 921.785156 C 372.903412 921.074219 383.921295 922.228149 396.137329 913.844543 C 406.879608 940.110962 418.046753 992.069519 420.12262 1021.283569 C 399.090851 1035.097656 389.354797 1036.519531 367.539948 1045.121826 C 366.272369 1041.206299 365.214752 1038.045288 363.649139 1034.255493 C 366.851471 1032.292236 367.803528 1028.808594 369.183746 1025.139038 C 371.528656 1018.915649 373.113953 1012.429688 373.906372 1005.823425 C 375.54306 991.566406 374.982544 937.764893 369.357117 925.826538 L 367.654785 922.255493 C 364.36496 922.277344 362.319733 922.359375 359.072021 921.785156 Z"></path><path id="path21" fill="#FFFFFE" stroke="none" d="M 534.416443 923.699219 C 538.675293 929.441406 543.601868 935.385986 551.003418 936.507019 C 564.395691 938.541382 571.127441 927.915649 572.199219 916.125 C 572.450745 913.3797 572.12262 908.988281 573.134277 906.71875 C 574.331909 906.357788 575.376404 906.505493 576.475586 907.096069 C 587.439819 912.991394 606.973206 977.839844 610.150452 991.653931 C 610.839478 994.65625 611.451965 997.674988 611.987854 1000.710144 C 577.913818 992.840637 551.856506 1005.719543 536.882751 1037.082764 C 535.674744 1040.604614 534.683289 1044.121094 533.650818 1047.697632 C 516.508301 1039.866455 503.924225 1036.650757 488.411285 1023.498474 C 488.23465 988.837524 494.601593 948.860962 502.414398 915.228149 C 512.800659 920.664063 520.502991 920.844482 531.972046 921.260132 C 533.375244 921.314819 533.765686 922.616394 534.416443 923.699219 Z"></path><path id="path22" fill="#E7EEEA" stroke="none" d="M 502.414398 915.228149 C 512.800659 920.664063 520.502991 920.844482 531.972046 921.260132 C 533.375244 921.314819 533.765686 922.616394 534.416443 923.699219 C 524.164673 926.471863 524.5896 932.881226 523.814148 942.353149 C 521.669434 968.542969 519.755981 997.636719 528.266052 1022.896851 C 529.544006 1026.692139 533.466553 1035.316406 536.882751 1037.082764 C 535.674744 1040.604614 534.683289 1044.121094 533.650818 1047.697632 C 516.508301 1039.866455 503.924225 1036.650757 488.411285 1023.498474 C 488.23465 988.837524 494.601593 948.860962 502.414398 915.228149 Z"></path><path id="path23" fill="#E7EEEA" stroke="none" d="M 528.699707 547.826538 C 531.03418 549.084351 532.407349 554.421875 533.386169 557.189026 C 523.058411 563.505493 518.917114 573.299988 518.075562 585.0578 C 516.489685 607.228088 525.684937 633.778931 550.959656 635.528931 C 554.399353 655.960144 559.200684 677.25 562.645813 697.921875 C 564.647278 709.925781 566.971375 725.916382 569.486877 737.389832 C 562.355957 743.678894 554.995422 748.119507 546.644531 752.489014 C 539.263123 756.377319 531.672363 759.855469 523.906616 762.901611 C 523.557678 743.235962 520.62384 716.936707 518.435364 697.238281 C 513.834229 655.823425 508.467438 610.49292 499.212616 569.849243 C 508.120758 561.760925 518.744324 554.564087 528.699707 547.826538 Z"></path><path id="path24" fill="#E7EEEA" stroke="none" d="M 617.374268 243.188232 C 620.070251 244.680054 633.331299 257.425537 635.890503 260.035767 C 641.205933 265.500732 646.286072 271.193665 651.114807 277.098816 C 657.31604 284.718445 661.045471 289.499756 661.789185 299.57373 C 662.434509 308.33252 662.330627 316.701904 662.243103 325.461182 C 661.06189 325.19043 659.880676 324.946045 658.688599 324.728882 C 652.367004 323.585388 647.079041 322.899048 641.523071 327.051453 C 624.915344 339.471558 616.111084 370.051758 612.633118 389.937195 C 609.007568 410.635864 607.011536 447.278687 619.156982 465.324463 C 623.43335 471.679688 628.344055 472.558533 635.196045 473.734314 C 631.991516 484.348022 628.240112 501.005859 618.834351 507.212341 C 603.391418 515.825623 582.119019 519.836975 564.849609 522.007507 C 568.71582 518.768921 574.747559 513.247681 576.896606 508.68396 C 581.48468 498.952332 584.896973 487.098267 587.959412 476.763977 C 605.004578 418.570435 615.711914 358.70459 619.889771 298.209839 C 621.070984 279.453674 623.181763 261.347717 617.374268 243.188232 Z"></path><path id="path25" fill="#E7EEEA" stroke="none" d="M 325.084351 755.464111 C 334.74881 758.083557 342.342865 761.485229 353.303864 763.875 C 408.355011 775.856995 464.0979 777.349976 519.610535 768.457886 C 517.634827 774.899963 515.161377 780.844482 512.677063 787.089844 L 508.532501 797.557007 C 463.331207 805.076538 393.386139 801.428894 349.008392 787.144531 C 347.071991 786.521057 342.253723 784.278931 340.932007 782.917175 C 335.099335 776.912476 328.622467 763.03833 325.084351 755.464111 Z"></path><path id="path26" fill="#FFFFFE" stroke="none" d="M 303.236176 1002.640625 C 332.715088 1000.557007 354.468109 1019.079651 363.598846 1045.958618 C 346.594604 1050.650757 333.166779 1052.903931 315.620605 1053.286743 C 299.937561 1053.439819 268.283875 1051.635132 254.633469 1043.667236 C 260.624725 1019.610168 278.669586 1004.625793 303.236176 1002.640625 Z"></path><path id="path27" fill="#FFFFFE" stroke="none" d="M 587.713257 1004.253906 C 615.662659 1001.875 637.115417 1019.539063 643.655762 1046.270386 C 630.515015 1053.078857 608.668518 1055.096802 594.012939 1055.780396 C 573.943665 1056.414795 556.597656 1054.522705 537.38147 1048.753174 C 545.519104 1023.514832 560.748291 1007.764832 587.713257 1004.253906 Z"></path><path id="path28" fill="#E7EEEA" stroke="none" d="M 712.536682 406.831787 C 734.10437 408.897888 757.826599 412.052795 773.335205 429.186401 C 771.683716 451.772339 764.525452 473.867188 742.908569 484.34259 C 735.427673 477.267639 730.517029 474.387817 720.815918 470.692566 C 713.619385 468.261169 710.431335 467.607666 702.868408 466.860107 C 694.233704 457.323669 692.500183 453.424988 691.351807 440.613342 C 701.156799 441.220947 706.712708 439.628967 711.760132 430.673889 C 713.274902 426.362915 713.313232 425.375244 712.810059 420.602661 C 730.013855 428.567871 732.245056 436.585083 731.659912 454.568542 C 740.103271 440.093262 736.433838 427.457153 722.368958 418.603271 C 719.301147 416.67334 711.825745 414.358459 710.015686 412.561951 C 709.999268 410.571899 711.4375 408.581787 712.536682 406.831787 Z"></path><path id="path29" fill="#FFFFFE" stroke="none" d="M 711.760132 430.673889 C 713.679565 430.483032 713.225708 430.244568 714.669373 431.013489 C 715.724731 435.760925 716.796631 435.318481 720.088684 438.756714 C 727.115601 446.094177 728.302246 456.330566 723.298645 465.129761 C 722.374451 466.76001 721.882263 469.302979 720.815918 470.692566 C 713.619385 468.261169 710.431335 467.607666 702.868408 466.860107 C 694.233704 457.323669 692.500183 453.424988 691.351807 440.613342 C 701.156799 441.220947 706.712708 439.628967 711.760132 430.673889 Z"></path><path id="path30" fill="#92CABE" stroke="none" d="M 673.830811 341.178894 C 685.56073 344.704041 684.117004 384.250244 683.53186 394.597656 C 682.181152 395.351807 680.868713 396.170471 679.600037 397.050354 C 666.667114 405.850159 668.728699 413.938477 676.915039 424.921875 C 673.847229 437.035156 668.679504 452.031555 659.536194 460.662354 C 655.659058 462.613037 652.394409 460.320557 650.267151 457.087402 C 634.988281 433.869324 646.570435 349.681763 673.830811 341.178894 Z"></path><path id="path31" fill="#92CABE" stroke="none" d="M 648.659424 330.888367 C 657.348816 330.506104 664.364868 333.031006 671.752808 337.247986 C 646.373596 348.604919 639.259094 400.026489 639.264587 424.811401 C 639.264587 437.860901 640.899658 455.58844 651.770996 464.389282 L 652.126465 464.669861 L 651.792847 465.591858 C 641.473877 467.298706 629.186157 469.233521 623.329468 458.435486 C 608.099731 430.3573 620.682739 346.776184 648.659424 330.888367 Z"></path><path id="path32" fill="#E7EEEA" stroke="none" d="M 301.704437 634.708618 C 300.807617 630.535889 318.7453 609.65625 322.227081 605.833618 L 325.734558 614.058594 C 329.295074 619.177307 330.693939 621.359375 335.483215 625.154663 C 334.046082 631.307007 332.640717 637.278931 330.924713 643.360229 C 330.05246 646.455444 328.453491 650.146851 327.702118 652.925049 C 327.268463 653.739868 326.567413 655.183594 326.073608 655.894531 C 318.698273 668.253906 312.471863 681.269531 307.472595 694.766479 C 301.847748 694.328918 293.943054 692.939819 289.260925 689.494568 C 283.393799 686.628906 279.338409 682.560181 275.103058 677.753052 C 282.882507 661.882813 289.340759 650.201538 299.450867 635.714844 L 301.704437 634.708618 Z"></path><path id="path33" fill="#E7EEEA" stroke="none" d="M 301.704437 634.708618 C 300.807617 630.535889 318.7453 609.65625 322.227081 605.833618 L 325.734558 614.058594 C 329.295074 619.177307 330.693939 621.359375 335.483215 625.154663 C 334.046082 631.307007 332.640717 637.278931 330.924713 643.360229 C 330.05246 646.455444 328.453491 650.146851 327.702118 652.925049 C 327.268463 653.739868 326.567413 655.183594 326.073608 655.894531 C 320.160004 653.575806 316.420105 651.885986 311.081787 648.47345 C 305.476044 643.945313 303.634796 641.489868 299.450867 635.714844 L 301.704437 634.708618 Z"></path><path id="path34" fill="#FFFFFE" stroke="none" d="M 301.704437 634.708618 C 300.807617 630.535889 318.7453 609.65625 322.227081 605.833618 L 325.734558 614.058594 C 327.149811 621.020264 316.701721 636.972656 312.580139 643.207031 C 312.213196 643.759399 311.841339 644.311768 311.46402 644.858643 C 306.189148 640.8172 304.97348 637.366394 301.704437 634.708618 Z"></path><path id="path35" fill="#575757" stroke="none" d="M 301.704437 634.708618 C 304.97348 637.366394 306.189148 640.8172 311.46402 644.858643 C 316.931396 648.867188 321.05957 651.1203 327.702118 652.925049 C 327.268463 653.739868 326.567413 655.183594 326.073608 655.894531 C 320.160004 653.575806 316.420105 651.885986 311.081787 648.47345 C 305.476044 643.945313 303.634796 641.489868 299.450867 635.714844 L 301.704437 634.708618 Z"></path><path id="path36" fill="#FFFFFE" stroke="none" d="M 299.450867 635.714844 C 303.634796 641.489868 305.476044 643.945313 311.081787 648.47345 C 308.710083 652.197632 306.49646 652.383667 303.972778 657.710205 C 300.517792 665 296.178558 672.169556 293.000275 679.634399 C 291.475647 682.844543 292.115509 688.110962 289.260925 689.494568 C 283.393799 686.628906 279.338409 682.560181 275.103058 677.753052 C 282.882507 661.882813 289.340759 650.201538 299.450867 635.714844 Z"></path><path id="path37" fill="#E7EEEA" stroke="none" d="M 479.920929 536.477783 C 495.541046 537.065186 510.987854 540.408752 525.766968 545.334473 C 514.027771 553.333618 508.077545 557.59375 496.808105 566.808594 C 471.107391 560.579712 428.209412 557.549988 401.922455 557.976563 C 389.476196 558.457825 377.046356 559.294556 364.647125 560.475769 C 370.468872 555.641418 397.520325 534.22522 404.785706 537.503784 C 412.370483 557.982056 474.83963 555.428162 479.920929 536.477783 Z"></path><path id="path38" fill="#575757" stroke="none" d="M 543.333862 561.832031 C 555.192261 559.786682 560.206909 564.626526 569.43219 570.417969 C 566.211243 572.053162 563.83252 573.086731 561.530212 576.143738 C 555.405579 584.259338 556.400757 597.384338 561.059937 605.948425 C 563.422363 610.285156 567.04248 612.877319 570.903198 615.792236 C 567.315918 620.670288 565.773743 622.480469 560.671692 625.625 C 529.026733 641.429688 515.504272 587.611694 530.087036 568.175781 C 533.850464 563.16095 537.593628 562.460938 543.333862 561.832031 Z"></path><path id="path39" fill="#FFFFFE" stroke="none" d="M 246.873703 754.042114 C 259.474152 767.785156 276.51886 770.486694 293.173065 762.655396 C 300.723938 774.320313 300.460358 782.282776 296.04187 795.123413 L 295.887634 794.762512 C 289.186005 779.428101 274.844391 778.104614 264.793335 791.328125 C 263.863159 792.553101 262.801727 795.708618 261.765442 796.167969 C 259.263092 793.553833 260.373718 783.934326 260.669556 780.275818 L 259.487305 780.078979 C 255.959564 782.342896 256.069489 791.076599 256.748657 794.795288 C 258.17923 798.410156 259.029022 800.559387 261.664825 803.545288 L 262.051453 814.214844 C 258.323578 814.220337 254.200348 814.318787 250.521164 813.979736 C 237.34816 811.808594 232.850891 811.983643 233.197601 796.523438 C 233.525162 781.938232 236.110657 764.804688 246.873703 754.042114 Z"></path><path id="path40" fill="#E7EEEA" stroke="none" d="M 256.748657 794.795288 C 258.17923 798.410156 259.029022 800.559387 261.664825 803.545288 L 262.051453 814.214844 C 258.323578 814.220337 254.200348 814.318787 250.521164 813.979736 C 249.746841 808.040649 250.690689 802.63208 254.013351 797.578979 C 254.450821 796.917175 255.670288 796.09137 256.321045 795.31488 L 256.748657 794.795288 Z"></path><path id="path41" fill="#92CABE" stroke="none" d="M 427.01181 1019.19458 C 431.071564 1021.825012 429.525665 1030.213989 425.504669 1032.833618 C 381.937866 1061.210938 330.192444 1074.811768 278.459625 1066.110962 C 268.108337 1064.366455 251.222229 1062.304688 244.671539 1053.642212 C 243.407227 1048.627319 244.231888 1043.4375 249.136002 1040.856201 L 249.719498 1041.485229 C 249.967758 1044.93042 249.693787 1045.996948 253.051987 1047.719482 C 261.047974 1051.815552 269.766388 1053.478149 278.548737 1054.900024 C 307.872864 1059.646851 337.895325 1058.099243 366.423828 1049.715576 C 379.881195 1045.718018 420.065186 1031.767212 427.01181 1019.19458 Z"></path><path id="path42" fill="#92CABE" stroke="none" d="M 481.63092 1022.978882 C 482.928589 1023.84845 483.119965 1024.083618 484.223511 1025.139038 C 490.233368 1030.886719 497.707123 1035.496826 504.930969 1039.532837 C 532.494812 1054.943726 562.749695 1060.910156 594.237183 1059.958618 C 608.728638 1059.521118 628.573669 1057.092896 642.425354 1051.722656 C 645.039307 1050.710938 647.686035 1047.150757 649.676575 1045.078125 C 653.263855 1045.909424 654.117004 1053.084351 653.701355 1056.316406 C 643.262085 1071.535889 578.717651 1072.733521 560.447449 1069.807739 C 538.526001 1066.302368 493.84201 1050.492188 480.735718 1032.642212 C 480.497314 1029.273438 479.965759 1025.9375 481.63092 1022.978882 Z"></path><path id="path43" fill="#E7EEEA" stroke="none" d="M 629.962708 553.399231 C 636.82019 549.029663 642.862793 544.875061 649.18988 539.71637 C 654.007568 535.791443 658.819824 531.247498 663.659424 527.508484 C 666.891296 533.126038 669.14978 536.423645 673.535522 541.212646 C 680.387451 548.045349 682.89209 548.428162 688.951111 553.5578 C 677.308716 563.592957 662.237671 575.547668 648.440674 582.553101 C 643.644836 578.500732 641.375427 575.547668 637.875549 570.363281 C 633.686768 564.057861 632.374329 560.399231 629.962708 553.399231 Z"></path><path id="path44" fill="#FFFFFE" stroke="none" d="M 629.962708 553.399231 C 636.82019 549.029663 642.862793 544.875061 649.18988 539.71637 C 654.007568 535.791443 658.819824 531.247498 663.659424 527.508484 C 666.891296 533.126038 669.14978 536.423645 673.535522 541.212646 C 671.26062 548.810913 645.668152 562.165588 637.875549 570.363281 C 633.686768 564.057861 632.374329 560.399231 629.962708 553.399231 Z"></path><path id="path45" fill="#FFFFFE" stroke="none" d="M 273.874847 680.607849 C 278.524139 686.213318 282.620026 689.095337 288.821838 692.6828 C 295.625153 695.810913 298.893097 696.658569 306.297974 697.960205 C 301.158142 711.145325 297.94104 722.334351 294.46582 736.022644 C 286.782623 736.131958 281.859894 735.732788 274.42334 733.288269 C 267.080261 730.362549 263.475983 728.202271 257.861511 722.760925 C 262.593933 706.671875 266.964874 695.821899 273.874847 680.607849 Z"></path><path id="path46" fill="#E7EEEA" stroke="none" d="M 288.821838 692.6828 C 295.625153 695.810913 298.893097 696.658569 306.297974 697.960205 C 301.158142 711.145325 297.94104 722.334351 294.46582 736.022644 C 286.782623 736.131958 281.859894 735.732788 274.42334 733.288269 C 276.222992 731.128174 277.070068 723.340698 278.162659 719.676514 C 281.037994 710.046082 283.795197 701.449219 288.821838 692.6828 Z"></path><path id="path47" fill="#E7EEEA" stroke="none" d="M 688.923828 497.20343 C 693.67041 502.356079 696.902283 505.311951 702.567627 509.59729 C 710.130493 515.09613 713.537354 515.538513 720.061279 519.608948 C 713.575684 527.733276 699.549011 545.279175 691.362732 551.211731 C 690.197937 552.103149 689.530823 552.349243 688.951111 553.5578 C 682.89209 548.428162 680.387451 548.045349 673.535522 541.212646 C 669.14978 536.423645 666.891296 533.126038 663.659424 527.508484 L 665.688232 526.014465 C 666.267883 524.388062 667.941223 522.959595 669.182556 521.622498 C 676.373657 513.993042 682.968628 505.830383 688.923828 497.20343 Z"></path><path id="path48" fill="#FFFFFE" stroke="none" d="M 688.923828 497.20343 C 693.67041 502.356079 696.902283 505.311951 702.567627 509.59729 C 698.783447 515.941528 681.946045 537.311279 675.564331 539.321533 C 671.408264 534.975586 668.838074 531.151245 665.688232 526.014465 C 666.267883 524.388062 667.941223 522.959595 669.182556 521.622498 C 676.373657 513.993042 682.968628 505.830383 688.923828 497.20343 Z"></path><path id="path49" fill="#575757" stroke="none" d="M 665.688232 526.014465 C 668.838074 531.151245 671.408264 534.975586 675.564331 539.321533 C 681.574158 545.002502 684.237305 547.022644 691.362732 551.211731 C 690.197937 552.103149 689.530823 552.349243 688.951111 553.5578 C 682.89209 548.428162 680.387451 548.045349 673.535522 541.212646 C 669.14978 536.423645 666.891296 533.126038 663.659424 527.508484 L 665.688232 526.014465 Z"></path><path id="path50" fill="#FFFFFE" stroke="none" d="M 518.346802 847.853149 C 529.818542 845.485168 538.912598 840.333618 547.891846 832.939819 C 551.779968 843.674988 554.257141 852.94458 557.636658 863.597656 C 545.882751 871.248413 535.615662 875.803894 521.593384 878.12262 C 516.323425 878.702393 513.044556 878.778931 507.808502 878.800781 C 506.418945 870.236755 503.925323 858.856201 501.805725 850.582031 C 507.510437 849.455505 512.03949 849.291382 518.346802 847.853149 Z"></path><path id="path51" fill="#E7EEEA" stroke="none" d="M 501.805725 850.582031 C 507.510437 849.455505 512.03949 849.291382 518.346802 847.853149 C 520.567505 851.052307 518.089783 872.336731 521.593384 878.12262 C 516.323425 878.702393 513.044556 878.778931 507.808502 878.800781 C 506.418945 870.236755 503.925323 858.856201 501.805725 850.582031 Z"></path><path id="path52" fill="#FFFFFE" stroke="none" d="M 339.304047 834.963318 C 351.526062 841.908569 356.262329 843.609375 370.238647 845.425049 C 375.836182 845.703979 380.029968 845.58905 385.613251 845.381226 C 384.419495 854.601563 383.442291 864.959351 383.249237 874.261719 C 377.849121 875 372.533203 875.727295 367.086609 875.207825 C 354.033905 875.021912 344.36676 871.565613 333.102783 865.500793 C 334.908997 854.448486 336.62558 845.873413 339.304047 834.963318 Z"></path><path id="path53" fill="#E7EEEA" stroke="none" d="M 370.238647 845.425049 C 375.836182 845.703979 380.029968 845.58905 385.613251 845.381226 C 384.419495 854.601563 383.442291 864.959351 383.249237 874.261719 C 377.849121 875 372.533203 875.727295 367.086609 875.207825 C 368.774719 873.6875 369.738831 849.789063 370.238647 845.425049 Z"></path><path id="path54" fill="#E7EEEA" stroke="none" d="M 627.217529 554.65155 C 629.716675 560.5578 631.428284 565.692993 634.862427 571.178101 C 638.498962 576.34613 641.277039 579.605469 645.755676 584.100769 C 637.552979 588.645325 629.049438 592.621094 620.305359 596.006226 C 616.132935 597.592163 608.012268 600.200806 604.255432 601.983582 C 599.557983 596.356262 598.365845 594.021057 595.423828 587.250732 C 593.312988 581.552368 592.503662 577.199219 592.48175 571.200012 C 602.41803 568.328918 618.659363 560.273438 627.217529 554.65155 Z"></path><path id="path55" fill="#FFFFFE" stroke="none" d="M 627.217529 554.65155 C 629.716675 560.5578 631.428284 565.692993 634.862427 571.178101 C 625.522278 576.110901 604.321045 582.307068 596.468323 586.665649 L 595.812134 587.026611 C 595.68634 587.103149 595.555054 587.174194 595.423828 587.250732 C 593.312988 581.552368 592.503662 577.199219 592.48175 571.200012 C 602.41803 568.328918 618.659363 560.273438 627.217529 554.65155 Z"></path><path id="path56" fill="#575757" stroke="none" d="M 543.605103 878.866394 C 551.216675 878.428955 555.345398 881.026611 559.474121 887.397705 C 565.385498 896.749268 567.354126 909.119507 564.876892 919.876587 C 563.657471 925.181274 561.24585 927.587524 556.799988 930.168762 C 534.11676 931.366394 527.041626 889.103943 543.605103 878.866394 Z"></path><path id="path57" fill="#E7EEEA" stroke="none" d="M 690.498657 494.582275 C 695.239868 486.953369 697.941345 481.165222 702.141113 473.372803 C 710.207092 474.818726 714.182678 475.544983 721.920593 478.730042 C 728.138245 481.768433 732.491089 484.328369 737.500244 489.240417 C 734.093384 496.761597 726.656311 510.042969 721.652649 516.625122 C 714.226379 513.226868 711.442993 512.444824 704.694885 507.503845 C 699.155334 503.973206 694.600037 499.674194 690.498657 494.582275 Z"></path><path id="path58" fill="#FFFFFE" stroke="none" d="M 690.498657 494.582275 C 695.239868 486.953369 697.941345 481.165222 702.141113 473.372803 C 710.207092 474.818726 714.182678 475.544983 721.920593 478.730042 C 718.644958 484.189453 707.729858 504.153137 704.694885 507.503845 C 699.155334 503.973206 694.600037 499.674194 690.498657 494.582275 Z"></path><path id="path59" fill="#575757" stroke="none" d="M 338.552673 882.678162 C 359.809723 881.792236 359.117432 925.908569 340.946228 935.172668 C 324.398071 936.441406 323.568512 916.748413 325.499939 905.023438 C 327.04538 895.639038 330.642517 888.196106 338.552673 882.678162 Z"></path><path id="path60" fill="#E7EEEA" stroke="none" d="M 536.40863 806.49292 C 538.823486 808.40155 545.40155 826.185913 546.858337 829.959351 C 536.433777 840.306274 520.370117 845.960938 505.965637 847.4375 C 504.011749 847.579712 503.290436 847.798462 501.52356 847.120361 C 500.223175 844.686646 496.173767 828.532043 495.142975 824.643799 C 512.252686 825.042969 526.652832 821.860107 536.40863 806.49292 Z"></path><path id="path61" fill="#E7EEEA" stroke="none" d="M 347.572388 806.378174 C 362.241577 819.869507 369.430939 822.0625 389.349335 820.082764 C 388.037994 826.448425 387.531586 835.318726 385.47052 841.460205 C 385.215149 842.220337 384.033417 842.236694 382.962677 842.493774 C 367.193787 843.516479 352.858185 841.558594 340.050476 831.567139 C 342.465912 822.888245 344.742981 814.958557 347.572388 806.378174 Z"></path><path id="path62" fill="#E7EEEA" stroke="none" d="M 568.152527 743.804688 L 568.469727 744.231262 C 567.890076 749.880432 559.796692 769.207031 556.045349 772.876587 C 545.004517 783.666382 527.954895 790.764832 513.708435 796.211792 L 513.126038 795.500793 C 517.4729 785.323486 520.331848 777.847656 523.748535 767.292969 C 542.019287 760.429688 552.38147 755.021118 568.152527 743.804688 Z"></path><path id="path63" fill="#E7EEEA" stroke="none" d="M 236.86586 818.228882 C 246.017334 820.580444 249.583328 821.214844 258.905426 821.439087 C 260.210754 830.916382 263.6138 839.994507 266.144592 849.121948 C 267.430786 853.759399 266.857147 856.996826 264.338348 860.967163 C 258.711853 866.25 253.768906 863.88208 248.891571 858.75238 C 237.759399 847.043762 236.613754 833.639832 236.86586 818.228882 Z"></path><path id="path64" fill="#E7EEEA" stroke="none" d="M 589.441345 572.124268 C 590.037354 577.603882 590.321716 581.590637 592.137268 586.889893 C 594.592651 593.146057 596.84021 597.400818 600.974304 602.782043 C 593.974731 604.395325 587.018738 606.167236 579.964478 607.518005 C 567.726013 609.853149 564.576172 602.803894 562.97937 592.539063 C 562.536377 587.278137 563.75592 583.668762 565.883179 579.014832 C 574.244446 576.493774 580.839417 575.646057 589.441345 572.124268 Z"></path><path id="path65" fill="#FFFFFE" stroke="none" d="M 589.441345 572.124268 C 590.037354 577.603882 590.321716 581.590637 592.137268 586.889893 C 589.233521 590.958557 568.83606 591.986694 562.97937 592.539063 C 562.536377 587.278137 563.75592 583.668762 565.883179 579.014832 C 574.244446 576.493774 580.839417 575.646057 589.441345 572.124268 Z"></path><path id="path66" fill="#FFFFFE" stroke="none" d="M 256.954285 725.741333 C 262.970154 730.756226 267.286438 733.446899 274.499329 736.27417 C 282.282623 738.789917 285.741974 738.773438 293.854462 739.358582 C 292.305237 745.215698 291.220306 750.427307 290.032532 756.382813 C 282.553833 759.866394 278.013947 760.385986 269.663574 759.516357 C 262.187073 757.657104 256.992004 754.829712 251.913452 749.027344 C 253.295319 740.90625 255.02774 733.731323 256.954285 725.741333 Z"></path><path id="path67" fill="#E7EEEA" stroke="none" d="M 274.499329 736.27417 C 282.282623 738.789917 285.741974 738.773438 293.854462 739.358582 C 292.305237 745.215698 291.220306 750.427307 290.032532 756.382813 C 282.553833 759.866394 278.013947 760.385986 269.663574 759.516357 C 271.824158 756.388306 269.551453 745.1828 274.499329 736.27417 Z"></path><path id="path68" fill="#E7EEEA" stroke="none" d="M 276.824524 788.178101 C 290.367218 786.395264 292.098541 798.054688 292.651917 808.691406 C 293.143524 818.152344 292.739441 826.005493 282.540192 829.538269 C 278.900909 829.784302 274.396515 829.46167 272.594116 825.502319 C 269.253967 818.190613 268.281677 809.763245 267.245941 801.860962 C 266.252319 794.275757 270.594849 791.1203 276.824524 788.178101 Z"></path><path id="path69" fill="#92CABE" stroke="none" d="M 497.378479 62.173706 L 497.813751 62.584351 C 498.827087 66.09314 482.069489 164.782715 480.499481 178.527344 C 477.473236 177.763367 473.042664 177.152527 469.87149 176.619324 L 468.378052 176.498962 L 467.834503 175.585693 C 467.899017 172.382141 474.238068 150.481384 475.467377 145.745483 L 488.492737 95.964478 C 491.321564 84.948242 494.057495 72.908325 497.378479 62.173706 Z"></path><path id="path70" fill="#FFFFFE" stroke="none" d="M 740.447754 403.706909 C 743.034363 393.764771 743.657776 384.33551 745.549805 374.352905 C 747.064636 366.322571 749.908203 360.92218 758.608521 363.023804 C 770.846985 370.998901 761.731018 398.502319 757.591431 409.858215 C 754.485291 408.561523 751.422974 407.229919 748.212952 406.192505 L 740.447754 403.706909 Z"></path><path id="path71" fill="#E7EEEA" stroke="none" d="M 758.608521 363.023804 C 770.846985 370.998901 761.731018 398.502319 757.591431 409.858215 C 754.485291 408.561523 751.422974 407.229919 748.212952 406.192505 C 752.713501 402.928223 755.475098 372.49353 756.63446 366.2854 C 758.083618 364.92749 758.231262 364.885925 758.608521 363.023804 Z"></path><path id="path72" fill="#E7EEEA" stroke="none" d="M 332.705231 868.333618 C 346.397186 875.612488 351.727875 876.602356 366.870087 878.28125 C 372.839996 878.303162 377.061127 877.996826 383.023407 877.449951 C 382.789886 884.980469 382.735748 892.510986 382.860413 900.041443 C 376.606689 903.169556 372.960297 904.367188 366.009308 905.428101 C 364.733521 905.5047 363.556183 905.499268 362.282013 905.5047 C 361.026428 904.317993 360.802795 901.397705 360.474701 899.560181 C 357.760132 884.335144 348.421082 869.75 330.88205 879.856262 C 331.420166 875.869507 331.963684 872.287537 332.705231 868.333618 Z"></path><path id="path73" fill="#FFFFFE" stroke="none" d="M 332.705231 868.333618 C 346.397186 875.612488 351.727875 876.602356 366.870087 878.28125 C 366.935699 882.946106 366.95813 901.014832 366.009308 905.428101 C 364.733521 905.5047 363.556183 905.499268 362.282013 905.5047 C 361.026428 904.317993 360.802795 901.397705 360.474701 899.560181 C 357.760132 884.335144 348.421082 869.75 330.88205 879.856262 C 331.420166 875.869507 331.963684 872.287537 332.705231 868.333618 Z"></path><path id="path74" fill="#FFFFFE" stroke="none" d="M 719.038696 400.90802 C 717.633301 401.023987 717.327026 401.197327 716.074768 400.56842 C 715.757568 395.81012 718.858276 369.898071 722.330688 365.717163 C 725.234436 362.225952 725.841431 362.385071 729.882629 361.673584 C 733.628601 363.398987 735.624512 364.558899 737.221375 368.808655 C 740.486023 377.50177 736.466736 393.71936 734.142578 402.654785 C 728.247559 401.535339 724.036865 401.727844 719.038696 400.90802 Z"></path><path id="path75" fill="#E7EEEA" stroke="none" d="M 729.882629 361.673584 C 733.628601 363.398987 735.624512 364.558899 737.221375 368.808655 C 740.486023 377.50177 736.466736 393.71936 734.142578 402.654785 C 728.247559 401.535339 724.036865 401.727844 719.038696 400.90802 C 721.029236 400.637878 724.042358 400.737976 726.125793 400.740173 C 728.181946 386.49353 728.542908 375.522644 729.882629 361.673584 Z"></path><path id="path76" fill="#92CABE" stroke="none" d="M 501.510986 27.174927 C 509.665039 26.628906 516.746155 32.734619 517.406189 40.881104 C 518.065674 49.02771 512.060242 56.193604 503.923706 56.967407 C 498.558563 57.477661 493.334534 55.059326 490.250885 50.639038 C 487.167755 46.218628 486.702911 40.480469 489.034698 35.621338 C 491.366425 30.762207 496.133301 27.534912 501.510986 27.174927 Z"></path><path id="path77" fill="#E7EEEA" stroke="none" d="M 687.004395 400.884521 C 697.438232 400.751648 704.765991 416.617065 707.866577 424.757813 C 705.318298 430.630127 702.97229 433.135376 696.967957 435.402161 C 695.475037 435.589233 693.249329 435.544922 691.696289 435.562378 C 689.153442 431.17865 685.686462 425.594543 682.509277 421.590881 C 675.26355 412.452576 675.18158 405.731506 687.004395 400.884521 Z"></path><path id="path78" fill="#575757" stroke="none" d="M 352.759216 560.951538 L 353.587708 561.323486 C 353.720032 562.231201 346.166412 582.667969 345.214355 585.6922 C 341.96994 596.268738 339.131226 606.965637 336.705414 617.760925 L 333.404114 613.347656 C 320.490845 592.834412 331.426147 569.767151 352.759216 560.951538 Z"></path><path id="path79" fill="#92CABE" stroke="none" d="M 459.43985 182.899048 C 477.783844 182.925842 492.526276 187.689697 505.866089 200.208191 C 498.202026 199.083252 490.531952 198.004822 482.854767 196.97345 C 466.823395 194.540405 447.678802 192.913452 431.603119 191.950928 C 440.351593 184.914856 448.650543 183.467285 459.43985 182.899048 Z"></path><path id="path80" fill="#E7EEEA" stroke="none" d="M 771.497803 379.811279 C 790.303833 381.134155 782.544067 412.63031 776.063965 421.797058 L 775.210815 421.784973 C 770.748535 417.739746 767.358093 415.132813 762.157593 412.143555 C 767.642456 398.996155 769.091614 393.80304 771.497803 379.811279 Z"></path><path id="path81" fill="#575757" stroke="none" d="M 531.155029 797.239868 C 532.396973 797.573486 531.820007 797.294556 532.745239 798.366394 C 532.807068 800.553894 532.354797 801.177368 531.322937 803.118774 C 523.933411 817.014832 499.076965 822.144531 486.058746 814.329712 C 483.428925 812.038269 482.065094 810.430542 479.771088 807.772583 C 499.745789 807.389832 512.674866 804.688354 531.155029 797.239868 Z"></path><path id="path82" fill="#575757" stroke="none" d="M 410.954712 531.349792 C 425.16452 536.278748 440.042603 536.389221 454.904816 535.612122 C 459.125946 535.391724 471.59079 531.699768 473.907776 534.085815 C 474.20636 536.489258 472.710175 537.91333 470.96521 539.227478 C 458.374023 545.354126 424.343719 549.314087 412.360107 538.443848 C 410.284821 536.561462 410.767151 533.994446 410.954712 531.349792 Z"></path><path id="path83" fill="#575757" stroke="none" d="M 349.984528 796.09137 C 352.724213 796.200806 354.987061 796.6875 357.643097 797.261719 C 371.664825 800.291382 385.469421 803.342957 399.719208 805.136719 L 400.080627 805.7547 C 399.230865 807.799988 398.162292 808.565674 396.562256 810.102295 C 394.677246 811.458618 392.581177 812.492188 390.359344 813.164917 C 375.960846 817.539917 354.684662 811.978149 349.984528 796.09137 Z"></path><path id="path84" fill="#92CABE" stroke="none" d="M 232.769424 307.290161 L 233.069077 307.634155 C 233.349609 309.336548 229.92691 328.272644 229.510193 331.314331 C 227.003464 350.268555 225.295639 369.320007 224.39061 388.417419 C 224.28508 390.52887 224.248444 396.810852 223.488312 398.427429 L 222.612274 397.473694 C 214.818604 371.074402 220.262466 331.898987 232.769424 307.290161 Z"></path><path id="path85" fill="#E7EEEA" stroke="none" d="M 531.884033 878.953857 L 532.883667 878.9375 C 533.132996 880.408569 529.785706 885.445313 529.085815 889.262451 C 527.984985 895.267212 528.098145 899.264832 528.008484 905.302368 C 522.776245 904.979675 517.587219 904.159363 512.514099 902.835938 L 511.76767 902.447632 C 510.826538 900.435181 508.692749 884.619507 508.237762 881.584412 C 518.659546 881.650024 521.643738 881.048462 531.884033 878.953857 Z"></path><path id="path86" fill="#E7EEEA" stroke="none" d="M 267.823425 831.146118 C 275.194946 837.052368 280.093597 848.225037 281.015564 857.472656 C 279.510101 861.442932 279.060059 862.224976 276.042542 864.9375 C 274.439178 865.517212 271.887054 866.567139 270.332916 866.047668 L 269.88559 864.828125 C 270.387054 862.350769 272.299927 860.874268 272.975281 859.364868 C 276.124573 852.332031 269.68927 838.266357 267.823425 831.146118 Z"></path><path id="path87" fill="#E7EEEA" stroke="none" d="M 285.698792 835.756226 L 287.620941 835.608582 C 292.381256 838.21167 293.572845 842.739868 293.228302 847.853149 C 292.99646 851.287476 291.052399 853.010193 288.69986 855.15387 L 287.794861 854.453979 C 287.434448 852.512512 286.778259 848.585938 286.158112 846.846924 C 285.059509 843.762512 281.525757 840.579712 281.397278 837.227417 C 282.744171 835.827332 283.447418 836.128174 285.698792 835.756226 Z"></path><path id="path88" fill="#92CABE" stroke="none" d="M 385.939728 905.581299 C 388.245209 905.46637 390.866272 907.336731 392.974365 908.523438 C 383.108154 913.664063 378.230804 914.085144 367.471069 914.861694 C 365.159546 914.932861 361.91507 915.446838 360.329773 913.691406 C 360.667175 912.832825 360.882629 912.072693 362.044128 911.957764 C 371.239899 911.055481 377.638031 909.874268 385.939728 905.581299 Z"></path><path id="path89" fill="#575757" stroke="none" d="M 688.923828 497.20343 C 690.296326 496.026001 689.858887 496.485901 690.498657 494.582275 C 694.600037 499.674194 699.155334 503.973206 704.694885 507.503845 C 711.442993 512.444824 714.226379 513.226868 721.652649 516.625122 C 721.122131 517.541748 720.389404 518.642029 720.061279 519.608948 C 713.537354 515.538513 710.130493 515.09613 702.567627 509.59729 C 696.902283 505.311951 693.67041 502.356079 688.923828 497.20343 Z"></path><path id="path90" fill="#575757" stroke="none" d="M 589.441345 572.124268 C 590.742798 571.238281 590.934204 571.347656 592.48175 571.200012 C 592.503662 577.199219 593.312988 581.552368 595.423828 587.250732 C 598.365845 594.021057 599.557983 596.356262 604.255432 601.983582 C 602.778931 602.109375 602.335938 602.3172 600.974304 602.782043 C 596.84021 597.400818 594.592651 593.146057 592.137268 586.889893 C 590.321716 581.590637 590.037354 577.603882 589.441345 572.124268 Z"></path><path id="path91" fill="#575757" stroke="none" d="M 627.217529 554.65155 L 629.962708 553.399231 C 632.374329 560.399231 633.686768 564.057861 637.875549 570.363281 C 641.375427 575.547668 643.644836 578.500732 648.440674 582.553101 L 645.755676 584.100769 C 641.277039 579.605469 638.498962 576.34613 634.862427 571.178101 C 631.428284 565.692993 629.716675 560.5578 627.217529 554.65155 Z"></path><path id="path92" fill="#92CABE" stroke="none" d="M 505.972748 907.697693 C 508.008087 907.659363 512.638245 909.157776 515.079956 909.589844 C 519.721558 910.410156 524.160339 911.09375 528.845703 911.684326 C 529.795593 912.920288 529.469116 912.171082 529.196228 914.27655 C 524.027954 914.123474 508.194 913.554688 505.552765 909.217957 L 505.972748 907.697693 Z"></path><path id="path93" fill="#FFFFFE" stroke="none" d="M 558.150696 866.796875 C 559.233459 868.016357 561.120056 877.269531 561.617737 879.446106 L 556.668762 875.464844 C 553.940002 873.638306 552.660339 873.228149 549.608948 872.035889 C 552.354126 870.264038 555.345398 868.503113 558.150696 866.796875 Z"></path><path id="path94" fill="#575757" stroke="none" d="M 494.520081 530.891479 C 492.551971 531.170959 487.886871 530.95166 485.593353 531.041321 L 485.089172 529.178162 L 484.786774 529.323608 L 484.683411 530.947815 L 484.18631 529.689453 L 485.036682 529.265076 L 483.766876 530.520142 L 483.707306 530.297607 C 486.201447 528.365479 493.668091 529.069824 496.610687 529.750122 L 494.738312 530.380676 L 494.520081 530.891479 Z"></path></svg>