<svg xmlns:xlink="http://www.w3.org/1999/xlink" width="928" height="1120" viewBox="0 0 928 1120" xmlns="http://www.w3.org/2000/svg" class="h-auto w-full max-w-xs lg:max-w-md"><defs><linearGradient id="linearGradient1" x1="468.184476" y1="670.03125" x2="452.729476" y2="670.682031" gradientUnits="userSpaceOnUse"><stop offset="1e-05" stop-color="#7f827f" stop-opacity="1"></stop><stop offset="1" stop-color="#899c9a" stop-opacity="1"></stop></linearGradient></defs><style>

@keyframes blink {
  0%, 98%, 100% { transform: scaleY(1) rotate(0deg); }
  99% { transform: scaleY(0.1) rotate(90deg); }
}

@keyframes mouthClose {
  0%, 70% { transform: scaleY(1) ; }
  80% { transform: scaleY(0.3); }
  90% { transform: scaleY(0.3); }
  100% { transform: scaleY(1); }
}

#left-eye {
  animation: blink 5s infinite;
  transform-origin: center center;
  transform-box: fill-box;
}

#right-eye {
  animation: blink 5s infinite;
  transform-origin: center center;
  transform-box: fill-box;
}

#mouth-full {
  animation: mouthClose 8s infinite ease-in-out;
  transform-origin: center center;
  transform-box: fill-box;
}

@keyframes activeWiggle {
  0% {
    transform: rotate(0deg) translateX(0px) translateY(0px);
  }
  20% {
    transform: rotate(72deg) translateX(6px) translateY(-18px);
  }
  40% {
    transform: rotate(144deg) translateX(-7px) translateY(14px);
  }
  60% {
    transform: rotate(216deg) translateX(8px) translateY(10px);
  }
  80% {
    transform: rotate(288deg) translateX(-7px) translateY(-17px);
  }
  100% {
    transform: rotate(360deg) translateX(0px) translateY(0px);
  }
}

.confetti_1, 
.confetti_2, 
.confetti_3, 
.confetti_4, 
.confetti_5 {
  transform-origin: center center;
  transform-box: fill-box;
}
.confetti_1 {
  animation: activeWiggle 3.7s infinite linear;
  animation-delay: 0.2s;
}

.confetti_2 {
  animation: activeWiggle 4.3s infinite linear;
  animation-delay: 0.8s;
}

.confetti_3 {
  animation: activeWiggle 3.9s infinite linear;
  animation-delay: 0.5s;
}

.confetti_4 {
  animation: activeWiggle 4.5s infinite linear;
  animation-delay: 1.1s;
}

.confetti_5 {
  animation: activeWiggle 3.6s infinite linear;
  animation-delay: 0.3s;
}
</style><g id="robot"><path id="Path" fill="#373739" stroke="none" d="M 449.73822 77.791382 C 453.387329 77.511841 455.86618 77.278931 459.489624 78.353027 C 464.76886 79.883667 469.171509 83.544434 471.640015 88.455933 C 477.74118 100.573059 471.655334 111.50946 460.135986 117.058594 C 461.962433 129.436035 462.942383 149.43634 463.845795 162.10083 L 469.085663 235.897278 C 484.181946 237.365051 495.619263 241.301514 504.310883 254.438538 C 539.929749 256.047974 574.435791 257.49939 609.423157 265.793823 C 630.476807 270.784058 638.27478 272.933838 644.481506 295.47052 C 648.889099 311.458435 650.529602 325.648193 652.531128 341.983887 C 657.93396 343.525574 666.311646 346.690857 669.860657 351.309753 C 687.086365 373.711975 689.519897 457.638123 668.19281 475.452026 L 667.487366 476.035583 C 669.636536 476.424927 670.834045 476.458252 671.730896 478.542419 C 670.839539 483.868958 666.185852 491.510498 662.768066 495.657959 C 659.044067 495.410767 655.216125 494.430786 651.557678 493.617065 C 649.731262 505.05658 647.669617 523.348999 640.462158 532.436401 C 638.406067 535.028015 634.184326 537.925415 631.094727 539.102844 C 625.768372 541.135559 619.25 542.677734 613.661194 544.029053 C 585.777405 550.768738 557.270264 554.646118 528.741821 557.533569 C 522.126038 558.206238 512.182739 558.780457 505.295715 559.491394 C 505.009705 559.770325 504.724274 560.054688 504.438263 560.33905 C 504.738495 563.314087 507.002441 562.734375 511.029419 563.510986 C 522.799194 565.780457 533.789185 575.509338 542.836243 583.083557 C 556.767212 581.442932 563.493408 583.12738 574.009338 592.539063 C 636.065552 560.847656 685.713745 512.162659 712.957764 447.399536 L 710.874207 444.245117 C 703.923828 433.744629 703.245728 424.172668 705.695618 412.007935 C 702.277771 406.728943 699.078735 401.028931 695.48053 395.408691 C 685.54425 379.894348 698.821777 363.566895 715.850586 367.628479 C 722.811951 369.288818 727.033569 378.4823 730.166992 384.914673 L 733.989441 380.639771 C 734.273865 378.911133 734.585571 377.186218 734.924622 375.466858 C 737.762756 360.518005 741.054749 328.16272 762.266968 333.319763 C 767.997925 334.712097 770.841553 337.263855 773.909302 341.968628 C 777.332581 339.55304 780.044922 338.230164 784.315857 338.004822 C 789.149963 337.75 793.874756 339.520813 797.347229 342.892273 C 802.432922 347.874878 802.673462 353.301453 802.799316 359.827332 L 803.592224 359.999084 C 812.079285 361.783508 816.180664 368.155701 816.661865 376.502625 C 817.482178 390.841187 810.602783 402.561279 801.536072 413.043213 C 797.872192 436.229614 783.561218 461.785645 759.937439 469.100647 C 758.531982 474.866882 752.319824 487.747986 749.476196 493.182251 C 723.675964 542.438721 682.339783 581.683594 635.666382 611.110901 C 624.937195 617.875732 612.851807 623.951538 601.575867 629.710144 C 596.971436 632.056274 587.800781 634.894531 584.016602 637.306274 C 578.580933 640.762573 578.263733 644.453979 571.406311 648.796082 C 579.718384 677.96637 586.275085 707.612549 591.043579 737.564819 C 593.848877 754.692993 597.392517 767.883606 588.369507 783.606262 C 582.228394 794.319519 581.599548 802.965637 568.573608 807.570313 C 586.214905 835.723511 598.896362 872.260132 607.115417 904.378113 C 608.723145 904.793701 610.352783 905.209351 611.840149 905.969543 C 628.245605 914.309387 648.763306 972.606201 654.319336 990.822693 C 663.227417 995.914063 672.627747 1001.607056 678.763367 1010.061707 C 681.229675 1013.457825 682.85376 1017.778076 685.795837 1020.796875 C 689.569092 1024.674194 694.889893 1026.484375 697.853821 1031.313232 C 699.920898 1034.682007 700.588074 1039.855469 699.587341 1043.721924 C 698.438904 1048.156982 694.900818 1051.35083 691.0401 1053.532837 C 672.660522 1063.917969 622.541992 1067.71875 600.881409 1066.094604 C 594.220764 1065.591431 587.625732 1064.224243 581.200317 1062.408569 C 565.401917 1057.957031 518.544189 1039.445313 511.145905 1025.368774 C 509.5737 1022.377319 509.032349 1018.850037 510.082275 1015.596069 C 511.464172 1011.314087 514.489319 1009.115601 518.308533 1007.16333 C 518.332581 1006.15155 518.3703 1005.145325 518.421692 1004.139038 C 519.829285 980.421143 523.592651 956.900024 529.655029 933.931274 C 531.911865 925.022644 532.991943 916.644531 540.046204 910.317139 C 533.894775 878.483582 527.814331 849.931274 514.718445 819.689087 L 507.605072 820.629639 C 504.224457 821.449951 493.881927 822.346863 490.327972 822.653137 C 474.250122 824.107788 458.108795 824.753113 441.965851 824.572693 C 428.287048 854.114868 420.914978 883.197632 414.356659 914.828857 C 428.398041 929.03125 434.935059 988.575012 435.387299 1009.777344 C 439.846832 1012.697693 443.401917 1015.568787 444.199219 1021.294556 C 445.745697 1032.406982 432.277374 1039.964844 424.196045 1044.941406 C 404.849701 1056.852417 381.817047 1068.670288 358.963745 1071.596069 C 332.927246 1074.921021 304.338043 1072.585938 278.613251 1067.625732 C 268.271851 1065.914063 254.523544 1058.35083 258.670288 1045.608643 C 261.796631 1036 273.568054 1031.641479 278.191101 1020.747681 C 281.03363 1014.048462 294.555511 1003.778137 301.00885 1000.048462 C 307.601654 974.482056 317.023834 950.791382 329.80365 927.59845 C 334.446411 919.176575 339.336853 911.476563 348.843811 908.878906 C 358.504944 872.763306 366.312805 847.142212 385.836914 814.242188 C 379.865356 810.796875 368.095551 804.633545 364.518616 799.345337 C 360.979401 794.111694 351.695587 772.493774 351.786926 767.074219 C 351.987061 755.135864 355.713257 736.088257 357.597717 723.860168 C 360.808258 703.018799 363.519531 681.810913 367.028107 661.204712 C 355.791473 656.359375 350.779053 650.250793 345.997467 639.1875 C 275.188904 615.803162 210.623184 572.960938 173.422256 506.863953 C 153.370468 503.637939 140.412354 485.569763 131.515152 468.634705 C 129.789841 465.62854 128.374069 457.645813 126.240265 455.144958 C 115.321365 442.350769 102.84996 428.241943 108.303665 410.046326 C 110.469727 402.819336 117.420166 404.635559 122.489983 402.511475 C 121.980865 395.728577 121.026619 388.077271 127.041946 383.434814 C 136.314285 376.279541 143.908356 379.87854 150.580994 387.027222 C 151.825058 378.246643 156.566238 372.800293 165.934814 372.239258 C 181.702072 371.272339 186.268784 393.078979 189.885086 404.831848 C 192.784485 414.255066 190.595459 413.649658 198.202652 420.887024 C 201.775757 414.325073 207.090561 406.931335 214.681885 404.810547 C 224.024765 402.237488 235.754105 410.293518 238.327026 419.262817 C 239.709457 424.266174 237.346527 428.401123 234.149109 432.013733 C 229.613556 437.138 225.981384 441.981628 222.538452 447.9021 C 223.999069 459.102112 222.80368 467.008301 218.19429 477.14624 C 227.262115 490.236267 233.2397 501.566956 243.854019 514.75592 C 267.739746 544.434875 298.229767 568.033569 331.34848 586.610962 C 338.061584 590.378906 346.404297 595.065613 353.31369 598.0625 C 353.892303 597.428101 354.481812 596.804688 355.082214 596.1922 C 363.2565 587.863281 370.421265 585.763245 381.773834 585.703125 C 383.553284 580.004639 385.491333 574.032837 391.528503 571.708618 C 404.325287 566.770325 418.245819 565.605469 431.591095 562.810974 C 419.495911 560.896912 406.62204 561.460205 394.380341 560.809387 C 374.944244 559.78125 309.638641 555.02887 295.792511 545.362854 C 283.73233 536.942078 280.067322 508.950867 277.715332 495.269165 C 264.833801 492.146484 256.833435 487.077515 252.206558 474.297546 C 244.187576 452.148621 242.047226 427.977234 243.218582 404.569397 C 243.81517 392.645325 245.381912 380.104919 250.013702 369.072266 C 253.969589 359.45166 260.990021 356.307678 270.070435 352.907166 C 270.916931 336.575317 273.015198 297.690308 284.119476 285.707764 C 299.939789 268.635925 387.668304 258.613342 413.890198 257.402588 C 422.40625 244.69812 432.636108 238.405212 447.881134 236.578125 C 447.875122 205.637024 448.949677 174.642883 449.271759 143.696899 C 449.362 135.057373 449.549011 126.212158 450.135223 117.610413 C 448.451508 117.134094 446.80603 116.531982 445.212494 115.80896 C 428.286499 108.074524 429.770111 84.15918 449.73822 77.791382 Z"></path><path id="path1" fill="#FFFFFF" stroke="none" d="M 471.689789 261.126831 C 497.4758 260.608337 612.922913 264.041077 630.372864 281.873047 C 643.77063 295.563477 649.463318 381.420715 649.747681 404.428284 C 650.070313 425.542603 649.233582 446.659058 647.248535 467.682556 C 646.297058 466.233887 643.256592 461.341553 642.266785 461.077393 C 637.864624 459.903259 630.750183 474.588501 629.760376 477.037415 C 634.15155 483.627808 638.006836 486.328308 644.623718 490.715881 C 643.147217 501.158997 641.32074 520.333496 634.512512 528.347961 C 629.683838 534.027832 613.666626 536.904358 606.245911 538.546082 C 562.733337 548.176575 518.617493 551.714844 474.25174 554.339844 C 459.970276 555.220337 445.362366 554.957825 431.057922 554.777344 C 394.506622 554.3125 357.206726 552.496887 321.252045 545.595276 C 314.428497 544.284973 304.379608 543.156799 298.895844 538.669128 C 286.678741 528.671692 279.128418 458.005066 277.718079 439.689148 C 276.626556 426.278687 276.050201 412.830505 275.99115 399.375183 C 275.858246 378.412903 276.823456 304.500549 289.606567 290.49292 C 294.907684 284.68396 307.203003 281.984619 314.698639 279.973206 C 363.317749 266.924744 421.29834 262.075623 471.689789 261.126831 Z"></path><path id="path2" fill="#373739" stroke="none" d="M 462.075653 295.009521 C 500.411835 293.295044 540.244202 295.903137 578.165344 301.704346 C 585.345459 302.80249 596.594055 303.601501 602.494568 308.012573 C 609.740295 313.424988 614.798645 356.103699 615.875916 366.168884 C 620.119446 404.382324 619.304626 442.988464 613.45343 480.988586 C 609.341125 506.9422 607.476318 503.875305 582.386963 508.179749 C 536.828003 516.143372 490.695984 520.367981 444.450195 520.810974 C 441.885498 520.860168 439.319672 520.868347 436.754425 520.83606 C 423.018707 520.657837 329.658752 516.616394 322.505432 508.592651 C 318.121338 503.67572 316.865784 493.664612 315.616791 487.309387 C 308.67511 452.004211 305.767517 413.891418 307.949432 377.920166 C 304.315094 378.313904 300.796692 379.284058 298.00885 377.115112 C 296.310333 373.622803 297.934479 371.472473 298.972382 367.588562 C 301.176208 359.341675 298.945038 352.643066 294.474579 345.693359 C 293.333313 343.919312 293.47879 342.771423 294.002655 340.949768 C 297.184753 337.844604 306.794495 337.604492 311.273163 337.484741 C 315.396423 334.150452 312.550079 322.407959 317.444916 316.906982 C 326.496857 306.734497 400.868103 298.75293 418.078491 297.361084 C 432.694611 296.179321 447.426147 295.711731 462.075653 295.009521 Z"></path><path id="path3" fill="#565555" stroke="none" d="M 456.198669 301.624023 C 491.901794 300.231079 527.659058 301.69397 563.127014 305.999512 C 570.799316 306.999207 581.74176 308.264709 588.910889 310.32312 C 606.645142 351.066956 607.580261 457.809326 593.034058 499.804932 C 587.346924 501.362427 572.860901 503.516052 566.736206 504.511902 C 543.676208 508.335083 520.442322 511.018616 497.118164 512.552612 C 487.701447 513.208862 478.093903 513.376709 468.623596 513.936707 C 433.34375 514.864197 401.32309 514.39447 366.162994 510.181335 C 356.72934 509.050964 345.725677 508.422607 336.666046 505.959473 C 334.572693 497.766724 331.573792 490.450623 330.088531 481.957153 C 320.981934 429.88916 317.696991 369.71814 331.468262 318.274658 C 336.824646 315.526062 344.16333 314.324646 350.157318 313.193665 C 385.154449 306.588501 420.653595 302.914612 456.198669 301.624023 Z"></path><g id="mouth-full"><path id="mouth" fill="#373739" stroke="none" d="M 498.000244 438.785156 C 500.414581 438.430786 503.61853 439.088684 505.700958 440.231628 C 515.994263 445.839844 514.047485 459.101013 509.163574 467.624634 C 497.124176 488.637695 471.652039 497.185974 448.74295 491.209656 C 444.104065 489.999451 440.276123 487.974915 436.042419 485.65509 C 434.807648 484.914063 433.602417 484.125488 432.428864 483.290955 C 415.590332 471.200623 402.561707 439.321106 435.825348 441.871155 C 451.404449 443.065552 464.359283 447.128296 480.588074 442.260559 C 485.121979 440.900452 493.559845 439.295959 498.000244 438.785156 Z"></path><path id="tongue" fill="#92CBBE" stroke="none" d="M 467.162964 468.897766 C 476.58844 468.438354 484.149689 473.27002 490.752319 479.466675 C 480.06311 485.653442 473.192505 487.350403 461.049744 487.253052 C 452.123566 486.367126 444.557373 484.217346 436.917938 479.440918 C 446.528778 470.833679 455.091858 470.099182 467.162964 468.897766 Z"></path></g><path id="path4" fill="#92CBBE" stroke="none" d="M 367.434937 423.06958 C 367.117798 424.859009 367.224426 426.141968 366.137268 427.247742 C 355.804047 425.269653 361.283478 390.208984 362.96283 383.491699 C 370.164795 354.691101 394.96051 341.583069 411.653595 372.898193 C 417.060272 383.040527 424.112946 415.976624 416.556091 425.213928 C 415.207001 425.590698 415.655396 425.57373 414.290497 425.530518 C 413.667603 427.539734 413.682404 427.694519 411.797394 428.371033 C 406.817261 425.452881 405.579742 408.561523 402.375763 402.648743 C 398.628204 395.723694 395.61673 387.204468 386.031067 390.56665 C 373.673401 394.901184 375.803375 425.339661 370.245758 428.367737 C 367.014435 427.302979 367.543213 425.988281 367.434937 423.06958 Z"></path><path id="path5" fill="#373739" stroke="none" d="M 367.434937 423.06958 C 367.707825 410.217529 373.222229 382.397461 390.046539 383.272949 C 407.569702 384.184082 412.482056 412.817871 414.290497 425.530518 C 413.667603 427.539734 413.682404 427.694519 411.797394 428.371033 C 406.817261 425.452881 405.579742 408.561523 402.375763 402.648743 C 398.628204 395.723694 395.61673 387.204468 386.031067 390.56665 C 373.673401 394.901184 375.803375 425.339661 370.245758 428.367737 C 367.014435 427.302979 367.543213 425.988281 367.434937 423.06958 Z"></path><path id="path6" fill="#92CBBE" stroke="none" d="M 511.445007 422.97937 C 503.144989 422.004272 505.649536 392.818115 506.533813 387.098938 C 507.931519 373.010864 519.553162 347.544556 537.680603 351.753296 C 561.207581 357.217102 567.381531 394.953125 564.417603 415.120789 C 563.908997 418.580322 562.766113 420.549622 559.933411 422.430298 L 560.551392 423.073975 C 559.091309 424.525391 555.405579 423.90686 554.065796 422.37616 C 552.080688 416.663513 551.468262 408.39093 549.390259 402.265381 C 541.007568 377.504517 529.313843 379.70459 521.301392 402.766846 C 518.9729 409.468811 519.700256 420.710938 514.076965 425.397095 L 512.684143 425.728516 L 511.878113 425.192566 L 511.445007 422.97937 Z"></path><path id="path7" fill="#373739" stroke="none" d="M 511.445007 422.97937 C 513.000793 412.169861 514.121338 402.759766 518.637146 392.456055 C 522.509949 383.61969 531.631897 375.282593 541.804382 380.457642 C 551.074524 385.174988 555.361816 398.583313 557.28125 407.986816 C 558.232727 412.642883 558.446045 417.740295 559.933411 422.430298 L 560.551392 423.073975 C 559.091309 424.525391 555.405579 423.90686 554.065796 422.37616 C 552.080688 416.663513 551.468262 408.39093 549.390259 402.265381 C 541.007568 377.504517 529.313843 379.70459 521.301392 402.766846 C 518.9729 409.468811 519.700256 420.710938 514.076965 425.397095 L 512.684143 425.728516 L 511.878113 425.192566 L 511.445007 422.97937 Z"></path><path id="path8" fill="#92CBBE" stroke="none" d="M 595.68634 311.3797 C 596.479248 311.437073 598.201843 311.612671 598.661194 312.130554 C 605.36554 319.768188 609.231689 352.135559 610.374634 361.241577 C 615.214233 399.817017 614.563477 438.849121 609.089539 477.152832 C 608.269226 482.899963 606.847473 493.63562 603.55542 497.955933 C 602.549255 498.415833 601.996948 498.482056 600.92511 498.71936 C 599.213501 496.828308 601.964172 490.646973 602.565674 487.85791 C 604.053101 480.659912 605.228821 473.400146 606.076477 466.099365 C 611.949585 416.017639 609.521545 359.900085 595.68634 311.3797 Z"></path><path id="path9" fill="#92CBBE" stroke="none" d="M 316.043884 376.035095 L 316.882721 376.169067 C 317.087799 376.380127 317.292328 376.591797 317.496826 376.803467 C 317.205383 383.170715 316.88385 396.585022 316.910645 402.428345 C 316.92923 428.164856 319.169128 453.852112 323.605682 479.203064 C 324.79068 485.473511 326.2229 491.694214 327.900085 497.850952 C 328.647064 500.64325 329.78125 503.081238 330.157471 505.851135 L 329.283051 506.558838 C 328.201385 505.994995 325.932526 504.916565 325.395508 503.867126 C 322.952759 499.091248 321.717987 491.777344 320.662018 486.568359 C 314.46347 455.987671 312.158539 424.726624 312.276642 393.56134 C 312.294159 389.00531 312.166748 383.084839 312.778656 378.47467 C 312.96347 377.081238 314.572845 376.737854 316.043884 376.035095 Z"></path><path id="path10" fill="#92CBBE" stroke="none" d="M 322.743317 318.998779 C 323.978088 319.191772 323.902649 319.209839 324.970062 319.886841 C 323.134308 326.951416 322.064667 333.809753 320.977539 341.003906 C 320.482117 344.28241 320.157806 348.979004 319.351746 351.918457 C 318.321503 349.730957 316.845032 346.722046 316.787048 344.366638 C 316.626831 337.855591 318.509064 323.679443 322.743317 318.998779 Z"></path><path id="path11" fill="#FFFFFF" stroke="none" d="M 413.177094 601.710144 C 440.620087 595.820313 479.575836 593.665649 507.845123 592.790588 C 517.470215 592.489868 533.866882 593.682007 544.03656 594.037476 C 546.074646 598.177368 547.689514 602.087463 549.455872 606.331238 C 564.390198 643.726563 573.971008 685.874268 581.517517 725.402344 C 583.639282 736.487488 586.893005 755.644531 587.144531 766.817261 C 525.201538 788.200012 456.113373 790.584351 391.487488 782.993774 C 391.537811 773.417969 392.690552 762.792114 393.533783 753.183594 C 397.613281 706.677307 402.015411 658.782043 410.950897 612.992188 C 411.567169 609.251587 412.409332 605.428894 413.177094 601.710144 Z"></path><path id="path12" fill="#E8EDEB" stroke="none" d="M 413.177094 601.710144 C 440.620087 595.820313 479.575836 593.665649 507.845123 592.790588 C 517.470215 592.489868 533.866882 593.682007 544.03656 594.037476 C 546.074646 598.177368 547.689514 602.087463 549.455872 606.331238 C 541.843689 604.854675 532.715759 605.494507 524.901306 605.352356 C 498.226105 604.865662 471.916168 607.310181 445.417572 609.896851 C 436.029846 610.810181 419.554962 613.807007 410.950897 612.992188 C 411.567169 609.251587 412.409332 605.428894 413.177094 601.710144 Z"></path><path id="path13" fill="#373739" stroke="none" d="M 483.419647 631.356201 C 503.006622 630.902344 519.3125 646.296875 519.992249 665.875 C 520.672546 685.458618 505.47345 701.941406 485.902344 702.849182 C 473.03772 703.445313 460.845245 697.085205 453.980103 686.185913 C 447.11554 675.286743 446.638123 661.543823 452.730591 650.196167 C 458.822998 638.848511 470.544678 631.651611 483.419647 631.356201 Z"></path><path id="path14" fill="#92CBBE" stroke="none" d="M 481.423645 637.831177 C 497.125275 634.615601 512.474182 644.694519 515.767883 660.378906 C 519.061523 676.068726 509.062408 691.46875 493.393585 694.837524 C 477.61322 698.239075 462.080017 688.14917 458.762817 672.349976 C 455.445129 656.550781 465.609375 641.068726 481.423645 637.831177 Z"></path><path id="path15" fill="#373739" stroke="none" d="M 484.173218 643.639038 C 496.509521 641.763306 508.058411 650.163269 510.077911 662.47345 C 512.097412 674.789063 503.835663 686.4375 491.546326 688.597656 C 483.468323 690.019531 475.249176 686.989807 470.027344 680.662476 C 464.806061 674.340576 463.388062 665.69458 466.315887 658.032837 C 469.243195 650.365601 476.063995 644.869507 484.173218 643.639038 Z"></path><path id="path16" fill="#92CBBE" stroke="none" d="M 482.20401 648.205505 C 484.576782 648.369507 486.980164 648.642944 489.197113 649.545288 C 493.792236 651.415649 497.442993 655.052368 499.328003 659.640625 C 503.744873 670.414063 498.524109 680.416382 487.762146 684.457764 C 466.025513 685.682739 462.151642 653.466431 482.20401 648.205505 Z"></path><path id="path17" fill="#95A7A4" stroke="none" d="M 494.946655 648.424194 C 497.054199 648.976563 498.821075 650.097656 500.353882 651.612549 C 509.479645 660.630493 508.458679 672.716431 500.444092 681.471863 C 500.027954 681.679688 499.107605 682.007813 498.638977 682.182861 C 506.30246 669.834351 505.985291 658.667236 494.946655 648.424194 Z"></path><linearGradient id="linearGradient1" x1="468.184476" y1="670.03125" x2="452.729476" y2="670.682031" gradientUnits="userSpaceOnUse"><stop offset="1e-05" stop-color="#7f827f" stop-opacity="1"></stop><stop offset="1" stop-color="#899c9a" stop-opacity="1"></stop></linearGradient><path id="path18" fill="url(&quot;#linearGradient1&quot;)" stroke="none" d="M 462.407013 643.721069 C 462.276886 646.198425 452.852509 656.375732 454.911407 669.2547 C 456.514191 679.284363 459.156586 685.518799 467.848145 692.885132 C 469.854553 694.585938 472.553802 695.5047 474.269257 696.915649 L 473.287659 697.128906 C 467.886963 695.050781 464.002197 692.699219 460.009125 688.373413 C 454.302216 682.188354 451.323517 673.963257 451.744598 665.557861 C 452.148712 656.802368 455.989227 649.572693 462.407013 643.721069 Z"></path><path id="path19" fill="#FFFFFF" stroke="none" d="M 564.144165 924.164063 C 565.522217 924.103943 568.458801 923.797607 569.530579 924.672607 C 574.299072 928.555481 576.191223 935.145264 582.266663 937.458557 C 594.866089 942.254639 603.916382 933.0672 605.841248 921.189026 C 606.28418 918.443726 606.612366 915.419556 607.284973 912.734375 C 618.402344 911.832031 644.038574 978.74762 646.52124 990.095276 C 614.853333 985.430481 590.699036 992.999207 571.789063 1019.992981 C 568.786865 1024.903931 566.905762 1028.956299 564.494141 1034.129639 C 551.697937 1028.967163 535.987 1022.650757 524.864685 1014.387512 C 525.842407 1006.424988 526.200073 997.417969 527.136292 989.083618 C 529.633728 965.196106 534.575562 941.631226 541.882568 918.755493 C 550.801086 922.813293 554.481384 923.852295 564.144165 924.164063 Z"></path><path id="path20" fill="#E8EDEB" stroke="none" d="M 541.882568 918.755493 C 550.801086 922.813293 554.481384 923.852295 564.144165 924.164063 C 562.673096 946.033569 560.190491 968.707031 563.236389 990.483643 C 564.138672 996.914856 566.402649 1014.201599 569.825928 1019.052368 C 570.613342 1019.478882 570.941528 1019.719543 571.789063 1019.992981 C 568.786865 1024.903931 566.905762 1028.956299 564.494141 1034.129639 C 551.697937 1028.967163 535.987 1022.650757 524.864685 1014.387512 C 525.842407 1006.424988 526.200073 997.417969 527.136292 989.083618 C 529.633728 965.196106 534.575562 941.631226 541.882568 918.755493 Z"></path><path id="path21" fill="#FFFFFF" stroke="none" d="M 309.049133 997.986694 C 309.552277 995.837463 310.094727 993.693787 310.677124 991.566406 C 314.548798 977.577332 335.37439 922.895264 347.250824 916.874207 C 348.770508 916.103149 349.729126 916.338257 351.263031 916.896118 C 352.586945 918.722656 352.342499 921.369568 352.373138 923.682861 C 352.531708 935.675781 358.199799 946.525818 371.91745 945.087524 C 380.676331 944.168701 384.05365 936.791382 388.98349 930.748413 C 390.259827 929.184326 391.639526 929.512512 393.516846 929.370361 C 401.967834 928.938293 405.340759 927.806274 412.754395 923.518738 C 422.739838 949.730469 427.753876 990.122681 428.618958 1018.16095 C 418.799774 1026.462524 405.93576 1032.97583 394.19986 1038.094482 C 393.034546 1035.786743 391.669586 1033.210938 390.611969 1030.881226 C 371.75943 1001.147705 343.420166 989.225769 309.049133 997.986694 Z"></path><path id="path22" fill="#E8EDEB" stroke="none" d="M 393.516846 929.370361 C 401.967834 928.938293 405.340759 927.806274 412.754395 923.518738 C 422.739838 949.730469 427.753876 990.122681 428.618958 1018.16095 C 418.799774 1026.462524 405.93576 1032.97583 394.19986 1038.094482 C 393.034546 1035.786743 391.669586 1033.210938 390.611969 1030.881226 C 392.261841 1028.74292 394.739044 1019.976563 395.359711 1017.225769 C 399.922607 997.013306 399.379578 973.858643 396.757477 953.361755 C 395.806488 945.929688 393.885406 937.480469 393.552948 930.272644 L 393.516846 929.370361 Z"></path><path id="path23" fill="#E8EDEB" stroke="none" d="M 585.061096 771.728149 C 585.104797 771.96875 585.203247 772.198486 585.192322 772.439026 C 585.08844 775.490662 575.152222 795.221863 572.303162 797.557007 C 556.980469 810.135132 476.79129 817.03125 453.655823 817.419495 C 437.828979 817.698425 422.002136 816.861694 406.293396 814.914856 L 401.957428 806.367188 C 398.580658 800.028931 395.584473 794.248413 392.537994 787.751526 C 457.227844 795.358582 522.883972 792.389038 585.061096 771.728149 Z"></path><path id="path24" fill="#FFFFFF" stroke="none" d="M 275.693115 1043.820313 C 277.006622 1037.181274 278.545471 1032.707764 282.276611 1026.932739 C 301.715942 996.849243 338.34375 992.90625 367.549805 1011.926575 C 377.436798 1019.145264 385.496216 1028.485962 390.142792 1039.866455 C 368.411621 1048.124146 337.480286 1053.89917 314.362885 1051.159424 C 303.928497 1051.640625 284.901489 1048.594604 275.693115 1043.820313 Z"></path><path id="path25" fill="#E8EDEB" stroke="none" d="M 367.549805 1011.926575 C 377.436798 1019.145264 385.496216 1028.485962 390.142792 1039.866455 C 368.411621 1048.124146 337.480286 1053.89917 314.362885 1051.159424 C 316.125916 1051.066406 317.114594 1051.066406 318.820221 1050.661743 C 322.470428 1047.150757 323.448212 1047.380493 328.178406 1045.761719 C 352.095337 1037.574951 358.850525 1035.168701 367.549805 1011.926575 Z"></path><path id="path26" fill="#FFFFFF" stroke="none" d="M 628.983826 993.907043 C 653.542786 993.447632 676.843933 1009.3125 682.23584 1033.77417 C 669.270081 1041.720337 637.580322 1043.91333 622.361511 1044.011719 C 603.265625 1044.071899 586.253235 1041.90625 568.250977 1035.436768 C 571.346191 1027.824219 575.731812 1020.802368 581.20575 1014.671875 C 593.744995 1000.759338 610.713684 994.946045 628.983826 993.907043 Z"></path><path id="path27" fill="#E8EDEB" stroke="none" d="M 737.675232 385.508606 C 755.497009 390.46051 782.254211 398.086182 794.809814 412.122253 C 790.692139 432.401489 779.137207 455.790771 757.903076 462.239014 C 749.60199 455.748108 746.118591 452.997864 736.19873 448.827454 C 730.079529 446.861389 726.104004 446.012634 719.738647 445.339478 C 710.732056 433.487 710.775818 427.657349 711.820313 413.136719 C 719.202759 412.843567 721.182373 412.20105 727.208557 407.989563 C 730.413147 404.283936 732.420044 401.898438 734.56366 397.479126 L 732.977844 391.354675 C 734.547241 389.437866 736.193298 387.491028 737.675232 385.508606 Z"></path><path id="path28" fill="#FFFFFF" stroke="none" d="M 727.208557 407.989563 C 735.95813 418.489502 739.069702 431.169922 737.560425 444.523499 C 737.396301 446.023071 737.522156 447.159485 736.800293 448.450623 L 736.19873 448.827454 C 730.079529 446.861389 726.104004 446.012634 719.738647 445.339478 C 710.732056 433.487 710.775818 427.657349 711.820313 413.136719 C 719.202759 412.843567 721.182373 412.20105 727.208557 407.989563 Z"></path><path id="path29" fill="#E8EDEB" stroke="none" d="M 391.302643 581.016418 C 394.143524 582.564087 407.012482 597.116394 409.601257 600.217224 C 406.009003 613.085083 402.336395 637.618042 400.34259 651.043701 C 394.158295 694.367188 389.749603 737.925781 387.126923 781.610107 C 383.451569 779.849243 379.926575 777.754761 376.391235 775.725769 C 369.524994 771.421875 364.96048 768.173462 358.863678 762.825012 C 364.384094 729.558594 369.371338 696.210083 373.82486 662.790588 C 394.439362 661.636719 398.927368 613.424194 395.117462 598.286743 C 393.103973 590.28595 386.079712 590.958557 391.302643 581.016418 Z"></path><path id="path30" fill="#E8EDEB" stroke="none" d="M 133.419281 452.870483 C 140.602661 441.73938 158.854797 430.721497 171.058243 426.379883 C 176.725204 424.363525 183.58815 422.471863 189.479874 420.582397 C 191.97023 423.149414 193.147583 424.901672 195.214661 427.849854 C 184.148117 434.218201 175.435211 443.442871 177.637894 456.987305 C 178.223038 460.588501 179.560608 464.81311 182.574295 467.056396 C 182.8078 469.014771 188.790848 485.471863 189.92009 487.262878 C 188.529999 488.74054 174.69696 499.381653 173.224304 499.141052 C 153.718246 495.955505 138.933136 469.960876 133.419281 452.870483 Z"></path><path id="path31" fill="#FFFFFF" stroke="none" d="M 565.883179 816.232849 C 566.736206 817.441406 567.283081 818.666382 567.93927 819.989868 C 569.382935 822.532837 574.840454 832.677368 575.174072 835.280457 C 575.321716 835.7453 575.863159 837.571899 576.032593 837.894531 C 578.641113 840.710938 585.121216 858.260132 586.707092 862.755493 C 578.323975 869.974243 569.557983 874.60083 558.921753 877.663269 C 552.157288 878.860962 548.384033 879.429688 541.587219 879.790649 C 539.639954 872.489868 537.32782 862.137451 534.946899 855.350708 C 534.329529 854.185913 534.217407 853.349243 533.881592 852.064087 C 532.538025 846.524292 530.55957 841.268677 528.660889 835.898438 C 545.332581 835.947632 556.690613 830.112549 565.883179 816.232849 Z"></path><path id="path32" fill="#FFFFFF" stroke="none" d="M 565.883179 816.232849 C 566.736206 817.441406 567.283081 818.666382 567.93927 819.989868 C 569.382935 822.532837 574.840454 832.677368 575.174072 835.280457 C 575.321716 835.7453 575.863159 837.571899 576.032593 837.894531 C 567.933838 845.605469 561.973206 848.635193 551.331543 852.228149 C 547.684082 853.228882 536.970215 854.426575 534.946899 855.350708 C 534.329529 854.185913 534.217407 853.349243 533.881592 852.064087 C 532.538025 846.524292 530.55957 841.268677 528.660889 835.898438 C 545.332581 835.947632 556.690613 830.112549 565.883179 816.232849 Z"></path><path id="path33" fill="#E8EDEB" stroke="none" d="M 565.883179 816.232849 C 566.736206 817.441406 567.283081 818.666382 567.93927 819.989868 C 563.466064 828.094482 554.246216 832.786743 546.811829 838.545288 C 546.744019 842.630493 545.841187 846.879639 549.001953 849.761719 C 544.374573 850.8172 538.655029 851.993042 533.881592 852.064087 C 532.538025 846.524292 530.55957 841.268677 528.660889 835.898438 C 545.332581 835.947632 556.690613 830.112549 565.883179 816.232849 Z"></path><path id="path34" fill="#565555" stroke="none" d="M 575.174072 835.280457 C 575.321716 835.7453 575.863159 837.571899 576.032593 837.894531 C 567.933838 845.605469 561.973206 848.635193 551.331543 852.228149 C 547.684082 853.228882 536.970215 854.426575 534.946899 855.350708 C 534.329529 854.185913 534.217407 853.349243 533.881592 852.064087 C 538.655029 851.993042 544.374573 850.8172 549.001953 849.761719 C 560.46936 846.38208 566.052673 842.794556 575.174072 835.280457 Z"></path><path id="path35" fill="#E8EDEB" stroke="none" d="M 534.946899 855.350708 C 536.970215 854.426575 547.684082 853.228882 551.331543 852.228149 C 554.421204 860.108643 555.985229 871.193787 558.921753 877.663269 C 552.157288 878.860962 548.384033 879.429688 541.587219 879.790649 C 539.639954 872.489868 537.32782 862.137451 534.946899 855.350708 Z"></path><path id="path36" fill="#92CBBE" stroke="none" d="M 268.982727 360.356201 C 270.48111 362.742188 269.1539 376.795776 269.046722 380.42865 C 268.882111 388.25116 268.833435 396.075867 268.901276 403.900513 C 269.34256 432.19043 271.810486 460.412964 276.286438 488.350037 C 271.103424 486.178467 268.864624 485.208252 264.590454 481.608215 C 248.035751 465.208008 246.966125 396.937195 255.173203 374.992737 C 258.276001 366.696655 261.47345 363.915222 268.982727 360.356201 Z"></path><path id="path37" fill="#92CBBE" stroke="none" d="M 653.340454 349.137573 C 664.982849 352.562622 668.247498 360.319519 671.178589 371.205627 C 677.571289 394.9422 679.293762 445.728271 666.803833 466.688904 C 664.425049 469.591187 659.120667 474.586304 655.183289 473.271667 C 653.712341 471.0896 655.336426 458.438782 655.566162 454.838684 C 656.260559 444.223267 656.725464 433.594177 656.960571 422.959167 C 657.234009 398.301636 656.025452 373.650146 653.340454 349.137573 Z"></path><path id="path38" fill="#565555" stroke="none" d="M 375.097931 593.490601 C 387.923706 592.65387 389.538544 594.699219 390.030151 607.518005 C 390.413483 617.514893 389.48822 627.254639 386.883575 636.972656 C 385.216797 643.190613 382.4935 650.770264 376.588623 654.117188 C 373.813385 655.664917 371.512787 654.669556 368.748505 653.810974 C 367.386292 653.225769 366.206207 652.673401 364.935852 651.913208 C 358.092072 647.882813 353.150757 641.271118 351.218201 633.565674 C 346.821533 615.677368 356.866058 597.816406 375.097931 593.490601 Z"></path><path id="path39" fill="#92CBBE" stroke="none" d="M 517.99353 1014.650024 C 521.37085 1016.875793 523.944336 1019.489807 528.677307 1022.410156 C 554.437622 1038.592163 584.076721 1047.55542 614.486877 1048.353882 C 630.897766 1048.769531 671.81842 1047.271118 686.173157 1036.125732 C 687.85199 1034.824219 687.545776 1031.778198 687.562134 1029.574219 C 688.234802 1030.339844 688.896484 1031.110962 689.54718 1031.892944 C 692.478333 1035.409302 693.561096 1037.235962 693.15094 1041.851563 C 689.060547 1048.200806 681.924133 1050.306274 674.804199 1051.78833 C 646.067322 1057.760132 613.650269 1063.168701 584.661865 1055.873413 C 564.264465 1050.388306 544.427612 1040.692139 526.227417 1030.110107 C 520.603088 1026.834351 513.535645 1021.507813 517.99353 1014.650024 Z"></path><path id="path40" fill="#E8EDEB" stroke="none" d="M 504.936462 569.121887 C 517.408386 571.090637 530.277344 580.671875 538.779724 589.700806 C 505.330719 586.512512 448.179138 589.667969 414.787018 597.023438 C 414.46109 597.132813 413.886353 597.34613 413.556061 597.373413 C 411.502655 597.542969 396.952698 580.704651 394.239258 577.904663 C 399.12912 576.236694 425.72998 569.433594 429.265869 570.970337 C 432.244049 578.741394 440.540222 579.933594 448.030426 581.596069 C 460.456451 584.357849 501.811218 586.162476 504.936462 569.121887 Z"></path><path id="path41" fill="#92CBBE" stroke="none" d="M 435.22052 1017.559387 C 443.834991 1023.935913 429.272461 1033.276611 424.807465 1036.273438 C 391.961609 1058.405518 356.945892 1069.479736 317.174744 1065.460205 C 305.17749 1064.246094 272.361725 1063.414917 265.432617 1052.504639 C 265.28714 1051.78833 265.164093 1051.066406 265.064026 1050.339111 C 264.464691 1045.707031 267.150787 1042.945313 269.801361 1039.368774 L 270.279877 1046.035156 C 286.03183 1056.321899 324.269012 1056.403931 343.019318 1054.927368 C 368.613403 1053.160889 393.458313 1045.526489 415.635193 1032.625732 C 423.712128 1027.939087 429.121521 1024.712524 435.22052 1017.559387 Z"></path><path id="path42" fill="#E8EDEB" stroke="none" d="M 652.706055 545.936584 C 656.222351 552.748413 658.426147 556.040649 663.29303 561.974182 C 667.596802 566.217957 670.560669 569.067139 675.449524 572.764038 C 661.876709 584.467163 647.450867 595.136719 632.286804 604.679688 C 627.441772 599.708557 625.095764 596.575012 621.38269 590.898438 C 618.544556 586.561707 616.504822 581.836731 614.448669 577.106262 C 628.978333 567.021851 639.937195 558.288269 652.706055 545.936584 Z"></path><path id="path43" fill="#FFFFFF" stroke="none" d="M 652.706055 545.936584 C 656.222351 552.748413 658.426147 556.040649 663.29303 561.974182 C 657.321472 565.064087 651.328064 570.713257 645.810303 574.606995 C 638.624756 579.676575 628.978333 586.638245 621.38269 590.898438 C 618.544556 586.561707 616.504822 581.836731 614.448669 577.106262 C 628.978333 567.021851 639.937195 558.288269 652.706055 545.936584 Z"></path><path id="path44" fill="#E8EDEB" stroke="none" d="M 681.814819 514.227112 C 687.65509 517.436157 692.018921 519.8479 697.361633 523.981689 C 702.704346 528.656982 706.472168 532.092407 710.387573 538.232178 C 698.827209 550.965637 690.876038 559.217957 677.762634 570.822693 C 672.19574 566.819519 669.56543 564.692139 665.092163 559.535156 C 660.214355 553.951538 658.294922 550.457031 654.784119 544.058594 C 661.980652 537.503174 676.094727 522.072571 681.814819 514.227112 Z"></path><path id="path45" fill="#FFFFFF" stroke="none" d="M 681.814819 514.227112 C 687.65509 517.436157 692.018921 519.8479 697.361633 523.981689 C 695.857788 527.834473 693.839966 528.74884 691.767395 531.786194 C 684.920837 541.820801 671.572327 550.046875 665.092163 559.535156 C 660.214355 553.951538 658.294922 550.457031 654.784119 544.058594 C 661.980652 537.503174 676.094727 522.072571 681.814819 514.227112 Z"></path><path id="path46" fill="#FFFFFF" stroke="none" d="M 238.334686 549.970276 C 243.796585 544.481873 246.532471 539.660095 250.187592 533.049988 C 262.293701 545.952393 269.969269 551.753113 282.652832 563.089844 C 280.233032 570.335938 278.1315 575.033569 273.162292 580.912476 C 269.617645 585.566406 267.652802 587.485962 263.092102 591.16095 C 256.677032 587.239868 227.947861 565.698486 224.760284 560.032837 C 230.445313 556.71875 233.428909 554.361694 238.334686 549.970276 Z"></path><path id="path47" fill="#E8EDEB" stroke="none" d="M 224.760284 560.032837 C 230.445313 556.71875 233.428909 554.361694 238.334686 549.970276 C 241.532654 557.768738 265.524475 573.584351 271.690186 579.824219 C 272.288971 580.431213 272.422424 580.513306 273.162292 580.912476 C 269.617645 585.566406 267.652802 587.485962 263.092102 591.16095 C 256.677032 587.239868 227.947861 565.698486 224.760284 560.032837 Z"></path><path id="path48" fill="#FFFFFF" stroke="none" d="M 225.277603 503.708496 C 228.198868 504.5354 232.949326 513.135559 235.320999 515.848572 C 237.961182 518.869507 240.496918 522.639709 243.322464 525.595032 C 244.613037 527.12738 247.492737 530.073364 248.188324 531.776306 C 243.897217 538.745117 242.252838 541.654541 236.468277 547.591431 C 231.809708 552.097656 228.236053 554.427368 222.809677 557.965637 C 217.563232 556.204712 198.700821 531.515991 194.731796 526.226074 C 199.352676 520.657837 201.62645 518.301331 207.312027 513.857971 C 212.987213 509.183289 218.648712 506.54895 225.277603 503.708496 Z"></path><path id="path49" fill="#E8EDEB" stroke="none" d="M 207.312027 513.857971 L 207.908646 514.541016 C 208.635391 515.357483 209.029129 515.432983 209.681519 516.088135 C 215.277954 521.706726 229.439651 544.586853 236.468277 547.591431 C 231.809708 552.097656 228.236053 554.427368 222.809677 557.965637 C 217.563232 556.204712 198.700821 531.515991 194.731796 526.226074 C 199.352676 520.657837 201.62645 518.301331 207.312027 513.857971 Z"></path><path id="path50" fill="#E8EDEB" stroke="none" d="M 705.493286 479.044434 C 713.127258 480.939941 716.140381 482.348633 722.932251 485.977173 C 728.876465 489.892273 733.524658 492.897339 738.096313 498.548218 C 731.523193 510.150146 720.974548 525.431458 712.312439 535.700684 C 708.167358 530.359924 705.247192 526.975342 700.2052 522.513367 C 694.179016 517.856201 690.476868 515.591553 683.75061 512.240356 C 692.37439 500.015991 697.897522 491.988403 705.493286 479.044434 Z"></path><path id="path51" fill="#FFFFFF" stroke="none" d="M 705.493286 479.044434 C 713.127258 480.939941 716.140381 482.348633 722.932251 485.977173 C 719.853455 492.32312 704.629272 516.811096 700.2052 522.513367 C 694.179016 517.856201 690.476868 515.591553 683.75061 512.240356 C 692.37439 500.015991 697.897522 491.988403 705.493286 479.044434 Z"></path><path id="path52" fill="#E8EDEB" stroke="none" d="M 284.989532 564.785156 C 291.234497 569.510193 297.61731 574.054688 304.12973 578.402344 C 306.953644 580.294495 317.781219 586.621887 318.223053 588.984375 C 316.756958 592.867188 315.318756 597.039856 313.350647 600.665588 C 309.768799 606.402344 307.590698 608.491455 304.043304 613.621094 C 298.399292 613.451538 271.997498 596.985168 265.885956 592.768799 C 270.236115 588.727356 273.068787 585.637512 276.833832 581.207825 C 280.89856 575.033569 282.4505 571.752319 284.989532 564.785156 Z"></path><path id="path53" fill="#FFFFFF" stroke="none" d="M 284.989532 564.785156 C 291.234497 569.510193 297.61731 574.054688 304.12973 578.402344 C 306.953644 580.294495 317.781219 586.621887 318.223053 588.984375 C 316.756958 592.867188 315.318756 597.039856 313.350647 600.665588 C 311.506134 599.801575 309.999573 598.357849 307.904602 597.433594 C 299.624786 593.780457 291.952515 590.083618 284.157776 585.429688 C 281.554779 583.876587 279.302856 583.275024 276.833832 581.207825 C 280.89856 575.033569 282.4505 571.752319 284.989532 564.785156 Z"></path><path id="path54" fill="#E8EDEB" stroke="none" d="M 612.058899 578.391418 C 614.213501 583.253113 616.067322 587.710205 618.796082 592.287537 C 622.388855 597.674255 625.205139 601.431274 629.765869 606.216431 C 616.056396 614.479675 600.36731 623.213257 585.405579 629.053955 C 586.083679 622.737488 586.526672 617.088257 584.601746 610.892212 C 582.917419 605.215637 581.80188 603.077332 578.608276 598.0625 C 589.364746 592.243713 602.171936 585.522705 612.058899 578.391418 Z"></path><path id="path55" fill="#FFFFFF" stroke="none" d="M 612.058899 578.391418 C 614.213501 583.253113 616.067322 587.710205 618.796082 592.287537 C 614.629089 597.078125 591.486511 604.264038 584.601746 610.892212 C 582.917419 605.215637 581.80188 603.077332 578.608276 598.0625 C 589.364746 592.243713 602.171936 585.522705 612.058899 578.391418 Z"></path><path id="path56" fill="#FFFFFF" stroke="none" d="M 378.706024 842.974976 C 379.577179 843.516479 385.055481 848.257813 386.490967 849.324219 C 397.611084 857.625732 406.503937 860.004639 419.920288 861.497681 C 418.624237 865.566406 413.568665 884.034424 412.228882 886.325745 L 410.816895 886.577393 C 394.053314 885.83905 379.984009 881.392944 367.622528 869.695313 C 371.116882 859.835205 374.264526 852.46875 378.706024 842.974976 Z"></path><path id="path57" fill="#FFFFFF" stroke="none" d="M 182.528351 466.615601 C 178.687851 451.75647 183.699158 442.38855 195.502853 433.802612 C 197.094193 437.671753 198.000854 439.407471 200.131927 443.030518 C 205.207214 448.451172 208.675858 449.443176 216.062668 449.744568 C 215.994873 461.264465 215.90683 467.437561 210.339386 477.838013 C 201.226166 480.975464 198.199371 482.37439 189.92009 487.262878 C 188.790848 485.471863 182.8078 469.014771 182.574295 467.056396 L 182.528351 466.615601 Z"></path><path id="path58" fill="#E8EDEB" stroke="none" d="M 182.528351 466.615601 C 178.687851 451.75647 183.699158 442.38855 195.502853 433.802612 C 197.094193 437.671753 198.000854 439.407471 200.131927 443.030518 C 197.78978 443.616821 197.806717 443.184204 196.544601 445.278748 C 192.751663 451.575439 187.726685 458.513123 182.893112 464.080872 L 182.528351 466.615601 Z"></path><path id="path59" fill="#E8EDEB" stroke="none" d="M 718.201965 452.464111 C 726.082092 452.859009 730.620911 454.163818 737.7901 457.359741 C 743.329651 460.399841 748.743408 463.401123 753.079956 468.136475 C 750.597229 475.402283 743.849121 488.867432 739.824341 495.993164 C 734.62384 490.432007 729.871704 486.784363 723.320496 482.810242 C 716.889526 479.838501 713.526489 478.264648 706.433838 476.9953 C 710.715698 468.995605 714.642029 460.810547 718.201965 452.464111 Z"></path><path id="path60" fill="#FFFFFF" stroke="none" d="M 718.201965 452.464111 C 726.082092 452.859009 730.620911 454.163818 737.7901 457.359741 C 732.496582 465.021484 730.681091 478.558289 723.320496 482.810242 C 716.889526 479.838501 713.526489 478.264648 706.433838 476.9953 C 710.715698 468.995605 714.642029 460.810547 718.201965 452.464111 Z"></path><path id="path61" fill="#565555" stroke="none" d="M 579.177002 883.241394 C 599.426758 881.431274 608.088806 923.289063 591.437317 932.635132 C 572.99762 934.510925 562.656738 894.58905 579.177002 883.241394 Z"></path><path id="path62" fill="#565555" stroke="none" d="M 371.956268 891.471863 C 392.256348 888.617188 391.330017 929.764038 372.67157 938.710938 C 351.81424 944.092163 354.710907 903.207764 371.956268 891.471863 Z"></path><path id="path63" fill="#E8EDEB" stroke="none" d="M 318.223053 588.984375 C 319.302521 589.159363 319.855408 589.317932 320.942017 589.203125 C 330.345062 594.321899 339.855804 599.238281 349.467743 603.957825 C 348.476288 606.041382 347.297852 608.387451 346.39389 610.482056 C 343.750458 618.559326 343.253906 622.737488 343.991058 631.208557 C 330.988678 626.494507 318.170593 621.758667 305.834778 615.414795 L 305.6073 614.222656 L 304.043304 613.621094 C 307.590698 608.491455 309.768799 606.402344 313.350647 600.665588 C 315.318756 597.039856 316.756958 592.867188 318.223053 588.984375 Z"></path><path id="path64" fill="#FFFFFF" stroke="none" d="M 320.942017 589.203125 C 330.345062 594.321899 339.855804 599.238281 349.467743 603.957825 C 348.476288 606.041382 347.297852 608.387451 346.39389 610.482056 C 341.878052 610.574951 321.057922 603.389038 316.230347 601.365662 C 318.346649 596.875793 319.376373 593.851563 320.942017 589.203125 Z"></path><path id="path65" fill="#565555" stroke="none" d="M 318.223053 588.984375 C 319.302521 589.159363 319.855408 589.317932 320.942017 589.203125 C 319.376373 593.851563 318.346649 596.875793 316.230347 601.365662 C 312.740936 607.228088 310.378021 610.307007 305.834778 615.414795 L 305.6073 614.222656 L 304.043304 613.621094 C 307.590698 608.491455 309.768799 606.402344 313.350647 600.665588 C 315.318756 597.039856 316.756958 592.867188 318.223053 588.984375 Z"></path><path id="path66" fill="#E8EDEB" stroke="none" d="M 781.816772 344.570068 C 810.154419 342.920166 787.400085 393.395081 783.621338 395.022583 L 781.395691 394.022339 C 776.419434 391.280823 771.257141 389.280396 765.963623 387.279419 C 769.474426 379.226624 773.105469 370.537903 775.008484 361.959045 C 776.824097 353.769104 773.493713 349.701965 781.816772 344.570068 Z"></path><path id="path67" fill="#FFFFFF" stroke="none" d="M 741.185974 379.916809 C 742.760925 370.528625 746.402954 348.036194 752.724487 341.507019 C 754.725952 339.441467 757.153931 339.601135 759.806152 339.592957 C 769.468933 342.216858 770.557129 349.301636 768.976746 358.272583 C 767.407288 367.205261 764.684021 377.106384 760.746765 385.290955 L 752.522156 382.738647 C 748.819946 381.740601 744.920959 380.839417 741.185974 379.916809 Z"></path><path id="path68" fill="#E8EDEB" stroke="none" d="M 759.806152 339.592957 C 769.468933 342.216858 770.557129 349.301636 768.976746 358.272583 C 767.407288 367.205261 764.684021 377.106384 760.746765 385.290955 L 752.522156 382.738647 C 752.746338 382.362427 754.047852 374.483032 754.255676 373.395325 C 756.404724 362.025269 759.576477 351.224487 759.806152 339.592957 Z"></path><path id="path69" fill="#E8EDEB" stroke="none" d="M 194.25769 492.898438 C 201.700287 488.318359 206.159821 486.661316 214.198471 483.63324 C 217.35379 488.796875 221.833557 496.610046 225.303864 501.306091 C 217.717438 503.694336 213.980835 505.665222 207.288513 510.073608 C 201.322403 514.769043 197.966415 517.941467 192.850098 523.82312 C 188.439774 517.898254 184.031097 510.797119 180.262222 504.465942 C 185.141205 499.39093 188.379074 496.666382 194.25769 492.898438 Z"></path><path id="path70" fill="#FFFFFF" stroke="none" d="M 194.25769 492.898438 C 201.700287 488.318359 206.159821 486.661316 214.198471 483.63324 C 217.35379 488.796875 221.833557 496.610046 225.303864 501.306091 C 217.717438 503.694336 213.980835 505.665222 207.288513 510.073608 C 205.213776 508.309387 197.85759 496.72821 194.25769 492.898438 Z"></path><path id="path71" fill="#FFFFFF" stroke="none" d="M 134.086426 386.686035 C 138.654785 385.69397 141.426224 386.74292 144.379196 390.365967 C 152.02739 399.747559 156.482025 412.22998 162.906387 422.470276 C 159.982925 423.870239 156.673965 425.360474 153.833084 426.851257 C 151.132751 428.376465 148.061661 430.461182 145.411087 432.167419 C 139.279846 423.132507 126.895386 404.661804 128.790222 393.460144 C 129.364944 390.064087 131.405243 388.456787 134.086426 386.686035 Z"></path><path id="path72" fill="#E8EDEB" stroke="none" d="M 134.086426 386.686035 C 134.843262 394.327515 148.759445 420.376221 153.833084 426.851257 C 151.132751 428.376465 148.061661 430.461182 145.411087 432.167419 C 139.279846 423.132507 126.895386 404.661804 128.790222 393.460144 C 129.364944 390.064087 131.405243 388.456787 134.086426 386.686035 Z"></path><path id="path73" fill="#E8EDEB" stroke="none" d="M 587.286743 865.626587 C 589.381165 867.835938 591.809143 877.564819 592.744324 880.988281 C 589.069458 879.052368 584.672852 876.678894 580.434753 877.291382 C 564.084045 879.659424 564.341003 899.111694 565.571411 910.957031 C 561.497437 910.727295 558.046814 910.251526 554.022034 909.699219 C 551.774475 909.081238 549.33551 908.206238 547.10437 907.462524 C 545.511414 899.188232 543.838623 890.930481 542.086548 882.689087 C 560.463867 881.78125 573.11792 877.548462 587.286743 865.626587 Z"></path><path id="path74" fill="#FFFFFF" stroke="none" d="M 162.523041 379.648254 C 165.374298 378.97998 167.899658 378.411804 170.565536 380.095642 C 179.211716 385.556702 183.976959 405.968262 186.170914 415.702087 C 182.901306 416.271973 179.695694 416.769592 176.490616 417.636963 C 173.601074 418.386169 170.860291 419.363953 168.037445 420.327026 C 163.768204 412.038025 155.309586 394.383301 157.731552 385.077698 C 158.471436 382.236084 160.156296 381.054871 162.523041 379.648254 Z"></path><path id="path75" fill="#E8EDEB" stroke="none" d="M 162.523041 379.648254 C 163.732666 381.609375 165.278061 384.023865 166.019028 386.156128 C 167.840591 391.397339 172.849716 415.059509 176.490616 417.636963 C 173.601074 418.386169 170.860291 419.363953 168.037445 420.327026 C 163.768204 412.038025 155.309586 394.383301 157.731552 385.077698 C 158.471436 382.236084 160.156296 381.054871 162.523041 379.648254 Z"></path><path id="path76" fill="#E8EDEB" stroke="none" d="M 389.003693 822.871948 C 398.848602 837.577271 409.415894 842.0672 426.561188 842.460938 C 424.889465 846.78125 423.173462 854.256958 420.658508 858.090576 C 420.235779 858.735962 419.227966 858.506226 418.208099 858.517212 C 401.391998 856.24762 392.286438 851.473389 379.967041 840.273438 C 382.579895 834.580444 385.649902 828.105469 389.003693 822.871948 Z"></path><path id="path77" fill="#565555" stroke="none" d="M 550.30896 589.662476 C 555.514893 589.099182 560.299805 590.674194 564.641785 593.496094 C 571.898499 598.319519 576.918518 605.844482 578.580933 614.397644 C 580.095703 622.168823 579.259033 629.382019 574.813171 635.971924 C 573.418701 637.825806 571.865662 639.66333 570.394653 641.467957 C 566.818237 634.396912 562.809814 621.293701 560.09198 613.692261 C 557.089844 605.308594 553.458801 597.707031 550.30896 589.662476 Z"></path><path id="path78" fill="#E8EDEB" stroke="none" d="M 366.536469 872.511719 C 382.55307 885.078918 391.499542 888.086731 411.901825 889.869507 C 410.16449 898.012451 408.556244 906.182861 407.078094 914.380493 C 402.926453 915.304688 400.258942 915.824219 396.050934 916.305481 C 395.060059 916.491394 394.524139 916.414795 393.52066 916.387512 C 391.717163 913.390625 395.112549 899.778931 386.304474 890.334412 C 383.627655 887.414063 379.886139 885.696899 375.92749 885.576538 C 368.938782 885.423462 364.401062 890.039063 359.814087 894.474243 C 362.121246 887.146057 364.134186 879.921875 366.536469 872.511719 Z"></path><path id="path79" fill="#92CBBE" stroke="none" d="M 454.601318 118.013428 C 455.581848 118.929993 455.840485 120.660828 455.910461 121.962952 C 457.933807 159.525085 462.08551 197.348572 463.790039 234.881714 L 463.067627 235.601929 L 452.94165 235.769836 C 453.962616 206.668457 453.176788 176.737976 454.380951 147.58136 C 454.665894 140.683044 453.62796 123.782959 454.601318 118.013428 Z"></path><path id="path80" fill="#E8EDEB" stroke="none" d="M 199.884201 432.349487 C 201.816208 427.456665 203.940704 422.902832 207.26445 418.793579 C 214.948746 409.293274 220.676987 409.457886 229.428726 416.71167 C 230.588043 418.152649 233.345245 421.449219 232.047028 423.265381 C 226.790176 430.616516 221.345215 437.479797 216.321884 445.052856 C 212.936356 446.496094 209.538788 445.021179 206.635025 443.083008 C 203.032944 439.169067 202.019638 437.235901 199.884201 432.349487 Z"></path><path id="path81" fill="#FFFFFF" stroke="none" d="M 206.635025 443.083008 C 208.094025 435.490784 222.259018 419.646179 229.428726 416.71167 C 230.588043 418.152649 233.345245 421.449219 232.047028 423.265381 C 226.790176 430.616516 221.345215 437.479797 216.321884 445.052856 C 212.936356 446.496094 209.538788 445.021179 206.635025 443.083008 Z"></path><path id="path82" fill="#92CBBE" stroke="none" d="M 451.892792 82.988281 C 459.883331 81.966675 467.226959 87.515259 468.427826 95.481079 C 469.628143 103.447449 464.246613 110.913879 456.309692 112.293152 C 451.014587 113.213501 445.636322 111.195007 442.254059 107.017944 C 438.871826 102.840942 438.015991 97.160522 440.016907 92.171997 C 442.017822 87.18396 446.562134 83.669678 451.892792 82.988281 Z"></path><path id="path83" fill="#FFFFFF" stroke="none" d="M 704.558167 375.617249 C 707.926758 374.159302 710.190674 373.044739 714.013123 374.415222 C 720.044861 376.577576 725.168823 389.255798 727.476563 395.329346 C 727.864807 396.366272 728.220276 397.41626 728.537415 398.477173 C 726.125793 401.877686 724.266479 404.217224 720.985413 406.88208 C 717.644165 408.254211 715.752136 408.641968 712.208557 409.443115 C 706.838501 401.252014 701.506714 393.220642 698.034241 384.024353 C 699.882629 379.506104 700.648193 378.539795 704.558167 375.617249 Z"></path><path id="path84" fill="#E8EDEB" stroke="none" d="M 704.558167 375.617249 C 707.926758 374.159302 710.190674 373.044739 714.013123 374.415222 C 720.044861 376.577576 725.168823 389.255798 727.476563 395.329346 C 727.864807 396.366272 728.220276 397.41626 728.537415 398.477173 C 726.125793 401.877686 724.266479 404.217224 720.985413 406.88208 C 720.072205 399.948853 708.342346 382.457581 704.558167 375.617249 Z"></path><path id="path85" fill="#92CBBE" stroke="none" d="M 453.302032 242.478394 C 470.013123 240.18042 483.959381 243.543701 496.926239 254.237793 C 485.934601 254.157959 474.942413 254.226318 463.952972 254.442871 C 449.989227 254.770996 436.036957 255.468262 422.110413 256.533569 C 430.948547 246.969849 440.751343 243.953308 453.302032 242.478394 Z"></path><path id="path86" fill="#E8EDEB" stroke="none" d="M 118.166611 409.093689 C 126.419083 408.955872 129.116135 417.768738 133.497467 423.677185 C 136.417099 427.614685 138.812286 430.996521 141.998764 434.790222 C 138.270355 438.161743 135.704559 440.42688 132.424011 444.298767 L 129.415253 448.27124 C 128.064545 446.864685 126.749931 445.423096 125.473587 443.948242 C 118.406677 435.715576 107.027878 418.344604 118.166611 409.093689 Z"></path><path id="path87" fill="#E8EDEB" stroke="none" d="M 359.526459 769.289063 C 361.392273 770.257019 367.2146 774.796143 369.378448 776.316406 C 375.963593 780.942993 380.376099 783.321899 387.708221 786.471863 C 391.822723 796.671143 396.052582 803.299194 400.308136 812.771057 C 393.808319 810.446838 376.998779 801.571045 372.117065 796.550781 C 367.012787 791.300781 361.466125 776.557007 359.526459 769.289063 Z"></path><path id="path88" fill="#565555" stroke="none" d="M 498.019379 564.484375 C 501.208038 567.388306 497.337463 572.523438 494.201294 573.573425 C 478.454285 578.839844 455.631042 578.560913 439.905365 573.34375 C 437.890228 572.157043 435.536041 570.396118 435.256592 567.907776 C 437.316589 566.032043 450.76355 568.476563 454.80423 568.596863 C 468.841248 569.028931 484.639648 569.061707 498.019379 564.484375 Z"></path><path id="path89" fill="#565555" stroke="none" d="M 560.573242 810.085938 L 562.306763 810.014893 C 562.448975 812.153076 561.273193 813.700806 559.982666 815.516357 C 554.33374 823.358521 545.791992 828.625 536.25 830.150757 C 533.906799 830.511719 528.535095 830.954651 526.626587 829.521851 C 524.50592 825.743042 523.364624 822.598511 521.948303 818.529663 C 534.107483 815.467163 548.116089 812.864075 560.573242 810.085938 Z"></path><path id="path90" fill="#E8EDEB" stroke="none" d="M 801.568909 365.966553 C 817.810242 371.213257 806.496033 398.31366 798.408142 406.007629 L 797.473022 405.919617 C 794.662231 402.404846 791.517883 400.241394 787.952393 397.595093 C 795.613708 387.716309 798.862 377.83429 801.568909 365.966553 Z"></path><path id="path91" fill="#565555" stroke="none" d="M 392.785706 816.8125 C 404.900024 823.451538 420.437592 823.823486 434.212128 824.769531 L 429.760254 834.307007 C 429.199188 835.816406 429.176208 836.275757 427.843567 837.194519 C 415.721588 840.010986 396.722443 829.150024 392.785706 816.8125 Z"></path><path id="path92" fill="#565555" stroke="none" d="M 207.288513 510.073608 C 213.980835 505.665222 217.717438 503.694336 225.303864 501.306091 L 224.796371 503.365112 L 225.277603 503.708496 C 218.648712 506.54895 212.987213 509.183289 207.312027 513.857971 C 201.62645 518.301331 199.352676 520.657837 194.731796 526.226074 C 194.374176 525.523315 193.399124 524.474976 192.850098 523.82312 C 197.966415 517.941467 201.322403 514.769043 207.288513 510.073608 Z"></path><path id="path93" fill="#565555" stroke="none" d="M 681.814819 514.227112 L 683.181946 513.788513 L 683.75061 512.240356 C 690.476868 515.591553 694.179016 517.856201 700.2052 522.513367 C 705.247192 526.975342 708.167358 530.359924 712.312439 535.700684 C 710.923462 536.994629 710.81958 536.686157 710.387573 538.232178 C 706.472168 532.092407 702.704346 528.656982 697.361633 523.981689 C 692.018921 519.8479 687.65509 517.436157 681.814819 514.227112 Z"></path><path id="path94" fill="#565555" stroke="none" d="M 236.468277 547.591431 C 242.252838 541.654541 243.897217 538.745117 248.188324 531.776306 L 250.187592 533.049988 C 246.532471 539.660095 243.796585 544.481873 238.334686 549.970276 C 233.428909 554.361694 230.445313 556.71875 224.760284 560.032837 C 224.259369 558.878906 223.830643 558.731262 222.809677 557.965637 C 228.236053 554.427368 231.809708 552.097656 236.468277 547.591431 Z"></path><path id="path95" fill="#565555" stroke="none" d="M 652.706055 545.936584 C 653.668518 545.345947 653.996643 544.872864 654.784119 544.058594 C 658.294922 550.457031 660.214355 553.951538 665.092163 559.535156 C 669.56543 564.692139 672.19574 566.819519 677.762634 570.822693 C 676.854858 570.975769 676.630615 570.795288 676.061951 571.577393 C 675.536926 572.304688 675.706482 571.987549 675.449524 572.764038 C 670.560669 569.067139 667.596802 566.217957 663.29303 561.974182 C 658.426147 556.040649 656.222351 552.748413 652.706055 545.936584 Z"></path><path id="path96" fill="#565555" stroke="none" d="M 612.058899 578.391418 C 612.709656 577.964844 613.7323 577.478088 614.448669 577.106262 C 616.504822 581.836731 618.544556 586.561707 621.38269 590.898438 C 625.095764 596.575012 627.441772 599.708557 632.286804 604.679688 L 629.765869 606.216431 C 625.205139 601.431274 622.388855 597.674255 618.796082 592.287537 C 616.067322 587.710205 614.213501 583.253113 612.058899 578.391418 Z"></path><path id="path97" fill="#8F9090" stroke="none" d="M 548.077759 914.511719 C 550.440186 914.19458 563.138 916.201538 566.435425 916.34375 C 566.900269 916.693726 567.370605 917.043762 567.835388 917.393799 C 561.453674 918.810181 553.972839 917.049194 548.077759 914.511719 Z"></path><path id="path98" fill="#95A7A4" stroke="none" d="M 404.74527 920.193726 L 405.005554 920.516357 C 401.010864 922.397705 396.136261 923.086731 391.782806 923.52417 L 391.239227 922.25 L 391.793732 921.380493 C 394.273682 920.762512 401.599792 920.510925 404.74527 920.193726 Z"></path><path id="path99" fill="#5FAFD5" stroke="none" d="M 307.73288 340.909302 L 309.493195 340.831116 C 316.832428 345.343933 318.622284 364.750854 316.283966 372.895508 C 313.210114 373.697144 310.063568 374.07074 306.917542 374.524597 C 304.736176 374.706726 303.229065 374.99823 301.110046 374.452942 C 300.85083 372.602356 301.985504 369.329285 302.406586 367.340332 C 304.439789 357.733337 301.320557 350.765076 296.743439 342.723267 C 300.398041 342.067566 304.061371 341.462708 307.73288 340.909302 Z"></path><path id="path" fill="#E47C93" stroke="none" d="M 640.899658 465.197021 C 642.004272 465.851624 644.563477 469.496582 646.018127 470.922852 C 652.449097 477.212402 659.782288 478.25531 668.165466 479.963196 C 666.082031 484.455811 663.790649 488.327637 661.040039 492.425903 C 648.369629 489.356873 641.818359 486.885559 633.150818 476.343994 C 635.589783 472.216187 637.952148 468.952942 640.899658 465.197021 Z"></path></g><g id="confetti"><g class="confetti_1"><path id="path100" fill="#373739" stroke="none" d="M 249.21257 226.203918 C 249.79332 226.306152 250.374069 226.408447 250.954819 226.51123 C 253.606476 229.400391 256.159149 238.570923 259.221497 241.137939 C 263.371002 244.616638 271.396515 247.312744 276.168335 249.424194 C 277.434814 253.076233 269.918396 264.954407 266.090454 266.509155 C 263.411469 265.960083 260.784943 265.181885 258.238831 264.183838 C 248.30481 260.357361 241.266327 254.386536 236.969757 244.623779 C 239.595169 238.505859 244.545761 230.90155 249.21257 226.203918 Z"></path><path id="path101" fill="#5FAFD5" stroke="none" d="M 249.465759 231.129578 C 250.10939 231.946655 251.537216 235.361877 252.419281 236.790894 C 257.86261 245.609741 262.856964 248.741699 272.801361 251.197205 C 271.523956 253.993896 268.343475 262.459534 265.085907 262.679932 C 254.113403 259.787476 246.263428 255.056519 240.371155 245.115417 C 242.889374 239.951782 245.901947 235.619995 249.465759 231.129578 Z"></path></g><g class="confetti_1"><path id="path102" fill="#565555" stroke="none" d="M 764.673096 652.077332 C 769.173706 653.635925 773.592163 665.464844 775.500671 669.938293 C 766.909729 680.525757 756.169617 684.474243 743.231201 686.519531 C 736.122192 686.082031 734.705872 674.980469 732.994263 669.271118 C 731.796631 665.278931 742.832031 666.842957 745.927185 665.995239 C 754.452515 663.660156 758.701538 658.120361 764.673096 652.077332 Z"></path><path id="path103" fill="#E47C93" stroke="none" d="M 764.951965 656.616455 C 767.112061 658.142151 770.633728 666.3125 771.95166 669.101563 C 764.290283 677.862549 754.321289 681.493774 743.138245 683.364014 L 741.831299 683.079712 C 739.518066 681.160156 737.467407 673.159424 736.49408 669.971069 C 749.066101 670.408569 756.935242 666.060913 764.951965 656.616455 Z"></path></g><g class="confetti_1"><path id="path104" fill="#565555" stroke="none" d="M 682.263184 248.591858 C 686.468445 248.668457 687.791809 250.747131 690.657288 253.121643 C 700.210693 261.025085 700.992737 264.851013 694.430542 275.695007 C 690.143311 282.780273 685.54425 286.847961 678.741455 291.690552 C 677.79541 292.232483 675.635437 293.321838 674.612793 292.409668 C 671.216919 289.376709 666.207764 284.819092 664.332031 280.717529 C 662.986816 277.772583 673.169128 273.486694 674.033142 270.289124 C 679.933594 262.277405 679.064148 254.863953 682.263184 248.591858 Z"></path><path id="path105" fill="#E47C93" stroke="none" d="M 684.510742 252.812134 C 688.458923 255.871338 692.303284 259.851501 695.535217 263.650085 C 692.248657 275.326965 687.354309 281.45575 677.330627 288.25238 C 674.339355 289.63208 669.707581 282.676392 667.826416 280.368591 C 679.075073 273.337402 681.1203 264.923218 684.510742 252.812134 Z"></path></g><g class="confetti_1"><path id="path106" fill="#373739" stroke="none" d="M 654.434143 730.553894 C 660.093994 733.107849 655.008362 741.540588 657.939453 747.78595 C 660.6026 753.457031 665.956238 757.03363 669.067749 761.714844 C 668.417053 766.035156 657.666016 772.909302 653.526367 772.914795 C 646.001709 767.331238 634.025818 751.078125 637.028015 741.086731 C 637.941162 738.057007 651.092896 731.773438 654.434143 730.553894 Z"></path><path id="path107" fill="#92CBBE" stroke="none" d="M 652.547546 734.890625 C 653.067017 734.989014 652.727966 734.8797 653.400574 735.546875 C 653.373291 736.635132 653.378723 737.717957 653.416992 738.800781 C 653.876343 750.099243 657.518372 754.966431 665.704651 762.529663 C 663.282166 764.35083 656.856689 769.639038 654.2099 769.365601 C 645.072083 760.719543 641.862122 754.676514 639.264587 742.503113 C 643.032349 740.064087 648.51178 737.160156 652.547546 734.890625 Z"></path></g><g class="confetti_1"><path id="path108" fill="#373739" stroke="none" d="M 749.94104 187.772278 C 752.795532 188.501221 757.235962 191.781433 759.609253 193.642944 C 771.678223 203.109924 750.635559 228.130005 740.267273 228.221313 C 736.149536 225.379211 727.13208 219.693909 725.316467 215.608765 C 725.945374 211.957825 732.791931 211.552063 737.029968 208.753113 C 746.490417 202.505066 745.232666 195.678955 749.94104 187.772278 Z"></path><path id="path109" fill="#5FAFD5" stroke="none" d="M 751.330017 191.888611 C 754.879089 194.678772 757.378174 197.09375 760.615479 200.200562 C 758.646851 207.483276 749.235596 226.393677 740.136047 224.182678 C 736.920593 222.102356 731.966187 218.246338 729.040527 215.76239 C 743.499146 211.309753 746.419312 205.57959 751.330017 191.888611 Z"></path></g><g class="confetti_2"><path id="path110" fill="#565555" stroke="none" d="M 256.349487 113.341492 C 260.133118 113.164307 271.806671 113.025391 274.328735 114.764465 C 283.247803 120.915161 283.466003 144.990234 278.613251 152.795227 C 273.873749 152.050964 265.730652 151.460876 261.731537 149.364685 C 260.561279 147.637085 263.223877 135.812012 262.256531 131.538208 C 260.917297 125.624268 256.40799 121.366882 254.846725 116.17865 C 255.159546 114.054077 254.7379 114.998535 256.349487 113.341492 Z"></path><path id="path111" fill="#E47C93" stroke="none" d="M 259.237396 116.720642 C 262.808289 116.420959 269.203125 116.936096 272.977448 117.1297 C 273.160126 117.384521 273.33728 117.643738 273.509003 117.90625 C 279.880859 127.695862 279.004272 138.181641 276.866638 148.994995 C 272.631866 148.309204 268.364807 147.790771 264.065491 147.082581 C 265.576416 141.594666 266.601776 136.509277 265.427155 130.807007 C 264.460327 126.114319 260.215668 120.991699 259.237396 116.720642 Z"></path></g><g class="confetti_2"><path id="path112" fill="#373739" stroke="none" d="M 108.954971 208.1297 C 111.723648 208.462158 112.91523 210.438599 114.822639 212.373413 C 119.19577 216.810242 124.078033 220.16803 129.537216 223.112976 C 132.656418 224.795166 136.898865 224.29364 138.949005 227.224365 C 139.376633 230.662048 136.204376 239.235962 134.671555 242.429138 C 132.936951 243.753662 133.626526 243.36322 131.115952 243.493347 C 119.140541 240.109314 107.129044 234.749939 100.044632 224.026245 C 101.767746 219.113098 105.588028 212.151428 108.954971 208.1297 Z"></path><path id="path113" fill="#92CBBE" stroke="none" d="M 109.800385 212.507996 C 110.290909 212.823486 115.219109 217.476868 116.033905 218.210815 C 122.821373 224.32373 127.45919 226.016296 135.75322 228.916382 C 135.019348 231.366943 133.209824 238.975647 131.39212 239.988464 C 120.143463 236.987732 111.630142 232.367188 103.820068 223.641785 C 105.218353 219.991943 107.668236 215.782654 109.800385 212.507996 Z"></path></g><g class="confetti_2"><path id="path114" fill="#565555" stroke="none" d="M 767.948669 554.367188 C 771.158691 554.739075 774.625732 565.118713 778.2677 568.788269 C 783.030762 573.589844 791.299133 574.880432 794.634888 577.986755 C 793.820068 582.837524 785.655579 587.617188 781.701904 590.378906 C 776.747498 593.534363 768.76355 586.228088 765.548096 582.815613 C 760.32019 577.259399 757.536743 571.216431 755.239929 564.085144 C 758.5047 560.360962 763.754395 557.041443 767.948669 554.367188 Z"></path><path id="path115" fill="#F0DA66" stroke="none" d="M 767.024536 558.796875 C 768.140137 559.469543 769.233826 561.553101 769.911926 562.761719 C 775.23822 572.310181 780.187134 575.859375 790.582703 579.1297 C 787.323486 582.323425 784.698608 584.232056 781.072998 586.950012 C 772.378174 591.592957 761.309998 571.210938 759.029663 564.763245 C 761.468567 562.685181 764.399658 560.678101 767.024536 558.796875 Z"></path></g><g class="confetti_2"><path id="path116" fill="#565555" stroke="none" d="M 372.404694 174.32135 C 378.715881 174.075806 386.928955 179.383728 391.524658 183.375366 C 391.560791 184.347717 391.584839 185.320618 391.597382 186.293518 C 391.729736 198.67041 387.053101 206.051025 378.700012 214.544556 C 377.501312 215.725769 377.557098 215.783203 375.91217 216.410461 C 371.211487 215.879456 365.936584 210.732788 362.809692 207.330688 C 370.098083 198.200073 373.257233 193.84314 371.972137 182.153687 C 371.747406 180.109436 371.869904 176.224487 372.404694 174.32135 Z"></path><path id="path117" fill="#F0DA66" stroke="none" d="M 375.426575 177.79834 C 380.032135 180.071167 384.975067 182.152039 388.570068 185.784363 C 388.050568 196.759583 385.551453 201.802368 378.510803 210.164612 C 374.052917 214.817444 371.587708 210.710938 367.596283 207.11853 C 375.759094 196.654602 376.126556 190.573364 375.426575 177.79834 Z"></path></g><g class="confetti_3"><path id="path118" fill="#565555" stroke="none" d="M 178.674164 612.368774 C 182.552963 613.965698 185.724136 618.039856 192.228882 619.97583 C 199.363602 622.097656 208.121368 619.013306 212.795273 621.135193 C 216.010193 624.952393 210.579987 633.363281 208.057922 636.939819 C 200.168549 643.398438 181.404587 636.759399 174.377594 630.65625 C 174.544922 624.667969 175.231781 617.389038 178.674164 612.368774 Z"></path><path id="path119" fill="#E47C93" stroke="none" d="M 180.006836 617.132019 C 190.278275 624.394531 197.895325 624.782776 210.143616 623.464844 C 208.812027 627.8125 207.969345 629.890625 206.037872 634.019531 C 203.365982 636.589844 196.073227 636.425781 192.635193 635.539856 C 177.766418 631.711731 175.656677 631.110168 180.006836 617.132019 Z"></path></g><g class="confetti_3"><path id="path120" fill="#373739" stroke="none" d="M 654.36853 54.005859 C 655.954407 54.300171 670.86145 59.090942 670.008301 61.799072 C 669.494324 63.434814 663.692261 67.998413 662.303284 70.078735 C 657.305054 77.55835 658.037842 85.101929 656.709045 93.453857 C 651.54126 93.675903 645.312744 90.047363 640.948853 87.617065 C 640.555115 74.473999 642.387085 61.685913 654.36853 54.005859 Z"></path><path id="path121" fill="#92CBBE" stroke="none" d="M 654.953613 57.30481 C 658.628479 58.167236 662.565735 60.133301 665.945313 61.771118 L 665.62262 62.056152 C 656.528503 70.181519 654.663818 77.18103 653.947449 89.051514 C 652.738892 90.718384 645.607971 86.520508 644.109619 85.715576 C 644.033081 74.448853 645.843201 64.74231 654.953613 57.30481 Z"></path></g><g class="confetti_3"><path id="path122" fill="#565555" stroke="none" d="M 288.497009 670.058594 C 294.666534 668.560181 305.088348 693.667236 285.898376 706.518799 C 283.470367 706.021118 280.395996 705.124207 277.938477 704.473511 C 274.03067 703.341431 271.263641 701.985168 267.797729 699.939819 C 270.455933 696.942993 274.240143 694.553162 276.321442 691.124268 C 284.128754 678.261719 269.011169 673.465576 288.497009 670.058594 Z"></path><path id="path123" fill="#F0DA66" stroke="none" d="M 288.739777 673.416382 L 289.650269 673.853882 C 295.06134 682.396118 296.324554 694.596863 286.982758 701.575012 C 284.839661 703.177368 282.723358 702.362427 280.306305 701.75 C 278.017761 700.93512 275.671783 700.027344 273.388702 699.179688 C 281.767487 691.758667 282.787903 685.743042 281.428986 674.974976 C 283.939026 674.253174 286.183289 673.881226 288.739777 673.416382 Z"></path></g><g class="confetti_3"><path id="path124" fill="#373739" stroke="none" d="M 844.715088 445.174316 C 849.144653 445.672485 858.140259 445.751282 860.147217 449.966003 C 859.819031 453.409119 857.035583 456.19928 856.018494 459.619446 C 854.038879 466.292419 855.777893 470.841858 858.577759 476.627808 C 857.139526 477.354065 855.515381 478.025085 854.027954 478.676941 L 845.469788 481.575928 C 843.801941 480.09552 842.057434 478.264038 840.739563 476.453369 C 836.955383 471.198975 835.47345 464.629944 836.632751 458.259399 C 837.58429 452.914185 840.225525 448.302429 844.715088 445.174316 Z"></path><path id="path125" fill="#92CBBE" stroke="none" d="M 845.579163 448.33905 C 849.713318 448.924744 852.901489 449.47113 856.964539 450.378357 C 853.694397 455.921997 850.670288 460.863586 851.92804 467.843933 C 852.360107 470.249634 853.492065 472.683777 853.360779 474.999756 L 852.130371 475.831543 L 846.011169 477.87085 C 838.426392 468.388611 836.676514 457.905518 845.579163 448.33905 Z"></path></g><g class="confetti_3"><path id="path126" fill="#565555" stroke="none" d="M 833.160217 278.508118 C 845.267456 277.226257 856.658325 281.157715 854.049866 295.398926 C 853.677979 297.431641 853.453796 299.49176 851.692871 300.799316 C 849.932068 300.489197 843.812866 297.424561 840.909058 296.39093 C 830.442444 294.22583 824.634888 299.832947 819.068054 297.856567 C 818.291504 297.042297 817.646179 296.652344 817.547791 295.450867 C 816.454102 282.530396 821.993652 280.213806 833.160217 278.508118 Z"></path><path id="path127" fill="#F0DA66" stroke="none" d="M 834.571167 281.791565 C 840.876282 281.593079 844.709656 282.778137 850.27655 285.405884 L 850.517212 296.833923 C 845.491638 294.341248 843.173035 293.546082 837.638916 292.784302 C 831.68927 292.386719 826.259033 293.632507 820.642944 295.362793 C 821.189819 292.146118 821.386658 289.637573 821.63269 286.378235 C 826.554321 283.292725 828.878418 282.585083 834.571167 281.791565 Z"></path></g><g class="confetti_4"><path id="path128" fill="#565555" stroke="none" d="M 527.554077 158.47998 C 531.014526 158.151306 542.090881 160.402832 543.530762 163.803833 C 541.634277 167.659302 535.224121 169.813416 533.533813 174.986877 C 531.902039 179.979309 534.279175 187.689148 532.164551 190.374878 C 528.473328 191.728333 526.145935 192.314087 522.292847 193.220764 C 518.282837 187.118225 515.46106 177.965698 517.229065 170.645203 C 518.703308 164.542664 522.56189 161.608093 527.554077 158.47998 Z"></path><path id="path129" fill="#F0DA66" stroke="none" d="M 528.419739 161.800659 C 531.957275 161.687439 535.15033 163.034363 538.478394 164.176819 C 529.663269 171.871338 528.314148 176.3125 529.853577 187.661804 L 523.585022 189.597717 C 519.465637 178.948975 517.0896 168.915466 528.419739 161.800659 Z"></path></g><g class="confetti_4"><path id="path130" fill="#373739" stroke="none" d="M 142.115784 697.921875 L 143.793518 697.839844 C 148.58609 700.503174 150.132019 716.351563 147.541595 721.202393 C 144.344742 727.18512 141.375366 728.853149 135.561829 731.111694 C 133.775284 730.696106 131.76561 729.946899 130.005859 729.35083 C 127.00695 728.125854 122.67646 726.889893 121.214195 724.150024 C 122.123055 721.984375 127.066002 719.824219 129.281281 717.193726 C 133.916916 711.686707 133.411621 707.196899 133.130539 700.661682 C 136.740829 699.239868 138.31958 698.796875 142.115784 697.921875 Z"></path><path id="path131" fill="#5FAFD5" stroke="none" d="M 136.42366 702.553955 L 142.922943 701.033569 C 145.03978 707.940674 147.040146 715.618774 143.314484 722.378174 C 141.150055 726.299194 136.516617 727.896118 132.296051 726.840576 L 129.982895 726.113281 L 125.935677 723.849243 C 135.187241 718.287476 137.265244 713.119507 136.42366 702.553955 Z"></path></g><g class="confetti_4"><path id="path132" fill="#373739" stroke="none" d="M 83.708664 521.070679 C 87.506523 521.731323 90.963684 530.316162 91.884026 533.785522 C 94.431244 543.392517 91.879654 549.899231 84.042786 555.876587 C 81.838997 555.789063 79.712303 555.559387 77.519989 555.351563 L 77.094002 555.302307 C 74.554985 555.02887 70.26387 554.924988 68.693871 552.972656 C 68.88855 550.91095 72.278999 547.53125 73.653229 545.169861 C 77.569756 538.437805 75.945618 533.352966 74.255859 526.431702 C 77.822403 523.976807 79.781204 522.992981 83.708664 521.070679 Z"></path><path id="path133" fill="#92CBBE" stroke="none" d="M 83.110954 524.927795 C 89.871635 528.110107 93.837921 553.404663 80.281029 552.338257 L 72.766251 551.403137 C 80.773727 543.061096 80.354294 538.729309 78.226517 527.927979 L 83.110954 524.927795 Z"></path></g><g class="confetti_4"><path id="path134" fill="#373739" stroke="none" d="M 632.029785 142.264587 C 635.917908 142.109863 644.257324 142.372864 647.002502 145.313416 C 646.745483 147.429321 639.609131 153.936584 638.755981 156.621704 C 637.470886 160.6828 639.762207 166.683105 639.54895 170.955872 C 639.499756 172.021179 638.302124 172.566406 637.377991 173.233032 C 635.010071 174.449829 632.325134 175.491089 629.853333 176.521423 C 620.201477 167.838135 618.167236 149.188599 632.029785 142.264587 Z"></path><path id="path135" fill="#5FAFD5" stroke="none" d="M 633.052429 145.622437 C 636.125671 145.489502 639.122375 145.911194 642.184753 146.23877 C 632.85553 156.206116 636.295166 159.599976 635.901489 170.087402 L 634.419495 171.122681 C 633.342224 171.729126 632.817261 171.928223 631.690735 172.384827 C 626.058228 170.775391 624.455994 157.517517 626.380798 152.791443 C 628.092468 148.600159 629.279175 147.592834 633.052429 145.622437 Z"></path></g><g class="confetti_4"><path id="path136" fill="#565555" stroke="none" d="M 189.611664 322.466492 C 193.098923 324.72998 197.279007 332.68811 203.822586 334.222656 C 205.02182 334.815491 209.480286 336.30188 209.711594 337.806885 C 210.377655 342.129944 206.701202 351.722107 202.715225 353.157654 C 192.906967 349.760986 185.965286 345.551147 180.562439 336.475769 C 183.214645 331.405701 185.506485 326.513367 189.611664 322.466492 Z"></path><path id="path137" fill="#E47C93" stroke="none" d="M 189.745636 327.062439 C 192.895493 331.007019 194.579788 332.448608 198.604019 335.384216 L 206.609879 339.654175 C 205.148148 343.164612 203.944 346.226563 202.688431 349.812439 C 197.368698 347.378784 193.001022 345.569214 188.685852 341.469849 C 186.939224 339.910156 185.616959 337.983521 184.190781 336.109924 L 189.745636 327.062439 Z"></path></g><path class="confetti_4" fill="#E47C93" stroke="none" d="M 189.745636 327.062439 C 192.895493 331.007019 194.579788 332.448608 198.604019 335.384216 C 195.501221 336.52832 193.093994 337.104675 190.765518 339.425598 L 188.685852 341.469849 C 186.939224 339.910156 185.616959 337.983521 184.190781 336.109924 L 189.745636 327.062439 Z"></path><g class="confetti_5"><path id="path139" fill="#565555" stroke="none" d="M 634.113281 652.307068 C 639.051331 654.078918 643.458923 655.719543 647.800842 658.699951 C 645.137695 662.402344 642.649536 665.907837 640.779358 670.102295 C 639.346619 673.317932 638.728699 675.642151 636.934998 678.726563 C 626.878479 676.364075 618.298462 673.263306 625.150452 662.817993 C 628.447937 657.792114 628.786987 655.752319 634.113281 652.307068 Z"></path><path id="path140" fill="#F0DA66" stroke="none" d="M 634.621826 655.615601 C 637.536499 656.884399 640.101257 658.109375 642.950317 659.536743 C 638.805237 665.557861 637.405273 668.16095 634.960876 675.040649 C 631.455566 673.307007 629.35022 672.377319 625.686401 671.048462 C 627.873779 664.475037 629.503357 660.318726 634.621826 655.615601 Z"></path></g><g class="confetti_5"><path id="path141" fill="#373739" stroke="none" d="M 292.714813 832.693726 C 300.166718 832.584351 307.302521 844.369507 309.342255 850.653076 C 306.689484 853.272705 302.483704 856.739868 299.566833 859.266357 C 298.565552 860.042969 298.229248 860.179688 297.14209 860.78125 C 296.741272 860.732056 296.339874 860.682739 295.938477 860.633545 C 294.592682 858.041382 291.119659 851.670288 289.683655 849.745239 C 287.700775 847.082031 286.193115 845.764099 284.521423 844.096069 C 286.586304 840.185913 289.880524 836.067993 292.714813 832.693726 Z"></path><path id="path142" fill="#5FAFD5" stroke="none" d="M 288.507385 843.308594 C 290.2901 840.929688 292.102905 838.441406 293.927734 836.111694 C 299.978607 840.530457 302.288483 842.707031 305.926086 849.247681 C 304.201904 851.079712 303.320404 852.091431 301.237427 853.589844 L 297.13446 856.80542 C 295.577576 852.764038 294.454895 850.795288 291.98642 847.289795 L 288.507385 843.308594 Z"></path><path id="path143" fill="#7DBEE4" stroke="none" d="M 293.875793 845.441406 C 294.937225 844.19458 295.704437 843.248413 296.669067 841.925049 C 297.282654 846.360168 300.016876 847.136719 301.73288 850.986694 L 300.530914 851.314819 C 299.381439 850.226563 297.283173 848.553101 295.902954 847.678162 C 294.668701 846.890625 295.917145 848.924927 293.78064 846.786743 L 293.875793 845.441406 Z"></path></g><g class="confetti_5"><path id="path144" fill="#565555" stroke="none" d="M 101.33136 352.840454 C 107.733307 351.892761 110.03772 357.670471 113.405754 362.509766 C 106.142532 368.890137 104.300201 368.657715 96.856514 377.038574 C 92.030586 375.196167 87.698463 369.543701 84.624084 365.552612 C 89.678047 358.958923 93.75753 355.980103 101.33136 352.840454 Z"></path><path id="path145" fill="#F0DA66" stroke="none" d="M 103.262825 356.021606 C 104.483398 356.643433 107.699951 360.623596 108.814972 361.915833 C 106.508369 363.368896 95.397522 372.590332 95.407913 372.587585 C 92.766647 370.139221 91.249687 368.520996 88.883476 365.792114 C 93.916664 360.519104 96.414658 358.427307 103.262825 356.021606 Z"></path></g><g class="confetti_5"><path id="path146" fill="#373739" stroke="none" d="M 372.7164 73.601685 C 374.953033 74.998413 376.904175 80.320068 379.277466 83.104248 C 381.186523 85.34314 382.64386 87.06958 384.741028 89.285522 C 381.473083 92.582642 375.979431 97.021667 372.344025 100.106018 C 369.886475 98.802795 363.983795 92.817871 362.485992 90.50293 C 357.568207 82.90625 366.971771 77.234009 372.7164 73.601685 Z"></path><path id="path147" fill="#5FAFD5" stroke="none" d="M 371.837616 78.109619 C 372.821411 78.926147 377.814667 86.72998 380.28479 89.270752 C 377.597595 91.348877 374.863342 93.691772 372.23465 95.87207 C 368.986359 94.01001 365.422546 88.287476 363.578583 85.114014 C 366.182678 82.756958 369.129608 80.379639 371.837616 78.109619 Z"></path></g></g></svg>