<?xml version="1.0" encoding="UTF-8"?>
<!-- Generated by Pixelmator Pro 3.7 -->
<svg width="758" height="251" viewBox="0 0 758 251" xmlns="http://www.w3.org/2000/svg">
    <path id="Path" fill="#ffffff" stroke="none" d="M 344.287994 167 C 330.085999 167 318.959991 163.533005 310.908997 156.600006 C 302.970001 149.667007 299 139.324005 299 125.570007 C 299 111.591995 303.136993 101.192993 311.411987 94.371994 C 319.799011 87.550995 330.924988 84.139999 344.790985 84.139999 C 350.605011 84.139999 355.636993 84.587997 359.886993 85.481995 C 363.416992 86.115997 366.838013 87.115997 370.148987 88.483002 C 371.57901 89.072998 372.466003 90.494995 372.466003 92.042007 L 372.466003 102.259995 C 372.466003 105.207993 369.358002 107.181 366.537994 106.317993 C 361.709991 104.839005 356.362 104.100006 350.493988 104.100006 C 342.665985 104.100006 336.68399 105.666 332.54599 108.796997 C 328.520996 111.927994 326.507996 117.518997 326.507996 125.570007 C 326.507996 133.061996 328.408997 138.541 332.210999 142.007996 C 336.013 145.362 342.050995 147.039993 350.325989 147.039993 C 356.140015 147.039993 361.584991 146.188995 366.661987 144.487 C 369.480988 143.542007 372.634003 145.505997 372.634003 148.479996 L 372.634003 159.367996 C 372.634003 160.949005 371.708008 162.395004 370.231995 162.960007 C 366.889008 164.240997 363.328003 165.195999 359.550995 165.826004 C 354.966003 166.608002 349.878998 167 344.287994 167 Z"/>
    <path id="path1" fill="#ffffff" stroke="none" d="M 405.617004 167 C 400.585999 167 395.889008 166.104996 391.528015 164.315994 C 387.278992 162.526993 383.868011 159.787003 381.29599 156.097 C 378.723999 152.294998 377.438995 147.598999 377.438995 142.007996 C 377.438995 133.845001 380.178009 127.470993 385.657013 122.886002 C 391.247986 118.190002 399.57901 115.841995 410.648987 115.841995 L 432.789978 115.841995 L 432.789978 113.996994 C 432.789978 109.970993 431.447998 107.119995 428.764008 105.442001 C 426.080994 103.653 421.049011 102.759003 413.669006 102.759003 C 406.428009 102.759003 399.294006 103.651993 392.268005 105.438004 C 389.640991 106.106003 386.998993 104.179993 386.998993 101.468994 L 386.998993 92.216003 C 386.998993 90.580002 387.990997 89.098007 389.539001 88.570999 C 392.917999 87.421005 396.824005 86.447998 401.256012 85.649994 C 406.959015 84.643005 412.941986 84.139999 419.20401 84.139999 C 431.504028 84.139999 441.120972 86.656006 448.054016 91.688004 C 455.098022 96.720001 458.620972 104.714996 458.620972 115.673996 L 458.620972 161.322006 C 458.620972 163.531998 456.830017 165.322006 454.620972 165.322006 L 438.25 165.322006 C 436.343018 165.322006 434.700989 163.977005 434.327026 162.106995 L 433.629028 158.613007 C 430.721008 161.296997 426.975006 163.365997 422.390991 164.819 C 417.917999 166.272995 412.326996 167 405.617004 167 Z M 414.171997 150.393997 C 418.42099 150.393997 422.110992 149.667007 425.242004 148.214005 C 428.372986 146.759995 430.888977 144.914993 432.789978 142.679001 L 432.789978 131.440994 L 413.669006 131.440994 C 405.729004 131.440994 401.76001 134.628006 401.76001 141.001007 C 401.76001 143.908997 402.765991 146.201004 404.778992 147.878006 C 406.791992 149.556 409.923004 150.393997 414.171997 150.393997 Z"/>
    <path id="path2" fill="#ffffff" stroke="none" d="M 497.625977 167 C 491.252014 167 485.213989 166.552002 479.510986 165.658005 C 475.143982 164.973007 471.465027 164.156998 468.474976 163.209 C 466.916016 162.714996 465.924988 161.231003 465.924988 159.595001 L 465.924988 147.738007 C 465.924988 144.867004 468.879028 142.899994 471.632996 143.714005 C 474.075989 144.436005 476.702026 145.041 479.510986 145.529999 C 484.655029 146.425003 489.23999 146.871994 493.265015 146.871994 C 498.072998 146.871994 501.539978 146.647995 503.664001 146.201004 C 505.901001 145.753998 507.018982 144.524002 507.018982 142.511002 C 507.018982 140.274002 505.22998 138.597 501.651978 137.479004 C 498.072998 136.360992 493.153015 134.738998 486.890991 132.615005 C 479.622986 130.042999 474.088013 127.080002 470.286011 123.725006 C 466.596008 120.259003 464.750977 115.171005 464.750977 108.460999 C 464.750977 100.634003 467.65802 94.651001 473.473022 90.514008 C 479.398987 86.264999 488.791992 84.139999 501.651978 84.139999 C 506.684021 84.139999 511.659973 84.531998 516.580017 85.313995 C 520.140015 85.880997 523.231995 86.505997 525.856018 87.188995 C 527.536987 87.626999 528.656006 89.175995 528.656006 90.914001 L 528.656006 102.026001 C 528.656006 104.949005 525.590027 106.936005 522.770996 106.162994 C 521.234009 105.740997 519.617004 105.389008 517.921997 105.106995 C 513.895996 104.436005 510.262024 104.100006 507.018982 104.100006 C 502.882019 104.100006 499.359009 104.380005 496.452026 104.938995 C 493.656006 105.386002 492.258972 106.559998 492.258972 108.460999 C 492.258972 110.585999 493.823975 112.095993 496.955017 112.990005 C 500.085999 113.772995 504.61499 115.115005 510.541016 117.016006 C 516.802979 118.917007 521.66803 120.985001 525.133972 123.222 C 528.601013 125.345993 531.060974 127.917999 532.513977 130.936996 C 533.968018 133.957001 534.695007 137.757996 534.695007 142.343002 C 534.695007 150.281998 531.564026 156.376999 525.302002 160.626007 C 519.039978 164.875 509.815002 167 497.625977 167 Z"/>
    <path id="path3" fill="#ffffff" stroke="none" d="M 573.026978 167 C 563.187012 167 555.919006 164.483994 551.221985 159.451996 C 546.637024 154.419998 544.344971 147.487 544.344971 138.653 L 544.344971 106.281006 L 537.609985 106.281006 C 535.401001 106.281006 533.609985 104.490005 533.609985 102.281006 L 533.609985 89.817993 C 533.609985 87.608002 535.401001 85.817993 537.609985 85.817993 L 544.344971 85.817993 L 544.344971 72.283997 C 544.344971 70.471985 545.562988 68.886993 547.312988 68.419983 L 566.317993 63.343994 C 568.856995 62.664978 571.349976 64.578979 571.349976 67.208008 L 571.349976 85.817993 L 586.403015 85.817993 C 588.702026 85.817993 590.528015 87.751007 590.395996 90.046997 L 589.68103 102.509995 C 589.559998 104.626999 587.807983 106.281006 585.687988 106.281006 L 571.349976 106.281006 L 571.349976 136.807999 C 571.349976 140.610001 572.299988 143.294006 574.200989 144.858994 C 576.10199 146.313004 578.953979 147.039993 582.755981 147.039993 C 584.247986 147.039993 585.752014 146.921005 587.268005 146.684006 C 589.966003 146.263 592.651978 148.182007 592.651978 150.912003 L 592.651978 161 C 592.651978 162.604004 591.700012 164.072006 590.179993 164.582993 C 585.388977 166.194 579.671021 167 573.026978 167 Z"/>
    <path id="path4" fill="#ffffff" stroke="none" d="M 638.893982 167 C 623.573975 167 612.280029 163.477005 605.012024 156.432999 C 597.744019 149.276001 594.109009 138.988998 594.109009 125.570007 C 594.109009 112.263 597.744019 102.031998 605.012024 94.875 C 612.392029 87.718994 623.685974 84.139999 638.893982 84.139999 C 654.213013 84.139999 665.507019 87.718994 672.775024 94.875 C 680.156006 102.031998 683.846008 112.263 683.846008 125.570007 C 683.846008 138.988998 680.211975 149.276001 672.942993 156.432999 C 665.674988 163.477005 654.325012 167 638.893982 167 Z M 638.893982 145.865997 C 645.156006 145.865997 649.627991 144.300003 652.312012 141.169006 C 654.995972 138.037994 656.338013 132.837997 656.338013 125.570007 C 656.338013 118.302002 654.995972 113.102005 652.312012 109.970993 C 649.627991 106.839996 645.156006 105.274002 638.893982 105.274002 C 632.742981 105.274002 628.327026 106.839996 625.643005 109.970993 C 622.958984 113.102005 621.617004 118.302002 621.617004 125.570007 C 621.617004 132.837997 622.958984 138.037994 625.643005 141.169006 C 628.327026 144.300003 632.742981 145.865997 638.893982 145.865997 Z"/>
    <path id="path5" fill="#ffffff" stroke="none" d="M 720.656982 167 C 714.28302 167 708.244995 166.552002 702.541992 165.658005 C 698.174988 164.973007 694.495972 164.156998 691.505981 163.209 C 689.947021 162.714996 688.955017 161.231003 688.955017 159.595001 L 688.955017 147.738007 C 688.955017 144.867004 691.909973 142.899994 694.664001 143.714005 C 697.106018 144.436005 699.731995 145.041 702.541992 145.529999 C 707.684998 146.425003 712.27002 146.871994 716.296021 146.871994 C 721.104004 146.871994 724.570007 146.647995 726.695007 146.201004 C 728.93103 145.753998 730.049988 144.524002 730.049988 142.511002 C 730.049988 140.274002 728.260986 138.597 724.682007 137.479004 C 721.104004 136.360992 716.184021 134.738998 709.921997 132.615005 C 702.653992 130.042999 697.117981 127.080002 693.315979 123.725006 C 689.625977 120.259003 687.781006 115.171005 687.781006 108.460999 C 687.781006 100.634003 690.689026 94.651001 696.502991 90.514008 C 702.429993 86.264999 711.822998 84.139999 724.682007 84.139999 C 729.713989 84.139999 734.690002 84.531998 739.609985 85.313995 C 743.171021 85.880997 746.263 86.505997 748.885986 87.188995 C 750.567993 87.626999 751.687012 89.175995 751.687012 90.914001 L 751.687012 102.026001 C 751.687012 104.949005 748.619995 106.936005 745.801025 106.162994 C 744.263977 105.740997 742.64801 105.389008 740.952026 105.106995 C 736.927002 104.436005 733.29303 104.100006 730.049988 104.100006 C 725.911987 104.100006 722.390015 104.380005 719.482971 104.938995 C 716.687012 105.386002 715.289001 106.559998 715.289001 108.460999 C 715.289001 110.585999 716.85498 112.095993 719.986023 112.990005 C 723.117004 113.772995 727.645996 115.115005 733.572021 117.016006 C 739.833984 118.917007 744.697998 120.985001 748.164978 123.222 C 751.630981 125.345993 754.091003 127.917999 755.544983 130.936996 C 756.999023 133.957001 757.724976 137.757996 757.724976 142.343002 C 757.724976 150.281998 754.593994 156.376999 748.33197 160.626007 C 742.070007 164.875 732.844971 167 720.656982 167 Z"/>
    <path id="path6" fill="none" stroke="#ffffff" stroke-width="5" d="M 252.807007 157.380997 L 252.806 157.382996 C 246.210999 196.779999 220.042999 234.178986 187.92099 244.54599 L 187.912994 244.549011 L 187.906006 244.550995 C 172.001999 249.79599 154.238007 248.40799 136.218994 243.118011 C 118.212006 237.829987 100.145996 228.701996 83.778 218.722992 C 51.054001 198.597992 25.504997 175.356995 12.5783 142.610001 C -0.444298 109.619003 -0.605202 67.294983 19.646004 40.403992 C 39.888 13.7005 81.141006 1.780701 120.746002 3.698608 C 160.171005 5.783997 196.841003 21.406006 221.691986 49.535004 C 246.406006 77.533005 259.368988 118.350998 252.807007 157.380997 Z"/>
    <path id="path7" fill="#ffffff" fill-rule="evenodd" stroke="none" d="M 248.516998 148.988998 C 260.494995 110.764999 258.204987 64.96698 235.128998 38.369019 C 211.877991 11.947205 167.841995 4.549103 129.266006 8.952698 C 90.690002 13.356384 57.574005 29.385986 36.789001 55.455017 C 16.003799 81.348999 7.548798 117.283005 13.361603 152.863998 C 19.174004 188.269012 39.254997 223.498993 69.904007 239.35199 C 100.729996 255.381012 142.123993 252.033997 176.121002 235.123993 C 209.94101 218.037994 236.363007 187.213013 248.516998 148.988998 Z M 151.662003 127.998993 C 150.651001 139.490997 141.005005 148.5 129.25 148.5 C 116.617004 148.5 106.75 138.421997 106.75 126 L 106.75 88.5 C 106.75 76.070984 116.820999 66 129.25 66 C 140.998001 66 150.639008 74.997009 151.660004 86.479004 C 151.759003 87.587997 150.841003 88.490005 149.727005 88.477005 L 133 88.289001 C 130.929001 88.289001 129.25 89.968002 129.25 92.039001 C 129.25 94.110001 130.929001 95.789001 133 95.789001 L 147.895004 95.789001 C 150.024002 95.789001 151.75 97.514999 151.75 99.645004 C 151.75 101.774002 150.024002 103.5 147.895004 103.5 L 133 103.5 C 130.938004 103.5 129.25 105.188004 129.25 107.25 C 129.25 109.311996 130.938004 111 133 111 L 148 111 C 150.070999 111 151.75 112.679001 151.75 114.75 C 151.75 116.820999 150.070999 118.5 148 118.5 L 133 118.5 C 130.938004 118.5 129.25 120.188004 129.25 122.25 C 129.25 124.311996 130.938004 126 133 126 L 149.75 126 C 150.854996 126 151.759003 126.897995 151.662003 127.998993 Z M 159.25 121.214005 C 159.25 118.307999 161.757996 115.800003 164.875 115.800003 C 167.992004 115.800003 170.5 118.307999 170.5 121.214005 L 170.5 126 C 170.5 146.697998 155.404999 163.593002 135.740005 166.707993 C 135.246002 166.785995 134.875 167.207993 134.875 167.707993 L 134.875 173.75 C 134.875 174.302002 135.322998 174.75 135.875 174.75 L 143.050003 174.75 C 147.315994 174.75 151.938004 178.312012 151.740997 182.618011 C 151.649002 184.542999 149.927002 186 148 186 L 110.5 186 C 108.578003 186 106.850998 184.546997 106.759003 182.618011 C 106.552994 178.308014 111.186996 174.75 115.449997 174.75 L 122.625 174.75 C 123.177002 174.75 123.625 174.302002 123.625 173.75 L 123.625 167.406998 C 123.625 166.906998 123.253998 166.485992 122.759995 166.406006 C 102.574997 163.173004 88 144.669006 88 123.949005 L 88 121.214005 C 88 118.307999 90.520004 115.800003 93.625 115.800003 C 96.729996 115.800003 99.25 118.307999 99.25 121.214005 L 99.25 124.804993 C 99.25 140.322998 111.817001 154.953003 127.304993 155.929993 C 144.725998 157.031006 159.25 143.186996 159.25 126 L 159.25 121.214005 Z"/>
</svg>
