<svg width="169" height="30" viewBox="0 0 169 30" fill="none" xmlns="http://www.w3.org/2000/svg">
<path d="M19.2711 29.9558C19.3703 29.947 19.4709 29.9307 19.5689 29.9156C27.2989 28.7031 32.6944 21.7269 32.0661 14.0509C20.1657 22.6228 13.1619 30.6695 19.2711 29.9558Z" fill="white"/>
<path d="M30.5683 8.2496C27.7676 2.59531 21.5328 -0.848777 14.9663 0.18156C6.86558 1.45189 1.33064 9.04874 2.60097 17.1495C2.78429 18.3194 3.09989 19.4352 3.52975 20.4845C12.6035 18.6272 20.9793 14.7512 28.8212 9.78017C26.3914 11.574 23.6149 13.4512 20.6118 15.3036C13.4484 19.7203 6.73865 22.9218 2.52181 24.108C1.03159 24.5277 0 25.8847 0 27.4327L0.00125774 27.434C0.00125774 27.8687 0.410876 28.1866 0.83055 28.0773C6.07019 26.7228 13.9523 23.0915 22.2565 17.9712C25.9356 15.7019 29.3156 13.3761 32.2508 11.1345C34.1016 9.71971 35.1923 7.52835 35.1923 5.19879C35.1923 4.94497 34.8907 4.81178 34.7048 4.98518C33.5568 6.04728 32.189 7.1981 30.641 8.40202C30.6178 8.35209 30.5936 8.3017 30.5683 8.25085V8.2496Z" fill="white"/>
<path d="M126.172 4.97559H128.056L133.079 23.3656L138.1 4.97559H140.013L144.945 23.4549L150.027 4.97559H151.912L145.963 25.9061H143.869L138.998 7.8459L134.036 25.9061H131.942L126.172 4.97559Z" fill="white"/>
<path d="M153.133 4.97559H161.086C165.81 4.97559 168.323 7.96618 168.323 11.5545C168.323 15.1429 165.811 18.1025 161.086 18.1025H154.957V25.9061H153.133V4.97559ZM161.445 16.3694C164.674 16.3694 166.409 14.4248 166.409 11.6147C166.409 8.8045 164.645 6.71053 161.445 6.71053H154.957V16.3694H161.445Z" fill="white"/>
<path d="M84.2721 19.1585H70.3359C70.4102 20.1281 70.7835 21.0512 71.4039 21.7998C72.0243 22.5483 72.8601 23.0925 73.7981 23.3451C76.118 23.9321 78.1927 23.4714 79.7753 21.5732C79.8718 21.4413 80.0149 21.3521 80.1746 21.3224H83.7687C83.9433 21.3224 83.9006 21.3948 83.8857 21.4301C83.778 21.6753 83.7111 21.8666 83.6071 22.0468C81.9912 25.0112 79.4409 26.5436 76.1106 26.7832C73.4786 26.9745 71.0621 26.3393 69.1323 24.454C66.8086 22.1842 66.1678 19.3387 66.6898 16.2368C67.4234 11.6861 71.0844 8.80528 75.7484 9.00217C80.4124 9.19348 83.6926 12.2304 84.2108 16.9129C84.2832 17.589 84.3036 18.2725 84.3519 19.0452C84.3575 19.0805 84.3817 19.1585 84.2702 19.1585H84.2721ZM80.6055 16.3315C80.2192 13.6308 77.5724 11.87 74.5745 12.2601C72.3827 12.5424 70.2282 14.6487 70.4288 16.3315H80.6055Z" fill="white"/>
<path d="M54.5049 12.379V9.62998C54.5049 9.49068 54.6182 9.37924 54.7556 9.37924H56.3307C56.8304 9.36066 57.3003 9.27522 57.7256 8.85916C58.1083 8.54154 58.0823 7.10576 58.06 6.67484C58.0544 6.57268 58.112 6.47981 58.203 6.43523L61.1953 5.28363C61.3625 5.20562 61.5538 5.32635 61.5538 5.51024V9.10991C61.5538 9.24922 61.6671 9.36066 61.8045 9.36066H66.5948C66.5948 9.36066 66.6041 9.36623 66.6078 9.37181C66.6115 9.37738 66.6134 9.37738 66.6152 9.38295C66.6152 9.38852 66.6152 9.3941 66.6152 9.40153L65.8723 12.4031C65.8444 12.5146 65.7441 12.5944 65.6289 12.5944H62.0943C61.7191 12.5944 61.5575 12.6836 61.5612 13.0792V19.9182C61.5909 21.9781 62.5716 22.9124 64.6427 22.9365H66.4091C66.7415 22.9365 66.8976 23.0145 66.8976 23.373V25.9307C66.8976 26.0811 66.697 26.3449 66.5948 26.3374C65.0271 26.265 63.4168 26.3374 61.8974 26.0254C59.4549 25.4737 57.9913 23.3786 57.917 20.6537C57.8724 18.475 57.9077 14.0023 57.917 12.8749C57.917 12.7356 57.8055 12.6223 57.6662 12.6223L54.7575 12.6279C54.6182 12.6279 54.5067 12.5164 54.5067 12.3771L54.5049 12.379Z" fill="white"/>
<path d="M119.702 26.3315H116.021V9.39559H118.682C118.784 9.39559 118.922 9.65377 118.961 9.80794C119.102 10.4302 119.215 11.0654 119.371 11.8622C121.179 9.28043 123.766 9.29901 126.433 9.39559V12.7557L125.857 12.7854C125.174 12.8095 124.49 12.7854 123.812 12.869C122.88 12.9117 121.99 13.2757 121.294 13.8998C120.597 14.5221 120.133 15.3616 119.979 16.2829C119.806 17.1392 119.72 18.0084 119.72 18.8758C119.687 21.1159 119.72 23.3485 119.72 25.5885L119.706 26.3315H119.702Z" fill="white"/>
<path d="M86.2219 3.09009H89.4928V25.8472C89.4928 25.9735 89.4408 26.0979 89.3498 26.1889C89.2588 26.2855 89.1343 26.3319 89.0043 26.3319H85.7334V3.5823C85.7334 3.45043 85.7836 3.32412 85.8764 3.23497C85.9674 3.14581 86.0919 3.09195 86.2219 3.09195V3.09009Z" fill="white"/>
<path d="M91.8313 3.09009H95.1022V25.8472C95.1022 25.9735 95.0502 26.0979 94.9592 26.1889C94.8681 26.2855 94.7437 26.3319 94.6137 26.3319H91.3428V3.5823C91.3428 3.45043 91.3948 3.32412 91.4858 3.23497C91.5768 3.14581 91.7013 3.09195 91.8313 3.09195V3.09009Z" fill="white"/>
<path d="M114.399 9.3977V25.9696C114.399 26.0643 114.347 26.1572 114.256 26.224C114.165 26.2965 114.041 26.3318 113.911 26.3318H110.64V25.3659C109.362 26.1906 107.857 26.6587 106.147 26.7813C103.515 26.9726 101.098 26.3373 99.1685 24.4521C96.8449 22.1823 96.204 19.3367 96.7278 16.2349C97.4615 11.6842 101.122 8.80333 105.786 9.00022C107.657 9.07637 109.514 9.82862 110.852 10.7425L111.106 9.76361C111.138 9.65031 111.158 9.57044 111.249 9.50357C111.34 9.43671 111.465 9.39585 111.595 9.39585H114.401L114.399 9.3977ZM105.499 12.2043C102.659 12.2043 100.357 14.7489 100.357 17.8879C100.357 21.027 102.659 23.5716 105.499 23.5716C108.339 23.5716 110.64 21.027 110.64 17.8879C110.64 14.7489 108.339 12.2043 105.499 12.2043Z" fill="white"/>
<path d="M47.8356 27.1029C43.9688 27.1029 40.5509 24.9907 39.5563 22.0366C39.5004 21.869 39.5935 21.6901 39.763 21.6436L42.5923 20.8706C42.7413 20.8296 42.8941 20.9079 42.9518 21.0513C43.5329 22.4855 45.6042 23.5751 47.8337 23.5751C50.6388 23.5751 52.7547 22.2582 52.7547 20.513C52.7547 17.7526 50.0223 16.5624 47.6847 16.3798C45.701 16.2271 43.8421 15.6348 42.4489 14.7147C40.6422 13.5226 39.6475 11.7941 39.6475 9.8514C39.6475 6.08148 43.1753 3.01562 47.5133 3.01562C50.6947 3.01562 53.4066 4.75344 54.5168 7.47099C54.5819 7.63303 54.5037 7.81743 54.3379 7.87517L51.5776 8.85677C51.4285 8.90892 51.2665 8.84001 51.2013 8.69658C50.6053 7.38158 49.1897 6.54527 47.5133 6.54527C45.2037 6.54527 43.1772 8.09124 43.1772 9.8514C43.1772 10.9112 44.4493 12.5894 47.9566 12.8595C52.9373 13.2451 56.2844 16.3202 56.2844 20.5111C56.2844 24.268 52.6504 27.1029 47.8318 27.1029H47.8356Z" fill="white"/>
</svg>
