<svg width="24" height="24" viewBox="0 0 24 24" xmlns="http://www.w3.org/2000/svg" stroke="currentColor" className="w-6 h-6">
    <g id="Group">
        <path id="Path" fill="#464342" stroke="none" d="M 1.713049 11.948262 C 1.713049 16.040459 4.091213 19.576918 7.539738 21.252787 L 2.608131 7.740788 C 2.034492 9.026558 1.713049 10.449442 1.713049 11.948262 Z"/>
        <path id="path1" fill="#464342" stroke="none" d="M 19.030819 11.426558 C 19.030819 10.148851 18.571869 9.264001 18.178228 8.575278 C 17.654163 7.723673 17.162951 7.002491 17.162951 6.150885 C 17.162951 5.200523 17.883738 4.31587 18.899015 4.31587 C 18.944853 4.31587 18.988329 4.321575 19.032984 4.324131 C 17.19364 2.639017 14.743082 1.610163 12.051541 1.610163 C 8.439737 1.610163 5.262098 3.46328 3.413508 6.270098 C 3.656065 6.277376 3.884656 6.282492 4.07882 6.282492 C 5.160197 6.282492 6.834099 6.151278 6.834099 6.151278 C 7.39141 6.118425 7.457115 6.936983 6.900393 7.002886 C 6.900393 7.002886 6.340328 7.068787 5.717115 7.101442 L 9.481967 18.299803 L 11.744459 11.514296 L 10.133705 7.101049 C 9.576983 7.068394 9.049574 7.002491 9.049574 7.002491 C 8.492458 6.969835 8.557771 6.118032 9.114885 6.150885 C 9.114885 6.150885 10.822229 6.282099 11.838098 6.282099 C 12.919278 6.282099 14.593377 6.150885 14.593377 6.150885 C 15.151081 6.118032 15.21659 6.93659 14.659672 7.002491 C 14.659672 7.002491 14.098426 7.068394 13.476393 7.101049 L 17.212524 18.214622 L 18.243738 14.768656 C 18.690689 13.33869 19.030819 12.311606 19.030819 11.426558 Z"/>
        <path id="path2" fill="#464342" stroke="none" d="M 12.232918 12.852591 L 9.131017 21.866165 C 10.05718 22.138426 11.036655 22.287344 12.051541 22.287344 C 13.255476 22.287344 14.410032 22.079214 15.48472 21.701311 C 15.456984 21.657049 15.431803 21.610033 15.411147 21.558886 Z"/>
        <path id="path3" fill="#464342" stroke="none" d="M 21.123148 6.988132 C 21.167606 7.317442 21.192787 7.67095 21.192787 8.051213 C 21.192787 9.100328 20.996853 10.279672 20.406689 11.754295 L 17.248722 20.88472 C 20.322294 19.092392 22.389641 15.762492 22.389641 11.94846 C 22.389837 10.151016 21.930689 8.460788 21.123148 6.988132 Z"/>
        <path id="path4" fill="#464342" stroke="none" d="M 12.051541 -0.102886 C 5.406492 -0.102886 -0 5.303213 -0 11.948262 C -0 18.594097 5.406492 24 12.051541 24 C 18.696394 24 24.103672 18.594097 24.103672 11.948262 C 24.103476 5.303213 18.696394 -0.102886 12.051541 -0.102886 Z M 12.051541 23.447605 C 5.711213 23.447605 0.55259 18.288982 0.55259 11.948262 C 0.55259 5.607935 5.711017 0.449705 12.051541 0.449705 C 18.391672 0.449705 23.549902 5.607935 23.549902 11.948262 C 23.549902 18.288982 18.391672 23.447605 12.051541 23.447605 Z"/>
    </g>
</svg>
