<?xml version="1.0" encoding="UTF-8"?> <svg xmlns="http://www.w3.org/2000/svg" width="256" height="256" viewBox="0 0 256 256" fill="none"><mask id="mask0_462_1533" style="mask-type:luminance" maskUnits="userSpaceOnUse" x="0" y="0" width="256" height="256"><path d="M0 0H256V256H0V0Z" fill="white"></path></mask><g mask="url(#mask0_462_1533)"><path d="M33.1037 256C32.0173 256 30.944 255.763 29.958 255.307C28.9721 254.851 28.0971 254.186 27.3936 253.358C26.6901 252.53 26.1749 251.559 25.8837 250.512C25.5925 249.466 25.5323 248.368 25.7072 247.296L47.1289 115.474C48.2691 108.443 51.8751 102.047 57.3012 97.4314C62.7273 92.8161 69.6191 90.283 76.7426 90.2858H165.072L170 60.023H161.771C158.105 60.0321 154.621 58.423 152.244 55.6252C149.867 52.8275 148.834 49.1338 149.428 45.5224L155.115 10.4961C155.578 7.56172 157.077 4.89008 159.339 2.96479C161.601 1.03951 164.478 -0.0121768 167.449 0.000106391H200.418C204.766 -0.00224861 209.062 0.940871 213.01 2.7641C216.957 4.58733 220.46 7.24706 223.277 10.559C226.094 13.8709 228.157 17.7557 229.324 21.9443C230.49 26.1328 230.732 30.5249 230.032 34.8161L216.775 116.37C216.487 118.135 215.825 119.817 214.833 121.304C213.841 122.791 212.542 124.049 211.024 124.992L137.095 170.798C134.902 172.151 132.346 172.796 129.774 172.644C127.202 172.492 124.739 171.55 122.722 169.948L88.2534 142.519C84.9986 139.941 84.4592 135.205 87.0466 131.959C89.634 128.713 94.3609 128.165 97.6157 130.752L130.704 157.129L202.164 112.85L215.248 32.3932C215.592 30.2507 215.467 28.0591 214.881 25.9697C214.295 23.8802 213.263 21.9428 211.856 20.2911C210.449 18.6395 208.699 17.313 206.729 16.4032C204.759 15.4935 202.615 15.0222 200.445 15.0218H169.588L164.706 45.0378H172.935C174.746 45.0412 176.535 45.4374 178.179 46.1993C179.822 46.9611 181.281 48.0704 182.455 49.4506C183.628 50.8307 184.488 52.449 184.975 54.1938C185.463 55.9385 185.566 57.7682 185.277 59.5567L179.527 94.8115C179.061 97.7458 177.561 100.417 175.297 102.34C173.033 104.264 170.155 105.313 167.184 105.298H76.7426C69.3734 105.271 63.0923 110.62 61.9403 117.897L43.1517 233.445L69.5014 217.125C71.4839 215.917 73.763 215.284 76.0843 215.296H172.743C180.103 215.314 186.384 209.966 187.545 202.697L193.561 165.678C193.719 164.706 194.067 163.775 194.584 162.937C195.102 162.1 195.78 161.372 196.579 160.797C197.378 160.221 198.282 159.808 199.241 159.582C200.199 159.356 201.192 159.321 202.164 159.479C203.136 159.637 204.068 159.985 204.905 160.502C205.743 161.02 206.47 161.698 207.046 162.497C207.621 163.296 208.034 164.2 208.26 165.159C208.486 166.117 208.521 167.11 208.363 168.082L202.347 205.093C201.207 212.124 197.601 218.52 192.175 223.136C186.749 227.751 179.857 230.284 172.733 230.281H76.8157L37.0626 254.876C35.8737 255.612 34.5024 256.002 33.1037 256Z" fill="#089949"></path></g></svg> 